<svg width="364" height="144" viewBox="0 0 364 144" fill="none" xmlns="http://www.w3.org/2000/svg">
<path d="M40.6873 85H34.8506L43.7441 59.2379H50.7632L59.6441 85H53.8074L47.3543 65.1249H47.153L40.6873 85ZM40.3225 74.8738H54.1093V79.1255H40.3225V74.8738ZM62.7449 85V59.2379H68.1917V80.5092H79.2362V85H62.7449ZM82.8432 85V59.2379H100.202V63.7287H88.29V69.8673H99.3093V74.358H88.29V80.5092H100.253V85H82.8432ZM104.533 85V59.2379H109.98V70.5969H110.319L119.59 59.2379H126.119L116.558 70.773L126.232 85H119.716L112.659 74.4084L109.98 77.6789V85H104.533ZM128.955 85V59.2379H134.402V69.8673H145.459V59.2379H150.893V85H145.459V74.358H134.402V85H128.955ZM160.831 59.2379V85H155.384V59.2379H160.831ZM186.86 59.2379V85H182.156L170.948 68.7855H170.759V85H165.312V59.2379H170.092L181.212 75.4398H181.439V59.2379H186.86ZM205.336 66.647C205.235 65.6323 204.803 64.844 204.04 64.2821C203.277 63.7203 202.241 63.4393 200.933 63.4393C200.044 63.4393 199.294 63.5651 198.681 63.8167C198.069 64.0599 197.6 64.3995 197.273 64.8356C196.954 65.2717 196.795 65.7665 196.795 66.32C196.778 66.7812 196.874 67.1837 197.084 67.5276C197.302 67.8714 197.6 68.1691 197.977 68.4207C198.354 68.6639 198.791 68.8777 199.285 69.0622C199.78 69.2383 200.308 69.3893 200.87 69.5151L203.185 70.0685C204.309 70.3201 205.34 70.6556 206.279 71.0749C207.219 71.4942 208.032 72.0099 208.72 72.6221C209.407 73.2343 209.94 73.9555 210.317 74.7857C210.703 75.616 210.9 76.5678 210.908 77.6412C210.9 79.2178 210.498 80.5847 209.701 81.742C208.913 82.8909 207.772 83.784 206.279 84.4214C204.795 85.0503 203.005 85.3648 200.908 85.3648C198.828 85.3648 197.017 85.0461 195.474 84.4088C193.939 83.7714 192.74 82.828 191.876 81.5785C191.021 80.3206 190.572 78.7649 190.53 76.9116H195.801C195.86 77.7754 196.107 78.4966 196.543 79.0752C196.988 79.6455 197.579 80.0774 198.317 80.3709C199.063 80.656 199.906 80.7986 200.845 80.7986C201.768 80.7986 202.568 80.6644 203.248 80.396C203.935 80.1277 204.468 79.7545 204.845 79.2765C205.223 78.7985 205.411 78.2492 205.411 77.6286C205.411 77.05 205.239 76.5636 204.896 76.1694C204.56 75.7753 204.065 75.4398 203.411 75.1631C202.766 74.8864 201.973 74.6348 201.034 74.4084L198.229 73.7039C196.057 73.1756 194.342 72.3496 193.084 71.2258C191.826 70.1021 191.201 68.5884 191.209 66.6848C191.201 65.1249 191.616 63.7622 192.455 62.5965C193.302 61.4309 194.463 60.521 195.939 59.8669C197.415 59.2127 199.092 58.8857 200.971 58.8857C202.883 58.8857 204.552 59.2127 205.977 59.8669C207.411 60.521 208.527 61.4309 209.323 62.5965C210.12 63.7622 210.531 65.1124 210.556 66.647H205.336ZM222.771 85V59.2379H228.217V69.8673H239.274V59.2379H244.709V85H239.274V74.358H228.217V85H222.771ZM272.873 72.1189C272.873 74.9283 272.341 77.3183 271.276 79.2891C270.219 81.2598 268.777 82.7651 266.949 83.805C265.129 84.8365 263.083 85.3522 260.81 85.3522C258.521 85.3522 256.466 84.8323 254.646 83.7924C252.826 82.7525 251.388 81.2472 250.331 79.2765C249.275 77.3058 248.747 74.9199 248.747 72.1189C248.747 69.3096 249.275 66.9196 250.331 64.9488C251.388 62.9781 252.826 61.477 254.646 60.4455C256.466 59.4056 258.521 58.8857 260.81 58.8857C263.083 58.8857 265.129 59.4056 266.949 60.4455C268.777 61.477 270.219 62.9781 271.276 64.9488C272.341 66.9196 272.873 69.3096 272.873 72.1189ZM267.351 72.1189C267.351 70.2992 267.079 68.7645 266.533 67.515C265.997 66.2654 265.238 65.3178 264.257 64.6721C263.275 64.0264 262.127 63.7035 260.81 63.7035C259.493 63.7035 258.344 64.0264 257.363 64.6721C256.382 65.3178 255.619 66.2654 255.074 67.515C254.537 68.7645 254.269 70.2992 254.269 72.1189C254.269 73.9387 254.537 75.4734 255.074 76.7229C255.619 77.9724 256.382 78.9201 257.363 79.5658C258.344 80.2115 259.493 80.5344 260.81 80.5344C262.127 80.5344 263.275 80.2115 264.257 79.5658C265.238 78.9201 265.997 77.9724 266.533 76.7229C267.079 75.4734 267.351 73.9387 267.351 72.1189ZM276.908 59.2379H283.625L290.72 76.5468H291.022L298.117 59.2379H304.834V85H299.551V68.232H299.337L292.67 84.8742H289.072L282.405 68.1691H282.191V85H276.908V59.2379ZM309.321 85V59.2379H326.681V63.7287H314.768V69.8673H325.788V74.358H314.768V80.5092H326.731V85H309.321Z" fill="#F0EFEB"/>
</svg>
