<svg width="364" height="144" viewBox="0 0 364 144" fill="none" xmlns="http://www.w3.org/2000/svg">
<g clip-path="url(#clip0_3093_19723)">
<path d="M144.865 60.5459L142.527 64.2747V80.5602L144.865 84.2412H155.447V78.9826H148.513L148.497 60.5459H144.865Z" fill="#F0EFEB"/>
<path d="M195.52 84.2412V60.5459H203.195C204.127 60.5459 204.964 60.5778 205.691 60.6415C206.417 60.7052 207.065 60.8009 207.634 60.9443C208.202 61.0877 208.708 61.263 209.15 61.502C209.592 61.7251 210.018 62.0119 210.413 62.3306C211.298 63.0636 211.977 63.9719 212.451 65.0714C212.924 66.155 213.161 67.3501 213.161 68.6249C213.161 69.836 212.94 70.9833 212.498 72.0669C212.056 73.1505 211.456 74.0587 210.698 74.7599C209.892 75.5248 208.976 76.0506 207.918 76.3534C206.86 76.6561 205.501 76.8155 203.827 76.8155H201.253V84.2412H195.52ZM201.253 71.4932H203.685C206.165 71.4932 207.412 70.569 207.412 68.7046C207.412 67.7007 207.097 66.9836 206.481 66.5374C205.865 66.0913 204.838 65.8682 203.432 65.8682H201.253V71.4932Z" fill="#F0EFEB"/>
<path d="M225.845 80.8014H217.68L216.448 84.2433H210.004L219.401 60.564H224.155L233.49 84.2433H226.982L225.845 80.8014ZM219.338 76.0049H224.234L221.802 67.91L219.338 76.0049Z" fill="#F0EFEB"/>
<path d="M234.512 84.2412V60.5459H240.498V71.2383L247.179 60.5459H253.48L245.662 72.3696L253.97 84.2252H246.926L240.482 73.995V84.2252H234.512V84.2412Z" fill="#F0EFEB"/>
<path d="M261.446 84.2412V75.6044L254.449 60.5459H260.956L264.447 70.0591L267.969 60.5459H274.413L267.448 75.6044V84.2412H261.446Z" fill="#F0EFEB"/>
<path d="M172.044 80.8014H163.879L162.647 84.2433H156.203L165.601 60.564H170.355L179.689 84.2433H173.182L172.044 80.8014ZM165.537 76.0049H170.434L168.001 67.91L165.537 76.0049Z" fill="#F0EFEB"/>
<path d="M181.38 84.2412V75.6044L174.383 60.5459H180.89L184.38 70.0591L187.902 60.5459H194.346L187.381 75.6044V84.2412H181.38Z" fill="#F0EFEB"/>
<path d="M132.044 80.3391C127.653 80.3391 124.1 76.7538 124.1 72.3238C124.1 67.8939 127.653 64.3086 132.044 64.3086C134.318 64.3086 136.356 65.2647 137.793 66.8103L142.673 59.0819C139.767 56.7076 136.072 55.2734 132.044 55.2734C122.71 55.2734 115.145 62.9063 115.145 72.3238C115.145 81.7414 122.71 89.3742 132.044 89.3742C136.072 89.3742 139.783 87.9401 142.673 85.5658L137.793 77.8533C136.356 79.383 134.318 80.3391 132.044 80.3391Z" fill="#F0EFEB"/>
<path d="M143.943 56.7745C140.579 54.0655 136.315 52.4401 131.671 52.4401C120.789 52.4401 111.96 61.3478 111.96 72.327C111.96 83.3062 120.789 92.2138 131.671 92.2138C136.315 92.2138 140.563 90.5884 143.943 87.8795L155.931 106.842C149.076 111.75 140.721 114.634 131.687 114.634C108.517 114.634 89.7383 95.6876 89.7383 72.311C89.7383 48.9345 108.517 29.9878 131.687 29.9878C140.721 29.9878 149.092 32.888 155.931 37.78L143.943 56.7745Z" fill="#F0EFEB"/>
</g>
<defs>
<clipPath id="clip0_3093_19723">
<rect width="184.679" height="83.8995" fill="white" transform="translate(89.7148 30)"/>
</clipPath>
</defs>
</svg>
