<svg width="364" height="144" viewBox="0 0 364 144" fill="none" xmlns="http://www.w3.org/2000/svg">
<path d="M250.173 49.0974V33.0088H247.796V49.0974C246.101 50.7929 245.142 51.7512 243.447 53.4467H210.551V55.8241H243.428C245.124 57.5196 246.082 58.4779 247.778 60.1734V76.262H250.155V60.1918C251.851 58.4963 252.809 57.538 254.504 55.8425H271.367V53.4652H254.504C252.827 51.7512 251.869 50.8113 250.173 49.0974Z" fill="#F0EFEB"/>
<path d="M92.7344 85.3108V59.4731H109.615V64.0251H97.6181V69.5539H107.459V74.1059H97.6181V80.7404H109.615V85.2924H92.7344V85.3108Z" fill="#F0EFEB"/>
<path d="M121.778 85.8451C119.99 85.8451 118.424 85.4028 117.097 84.4998C115.752 83.5968 114.72 82.3805 113.964 80.8324C113.208 79.2844 112.84 77.552 112.84 75.617C112.84 73.645 113.227 71.8943 113.982 70.3462C114.738 68.8166 115.807 67.6003 117.189 66.7157C118.571 65.8311 120.175 65.3888 122.036 65.3888C123.879 65.3888 125.427 65.8311 126.68 66.7341C127.933 67.6371 128.892 68.8535 129.537 70.4015C130.182 71.9496 130.513 73.6819 130.513 75.617C130.513 77.552 130.182 79.3028 129.537 80.8324C128.892 82.3805 127.915 83.5968 126.625 84.4998C125.316 85.4028 123.695 85.8451 121.778 85.8451ZM122.57 81.5143C123.658 81.5143 124.524 81.2747 125.187 80.7771C125.832 80.2795 126.312 79.5977 126.588 78.7131C126.883 77.8285 127.012 76.7964 127.012 75.617C127.012 74.4375 126.864 73.4239 126.588 72.5209C126.293 71.6363 125.851 70.9544 125.206 70.4568C124.579 69.9592 123.75 69.7196 122.736 69.7196C121.649 69.7196 120.746 69.9776 120.046 70.5121C119.345 71.0465 118.829 71.7653 118.498 72.6499C118.166 73.5345 118 74.5296 118 75.5985C118 76.6858 118.166 77.681 118.479 78.5656C118.811 79.4502 119.29 80.169 119.972 80.685C120.654 81.2379 121.502 81.5143 122.57 81.5143ZM127.012 85.3107V72.0233H126.404V59.4546H131.324V85.3107H127.012Z" fill="#F0EFEB"/>
<path d="M136.707 63.2328V58.9204H141.591V63.2328H136.707ZM136.707 85.311V65.9235H141.591V85.311H136.707Z" fill="#F0EFEB"/>
<path d="M155.522 85.845C153.514 85.845 151.781 85.4027 150.344 84.4997C148.906 83.5967 147.801 82.3803 147.045 80.8323C146.271 79.2843 145.902 77.5519 145.902 75.6169C145.902 73.6634 146.308 71.8942 147.1 70.3645C147.893 68.8165 149.017 67.6002 150.473 66.7156C151.929 65.831 153.624 65.3887 155.615 65.3887C157.9 65.3887 159.816 65.96 161.364 67.121C162.912 68.282 163.908 69.8485 164.331 71.8573L159.448 73.1473C159.153 72.1337 158.655 71.3597 157.955 70.7884C157.236 70.2171 156.444 69.9407 155.541 69.9407C154.509 69.9407 153.661 70.1803 153.016 70.6778C152.353 71.1754 151.873 71.8573 151.56 72.705C151.247 73.5528 151.099 74.5295 151.099 75.5984C151.099 77.2939 151.468 78.6577 152.224 79.7081C152.979 80.7586 154.085 81.2746 155.559 81.2746C156.665 81.2746 157.494 81.0166 158.066 80.519C158.637 80.0214 159.079 79.3027 159.356 78.3628L164.35 79.3948C163.797 81.4589 162.765 83.0438 161.235 84.1495C159.669 85.2922 157.771 85.845 155.522 85.845Z" fill="#F0EFEB"/>
<path d="M165.754 69.7012V65.9232H179.539V69.7012H165.754ZM179.539 85.3106C178.194 85.5687 176.885 85.6792 175.595 85.6424C174.305 85.6055 173.162 85.3844 172.149 84.9605C171.135 84.5366 170.361 83.8548 169.845 82.8964C169.366 82.0118 169.108 81.1088 169.09 80.1873C169.071 79.2659 169.053 78.2339 169.053 77.0728V60.5234H173.936V76.778C173.936 77.5335 173.936 78.2154 173.955 78.8236C173.973 79.4317 174.102 79.9109 174.323 80.2611C174.747 80.9429 175.448 81.3115 176.388 81.3668C177.327 81.4221 178.378 81.3852 179.52 81.2194V85.3106H179.539Z" fill="#F0EFEB"/>
<path d="M191.051 85.8821C189.54 85.8821 188.287 85.6241 187.328 85.1081C186.37 84.5921 185.633 83.9471 185.098 83.1546C184.564 82.3621 184.177 81.5513 183.956 80.6851C183.735 79.8374 183.587 79.0449 183.55 78.3446C183.495 77.6443 183.477 77.1283 183.477 76.7965V65.9233H188.434V75.0826C188.434 75.5249 188.452 76.0962 188.508 76.7781C188.563 77.46 188.71 78.1603 188.95 78.8422C189.208 79.5425 189.613 80.1138 190.185 80.5745C190.756 81.0352 191.567 81.2748 192.599 81.2748C193.023 81.2748 193.465 81.2011 193.944 81.0721C194.423 80.9431 194.866 80.6851 195.29 80.3165C195.714 79.9479 196.045 79.3766 196.322 78.6395C196.598 77.9023 196.727 76.944 196.727 75.7461L199.528 77.073C199.528 78.6026 199.215 80.0401 198.588 81.3854C197.962 82.7307 197.022 83.818 195.787 84.6289C194.534 85.4767 192.968 85.8821 191.051 85.8821ZM197.335 85.3108V78.879H196.727V65.9233H201.648V85.3108H197.335Z" fill="#F0EFEB"/>
<path d="M206.645 85.3106V65.9231H210.957V72.3549H211.565V85.3106H206.645ZM218.347 85.3106V73.8661C218.347 72.5945 218.052 71.5809 217.444 70.8806C216.836 70.1618 216.007 69.8117 214.938 69.8117C213.924 69.8117 213.095 70.1618 212.487 70.8622C211.878 71.5625 211.565 72.4655 211.565 73.5897L209.519 72.1522C209.519 70.8806 209.833 69.738 210.478 68.7428C211.104 67.7292 211.971 66.9367 213.039 66.347C214.108 65.7573 215.306 65.4624 216.633 65.4624C218.144 65.4624 219.398 65.7941 220.374 66.4392C221.351 67.0842 222.07 67.9503 222.53 69.0192C222.991 70.0881 223.231 71.286 223.231 72.5761V85.329H218.347V85.3106ZM230.013 85.3106V73.8661C230.013 72.5945 229.718 71.5809 229.11 70.8806C228.502 70.1618 227.672 69.8117 226.603 69.8117C225.921 69.8117 225.332 69.9775 224.834 70.2908C224.337 70.6041 223.931 71.0464 223.655 71.6177C223.378 72.189 223.231 72.8341 223.231 73.5897L221.185 72.2259C221.185 70.899 221.498 69.7195 222.125 68.7059C222.752 67.6923 223.599 66.8999 224.65 66.3286C225.7 65.7573 226.88 65.4808 228.17 65.4808C230.381 65.4808 232.058 66.1443 233.183 67.4528C234.307 68.7612 234.878 70.4751 234.878 72.5945V85.3475H230.013V85.3106Z" fill="#F0EFEB"/>
</svg>
