<svg width="364" height="144" viewBox="0 0 364 144" fill="none" xmlns="http://www.w3.org/2000/svg">
<path d="M240.226 47.3594L236.16 55.6125L232.344 63.3592L228.794 56.1554L224.456 47.3594H218.625L219.92 49.9225C219.951 49.9903 219.987 50.053 220.019 50.1208L223.814 57.6275L230.021 69.9157H234.343L235.82 66.9924L238.441 61.8088L245.739 47.3594H240.226Z" fill="#F0EFEB"/>
<path d="M303.035 50.7934C300.691 50.7934 298.738 51.4302 297.178 52.7092C295.33 54.2178 294.4 56.191 294.4 58.6341C294.4 61.0771 295.324 63.0503 297.178 64.559C298.738 65.8379 300.706 66.4748 303.071 66.4748C305.436 66.4748 307.399 65.8379 308.949 64.559C309.873 63.802 310.583 62.8676 311.074 61.7714C311.507 60.79 311.721 59.7773 311.721 58.7333C311.721 56.1806 310.797 54.1708 308.944 52.7092C307.367 51.4563 305.399 50.8195 303.035 50.7934ZM303.019 46.9618C307.305 46.9618 310.703 48.0267 313.214 50.1513C315.866 52.3751 317.197 55.2514 317.197 58.775C317.197 60.9362 316.56 62.9512 315.286 64.82C312.802 68.4793 308.725 70.3064 303.055 70.3064C298.806 70.3064 295.424 69.2415 292.913 67.1169C291.566 65.9841 290.548 64.6216 289.848 63.0347C289.238 61.6357 288.93 60.1636 288.93 58.6236C288.93 56.3633 289.561 54.3013 290.819 52.4273C293.231 48.8462 297.298 47.0244 303.014 46.9565L303.019 46.9618Z" fill="#F0EFEB"/>
<path d="M39.3575 69.9105H40.7982V66.1938H39.3575H33.2812H23.5508V60.0131H30.0499H33.5265H35.4006V56.432H33.5265H28.2228H23.5508V51.0761H30.9478H38.9294L40.7982 47.3594H38.9294H29.032H18.957V49.0925V68.1774V69.9105H35.0404H39.3575Z" fill="#F0EFEB"/>
<path d="M113.893 69.9105H115.333V66.1938H113.893H107.811H98.0859V60.0131H104.585H108.056H109.931V56.432H108.056H102.753H98.0859V51.0761H105.478H113.459L115.333 47.3594H113.459H103.562H93.4922V49.0925V68.1774V69.9105H109.576H113.893Z" fill="#F0EFEB"/>
<path d="M88.2333 47.3594H67.6188H65.75L67.6188 51.0761H72.7503H75.2559V57.7632V68.1774V69.9105H80.6171V68.1774V57.7632V51.0761H83.9005H88.2333L90.123 47.3594H88.2333Z" fill="#F0EFEB"/>
<path d="M151.125 68.1774V49.0768V47.3594H146.531V49.0768V68.1774V69.9105H151.125V68.1774Z" fill="#F0EFEB"/>
<path d="M177.011 64.8197C174.886 65.9211 172.636 66.4692 170.261 66.4692C167.452 66.4692 165.213 65.8272 163.548 64.5378C161.58 63.0292 160.593 61.0611 160.593 58.6285C160.593 56.1959 161.575 54.2279 163.548 52.7193C165.218 51.4299 167.452 50.7878 170.261 50.7878C172.636 50.7878 174.886 51.336 177.011 52.4322C177.454 52.6619 177.814 52.8655 178.102 53.0534L180.331 49.9839C180.174 49.9056 180.007 49.8221 179.819 49.7229C177.731 48.6215 175.987 47.8854 174.599 47.5096C173.205 47.1337 171.54 46.9458 169.593 46.9458C164.299 46.9458 160.343 48.4597 157.727 51.4874C155.989 53.5023 155.117 55.8775 155.117 58.6077C155.117 60.6122 155.603 62.4445 156.574 64.1097C157.414 65.5662 158.568 66.7825 160.029 67.7586C162.514 69.4447 165.693 70.2852 169.572 70.2852C171.519 70.2852 173.195 70.092 174.604 69.7162C176.014 69.3351 177.752 68.5991 179.814 67.5028C180.054 67.3776 180.268 67.2627 180.461 67.1687L178.222 64.0888C177.919 64.3029 177.517 64.5378 177.005 64.7988L177.011 64.8197Z" fill="#F0EFEB"/>
<path d="M191.109 61.0728L195.16 53.0389L199.143 61.0728H191.109ZM202.374 67.337C202.442 67.4623 202.5 67.5823 202.547 67.6919L203.716 69.9157H209.724L208.336 67.337L198.976 49.9538L197.577 47.3594H193.124L191.59 50.2983L187.873 57.4291L184.767 63.3905L182.553 67.6345L181.363 69.9157H186.552L187.68 67.7233C187.727 67.6032 187.784 67.4779 187.857 67.337L189.512 64.1631H200.683L202.369 67.337H202.374Z" fill="#F0EFEB"/>
<path d="M252.777 68.1774V49.0768V47.3594H248.184V49.0768V68.1774V69.9105H252.777V68.1774Z" fill="#F0EFEB"/>
<path d="M275.577 58.0233C274.815 57.5065 273.938 57.1046 272.951 56.8174C271.965 56.5303 270.675 56.3059 269.083 56.1388L266.4 55.8726C264.599 55.6951 263.424 55.5333 262.881 55.3767C261.822 55.0687 261.289 54.4893 261.289 53.6436C261.289 53.1268 261.498 52.6465 261.916 52.208C262.333 51.7695 262.876 51.4355 263.55 51.2162C264.474 50.9291 265.539 50.7882 266.744 50.7882C269.48 50.7882 271.86 51.472 273.886 52.8345C273.927 52.8606 273.959 52.8867 273.995 52.9128L275.968 49.1542C275.854 49.1125 275.728 49.0655 275.593 49.0133C273.666 48.2303 272.064 47.6874 270.774 47.395C269.485 47.1027 268.096 46.9565 266.603 46.9565C263.049 46.9565 260.386 47.7761 258.606 49.4205C257.249 50.6681 256.57 52.2446 256.57 54.1499C256.57 55.3088 256.837 56.332 257.374 57.2246C257.964 58.2165 258.784 58.9629 259.817 59.4589C260.548 59.8138 261.274 60.0696 262.005 60.2262C262.735 60.388 263.978 60.5551 265.747 60.7326L268.378 60.9988C270.143 61.1867 271.317 61.3903 271.897 61.6096C272.727 61.928 273.144 62.4605 273.144 63.2069C273.144 63.7029 272.967 64.1779 272.617 64.632C272.262 65.0862 271.792 65.4516 271.197 65.7283C270.127 66.2242 268.832 66.4695 267.319 66.4695C265.93 66.4695 264.458 66.2399 262.908 65.7753C261.357 65.3107 260.214 64.7626 259.473 64.1257C259.342 64.0161 259.233 63.9012 259.133 63.7812L257.285 67.832C257.479 67.9051 257.734 68.0095 258.053 68.1557C261.06 69.586 264.108 70.3064 267.193 70.3064C268.911 70.3064 270.524 70.1028 272.027 69.6956C274.042 69.1579 275.53 68.3279 276.485 67.2004C277.545 65.9684 278.072 64.559 278.072 62.972C278.072 61.9698 277.848 61.0301 277.399 60.1479C276.95 59.2657 276.334 58.5558 275.561 58.0181L275.577 58.0233Z" fill="#F0EFEB"/>
<path d="M285.707 68.1774V49.0768V47.3594H281.113V49.0768V68.1774V69.9105H285.707V68.1774Z" fill="#F0EFEB"/>
<path d="M340.128 47.3594V49.0768V62.4613L324.306 47.3594H319.645V49.0768V68.1774V69.9105H324.557V68.1774V54.464L338.328 67.5145H338.333L340.859 69.9105H345.046V68.1774V49.0768V47.3594H340.128Z" fill="#F0EFEB"/>
<path d="M62.8113 58.0244C62.0492 57.5076 61.1722 57.1057 60.1908 56.8186C59.2042 56.5315 57.9148 56.307 56.3227 56.14L53.6395 55.8737C51.8385 55.6962 50.664 55.5344 50.1211 55.3778C49.0614 55.0698 48.5342 54.4904 48.5342 53.6447C48.5342 53.1279 48.743 52.6477 49.1606 52.2092C49.5782 51.7707 50.1211 51.4366 50.7945 51.2173C51.7185 50.9302 52.7834 50.7893 53.9892 50.7893C56.7246 50.7893 59.105 51.4731 61.1304 52.8356C61.1722 52.8617 61.2035 52.8878 61.2401 52.9139L63.2133 49.1554C63.0984 49.1136 62.9784 49.0666 62.8374 49.0144C60.9112 48.2314 59.3034 47.6885 58.0192 47.3962C56.7194 47.1091 55.3308 46.9629 53.8379 46.9629C50.2829 46.9629 47.6206 47.7877 45.8406 49.4268C44.4833 50.6744 43.8047 52.2509 43.8047 54.1563C43.8047 55.3152 44.0709 56.3383 44.6086 57.231C45.1985 58.2228 46.018 58.9693 47.0516 59.4652C47.7825 59.8202 48.5081 60.076 49.2389 60.2326C49.9697 60.3944 51.2173 60.5614 52.9818 60.7389L55.6127 61.0052C57.3771 61.1931 58.5517 61.3967 59.1311 61.6159C59.9611 61.9343 60.3787 62.4668 60.3787 63.2133C60.3787 63.7092 60.2012 64.1842 59.8515 64.6384C59.4965 65.0926 59.0267 65.458 58.4316 65.7346C57.3615 66.2305 56.0669 66.4759 54.553 66.4759C53.1645 66.4759 51.6924 66.2462 50.142 65.7816C48.5916 65.317 47.4484 64.7689 46.7071 64.132C46.5766 64.0224 46.467 63.9076 46.3678 63.7875L44.5199 67.8384C44.713 67.9114 44.9688 68.0158 45.2924 68.162C48.2993 69.5923 51.3478 70.3127 54.433 70.3127C56.1504 70.3127 57.7634 70.1091 59.2668 69.702C61.2818 69.1643 62.7696 68.3343 63.7249 67.2067C64.7846 65.9748 65.3118 64.5653 65.3118 62.9784C65.3118 61.9761 65.0873 61.0365 64.6384 60.1543C64.1895 59.2721 63.5735 58.5621 62.8009 58.0244H62.8113Z" fill="#F0EFEB"/>
<path d="M141.397 47.3594H120.783H118.914L120.783 51.0761H125.914H128.415V57.7632V68.1774V69.9105H133.781V68.1774V57.7632V51.0761H137.065H141.397L143.287 47.3594H141.397Z" fill="#F0EFEB"/>
<path d="M155.091 85.2637V97.3327H153.076V88.0251L149.719 97.3327H147.992L144.546 88.0251V97.3327H142.547V85.2637H145.517L148.889 94.707L152.142 85.2637H155.091Z" fill="#F0EFEB"/>
<path d="M162.783 86.7555C161.676 86.7555 160.789 87.1679 160.12 87.9823C159.452 88.8018 159.118 89.8928 159.118 91.2605C159.118 92.6282 159.447 93.7766 160.11 94.6014C160.773 95.4262 161.671 95.8386 162.814 95.8386C163.957 95.8386 164.787 95.421 165.45 94.591C166.113 93.761 166.442 92.6543 166.442 91.2762C166.442 89.8981 166.113 88.7966 165.45 87.977C164.787 87.1575 163.9 86.7503 162.783 86.7503V86.7555ZM162.819 84.9754C164.526 84.9754 165.915 85.5601 166.98 86.7294C168.05 87.8987 168.582 89.423 168.582 91.2971C168.582 93.1711 168.045 94.6954 166.974 95.8647C165.899 97.034 164.505 97.6187 162.788 97.6187C161.07 97.6187 159.661 97.0393 158.591 95.8752C157.521 94.7111 156.988 93.1868 156.988 91.2971C156.988 89.4074 157.51 87.9562 158.554 86.7607C159.598 85.5705 161.018 84.9702 162.819 84.9702V84.9754Z" fill="#F0EFEB"/>
<path d="M179.18 88.8226H177.165C177.04 87.4079 176.163 86.7032 174.539 86.7032C173.814 86.7032 173.25 86.8546 172.843 87.1521C172.436 87.4497 172.232 87.8621 172.232 88.3789C172.232 88.8644 172.384 89.1984 172.681 89.3812C172.979 89.5639 173.647 89.7831 174.675 90.0441C174.947 90.1224 175.155 90.1798 175.302 90.2112C176.648 90.5505 177.562 90.8532 178.047 91.1247C179.123 91.6989 179.655 92.602 179.655 93.8183C179.655 94.3508 179.566 94.831 179.384 95.2591C179.201 95.6871 178.961 96.0473 178.653 96.3344C178.35 96.6215 177.985 96.8617 177.567 97.0548C177.15 97.248 176.711 97.3837 176.262 97.4672C175.808 97.5507 175.343 97.5925 174.858 97.5925C173.344 97.5925 172.117 97.2323 171.178 96.5067C170.238 95.7811 169.773 94.7214 169.773 93.3224H171.856C171.856 94.2046 172.143 94.8571 172.723 95.2799C173.297 95.7028 174.049 95.9168 174.978 95.9168C175.792 95.9168 176.429 95.7498 176.883 95.4157C177.343 95.0816 177.572 94.617 177.572 94.0167C177.572 93.6304 177.452 93.3172 177.207 93.077C176.962 92.8317 176.701 92.6594 176.419 92.5602C176.137 92.4611 175.646 92.3149 174.941 92.1374C174.863 92.1165 174.8 92.0956 174.753 92.0852C173.25 91.6989 172.263 91.3857 171.788 91.1351C170.807 90.6288 170.28 89.8405 170.212 88.7808V88.5459C170.212 87.4706 170.614 86.6145 171.423 85.9776C172.232 85.3407 173.313 85.0171 174.67 85.0171C176.027 85.0171 177.05 85.3303 177.875 85.9515C178.7 86.5727 179.133 87.528 179.18 88.8174V88.8226Z" fill="#F0EFEB"/>
<path d="M191.822 92.7391C191.707 94.2216 191.18 95.4014 190.235 96.2888C189.29 97.1762 188.068 97.6199 186.565 97.6199C184.858 97.6199 183.49 97.0457 182.462 95.8921C181.433 94.7384 180.922 93.2089 180.922 91.2983C180.922 90.1446 181.141 89.0954 181.585 88.1558C182.023 87.2109 182.686 86.4488 183.569 85.8693C184.451 85.2899 185.484 84.9976 186.669 84.9976C187.948 84.9976 189.06 85.3525 190.01 86.0573C190.96 86.762 191.529 87.7851 191.722 89.1163H189.619C189.473 88.3907 189.133 87.8269 188.601 87.4145C188.068 87.0021 187.416 86.7985 186.633 86.7985C185.85 86.7985 185.15 87.023 184.592 87.4771C184.033 87.9313 183.636 88.4846 183.407 89.1476C183.177 89.8106 183.057 90.5309 183.057 91.3087C183.057 91.8934 183.125 92.452 183.261 92.9688C183.396 93.4908 183.6 93.9658 183.871 94.3991C184.143 94.8324 184.513 95.1821 184.983 95.4431C185.453 95.7041 185.996 95.8346 186.617 95.8346C188.413 95.8346 189.441 94.8063 189.702 92.7495H191.822V92.7391Z" fill="#F0EFEB"/>
<path d="M198.892 86.7555C197.785 86.7555 196.898 87.1679 196.23 87.9823C195.562 88.8018 195.227 89.8928 195.227 91.2605C195.227 92.6282 195.556 93.7766 196.219 94.6014C196.882 95.4262 197.78 95.8386 198.923 95.8386C200.067 95.8386 200.897 95.421 201.56 94.591C202.223 93.761 202.551 92.6543 202.551 91.2762C202.551 89.8981 202.223 88.7966 201.56 87.977C200.897 87.1575 200.009 86.7503 198.892 86.7503V86.7555ZM198.929 84.9754C200.636 84.9754 202.024 85.5601 203.089 86.7294C204.159 87.8987 204.692 89.423 204.692 91.2971C204.692 93.1711 204.154 94.6954 203.084 95.8647C202.008 97.034 200.615 97.6187 198.897 97.6187C197.18 97.6187 195.77 97.0393 194.7 95.8752C193.63 94.7111 193.098 93.1868 193.098 91.2971C193.098 89.4074 193.62 87.9562 194.664 86.7607C195.708 85.5705 197.133 84.9702 198.929 84.9702V84.9754Z" fill="#F0EFEB"/>
<path d="M205.469 85.2637H207.619L209.822 94.4512L212.302 85.2637H214.453L216.843 94.4512L219.114 85.2637H221.265L217.929 97.3327H215.773L213.336 88.0617L210.84 97.3327H208.653L205.469 85.2637Z" fill="#F0EFEB"/>
</svg>
