<svg width="364" height="144" viewBox="0 0 364 144" fill="none" xmlns="http://www.w3.org/2000/svg">
<path d="M334.046 71.8514C334.046 71.8514 330.802 70.0816 330.347 68.8142C329.846 59.8748 322.463 52.7803 313.428 52.7803H306.807C297.855 52.7803 290.532 59.7473 289.904 68.5667C289.777 69.6616 286.16 71.8514 286.16 71.8514C286.16 71.8514 289.471 73.6588 289.874 74.9262C290.278 83.9631 297.706 91.1551 306.807 91.1551H313.428C322.53 91.1551 329.951 83.9631 330.362 74.9337C330.847 73.7938 334.046 71.8514 334.046 71.8514ZM302.809 72.0164C302.809 72.0164 302.809 72.0314 302.809 72.0389V72.0239C302.809 72.0239 302.809 72.0239 302.809 72.0164ZM310.118 83.0781C306.837 83.0781 304.057 79.8009 303.138 75.2862C303.161 75.2787 303.183 75.2487 303.213 75.1962C303.676 74.2288 306.964 71.8514 306.964 71.8514C306.964 71.8514 303.714 69.6991 303.213 68.5367C303.213 68.5217 303.206 68.5217 303.198 68.5067C304.169 64.127 306.897 60.9622 310.118 60.9622C313.339 60.9622 316.066 64.1195 317.038 68.4992C317.038 68.5067 317.03 68.5142 317.023 68.5217C316.559 69.4891 313.271 71.8664 313.271 71.8664C313.271 71.8664 316.522 74.0188 317.023 75.1812C317.045 75.2412 317.075 75.2712 317.097 75.2787C316.178 79.7934 313.398 83.0707 310.118 83.0707V83.0781ZM317.419 72.0614C317.419 72.0614 317.419 72.0239 317.419 72.0014C317.419 72.0089 317.419 72.0164 317.419 72.0239C317.419 72.0389 317.419 72.0464 317.419 72.0614Z" fill="#F0EFEB"/>
<path d="M67.1639 53.5246H44.783C43.5201 53.8096 41.6818 56.6069 41.6818 56.6069C41.6818 56.6069 39.6492 53.8096 38.5208 53.5246H30.5399C30.2186 53.5246 29.957 53.7871 29.957 54.1096V60.9041C29.957 61.2266 30.2186 61.489 30.5399 61.489H34.4108C34.9488 61.489 35.3823 61.924 35.3823 62.464V68.636C35.1282 69.7535 31.6533 71.8533 31.6533 71.8533C31.6533 71.8533 35.1207 73.7507 35.3823 75.0181V81.3026C35.3823 81.8426 34.9488 82.2776 34.4108 82.2776H30.6595C30.3381 82.2776 30.0766 82.5401 30.0766 82.8625V89.597C30.0766 89.9195 30.3381 90.182 30.6595 90.182H38.2294C39.4998 90.0245 41.4277 87.0847 41.4277 87.0847C41.4277 87.0847 43.5724 90.0245 44.6709 90.182H52.5547C52.876 90.182 53.1375 89.9195 53.1375 89.597V82.8625C53.1375 82.5401 52.876 82.2776 52.5547 82.2776H48.4895C47.9514 82.2776 47.518 81.8426 47.518 81.3026V77.2904C47.518 76.7504 47.9514 76.3155 48.4895 76.3155H48.9752C49.5133 76.3155 49.9467 76.7504 49.9467 77.2904V78.3628C49.9467 78.6853 50.2082 78.9478 50.5295 78.9478H56.4405C56.7618 78.9478 57.0234 78.6853 57.0234 78.3628V66.0112C57.0234 65.6887 56.7618 65.4263 56.4405 65.4263H50.5295C50.2082 65.4263 49.9467 65.6887 49.9467 66.0112V67.3161C49.9467 67.8561 49.5133 68.291 48.9752 68.291H48.4073C47.8692 68.291 47.4358 67.8561 47.4358 67.3161V62.449C47.4358 61.909 47.8692 61.474 48.4073 61.474H58.1069C58.645 61.474 59.0784 61.909 59.0784 62.449V68.8535C59.0784 69.176 59.3399 69.4385 59.6613 69.4385H67.1714C67.4927 69.4385 67.7543 69.176 67.7543 68.8535V54.102C67.7543 53.7796 67.4927 53.5171 67.1714 53.5171L67.1639 53.5246Z" fill="#F0EFEB"/>
<path d="M100.068 69.4448H107.578C107.899 69.4448 108.161 69.1823 108.161 68.8599V54.1084C108.161 53.7859 107.899 53.5234 107.578 53.5234H85.1971C83.9342 53.8084 82.0959 56.6057 82.0959 56.6057C82.0959 56.6057 80.0633 53.8084 78.9349 53.5234H70.954C70.6326 53.5234 70.3711 53.7859 70.3711 54.1084V60.8729C70.3711 61.1954 70.6326 61.4579 70.954 61.4579H74.8249C75.3629 61.4579 75.7963 61.8929 75.7963 62.4328V68.6349C75.5423 69.7523 72.0674 71.8521 72.0674 71.8521C72.0674 71.8521 75.5348 73.7495 75.7963 75.0169V81.3015C75.7963 81.8414 75.3629 82.2764 74.8249 82.2764H71.0735C70.7522 82.2764 70.4907 82.5389 70.4907 82.8614V89.5959C70.4907 89.9184 70.7522 90.1809 71.0735 90.1809H78.6434C79.9138 90.0234 81.8418 87.0836 81.8418 87.0836C81.8418 87.0836 83.9865 90.0234 85.085 90.1809H107.578C107.899 90.1809 108.161 89.9184 108.161 89.5959V75.3019C108.161 74.9794 107.899 74.717 107.578 74.717H100.18C99.8586 74.717 99.597 74.9794 99.597 75.3019V81.3015C99.597 81.8414 99.1636 82.2764 98.6256 82.2764H88.8961C88.3581 82.2764 87.9246 81.8414 87.9246 81.3015V77.2893C87.9246 76.7493 88.3581 76.3143 88.8961 76.3143H89.3818C89.9198 76.3143 90.3532 76.7493 90.3532 77.2893V78.9467H97.43V65.4251H90.3532V67.315C90.3532 67.8549 89.9198 68.2899 89.3818 68.2899H88.8139C88.2758 68.2899 87.8424 67.8549 87.8424 67.315V62.4178C87.8424 61.8779 88.2758 61.4429 88.8139 61.4429H98.5135C99.0516 61.4429 99.485 61.8779 99.485 62.4178V68.8524C99.485 69.1748 99.7465 69.4373 100.068 69.4373V69.4448Z" fill="#F0EFEB"/>
<path d="M232.736 69.4448H240.246C240.567 69.4448 240.829 69.1823 240.829 68.8599V54.1084C240.829 53.7859 240.567 53.5234 240.246 53.5234H217.865C216.602 53.8084 214.764 56.6057 214.764 56.6057C214.764 56.6057 212.731 53.8084 211.603 53.5234H203.622C203.301 53.5234 203.039 53.7859 203.039 54.1084V60.8729C203.039 61.1954 203.301 61.4579 203.622 61.4579H207.493C208.031 61.4579 208.464 61.8929 208.464 62.4328V68.6349C208.21 69.7523 204.735 71.8521 204.735 71.8521C204.735 71.8521 208.203 73.7495 208.464 75.0169V81.3015C208.464 81.8414 208.031 82.2764 207.493 82.2764H203.742C203.42 82.2764 203.159 82.5389 203.159 82.8614V89.5959C203.159 89.9184 203.42 90.1809 203.742 90.1809H211.311C212.582 90.0234 214.51 87.0836 214.51 87.0836C214.51 87.0836 216.654 90.0234 217.753 90.1809H240.246C240.567 90.1809 240.829 89.9184 240.829 89.5959V75.3019C240.829 74.9794 240.567 74.717 240.246 74.717H232.848C232.527 74.717 232.265 74.9794 232.265 75.3019V81.3015C232.265 81.8414 231.832 82.2764 231.294 82.2764H221.564C221.026 82.2764 220.593 81.8414 220.593 81.3015V77.2893C220.593 76.7493 221.026 76.3143 221.564 76.3143H222.05C222.588 76.3143 223.021 76.7493 223.021 77.2893V78.9467H230.098V65.4251H223.021V67.315C223.021 67.8549 222.588 68.2899 222.05 68.2899H221.482C220.944 68.2899 220.51 67.8549 220.51 67.315V62.4178C220.51 61.8779 220.944 61.4429 221.482 61.4429H231.181C231.719 61.4429 232.153 61.8779 232.153 62.4178V68.8524C232.153 69.1748 232.414 69.4373 232.736 69.4373V69.4448Z" fill="#F0EFEB"/>
<path d="M154.146 82.0439H151.762C151.224 82.0439 150.79 81.609 150.79 81.069V76.8318C150.79 74.462 148.877 72.5346 146.508 72.5346C145.851 72.4746 145.821 71.3347 146.478 71.1322C150.364 70.1723 153.353 66.655 153.353 62.4553C153.353 57.5207 149.37 53.5234 144.453 53.5234H127.752C126.489 53.8084 124.651 56.6057 124.651 56.6057C124.651 56.6057 122.618 53.8084 121.49 53.5234H113.509C113.187 53.5234 112.926 53.7859 112.926 54.1084V60.9029C112.926 61.2254 113.187 61.4879 113.509 61.4879H117.38C117.918 61.4879 118.351 61.9229 118.351 62.4628V68.6349C118.097 69.7523 114.622 71.8521 114.622 71.8521C114.622 71.8521 118.089 73.7495 118.351 75.0169V81.189C118.351 81.729 117.918 82.1639 117.38 82.1639H113.628C113.307 82.1639 113.045 82.4264 113.045 82.7489V89.5959C113.045 89.9184 113.307 90.1809 113.628 90.1809H121.198C122.469 90.0234 124.396 87.0836 124.396 87.0836C124.396 87.0836 126.541 90.0234 127.64 90.1809H135.083C135.404 90.1809 135.665 89.9184 135.665 89.5959V82.7489C135.665 82.4264 135.404 82.1639 135.083 82.1639H131.451C130.913 82.1639 130.479 81.729 130.479 81.189V77.2968C130.479 76.7568 130.913 76.3218 131.451 76.3218H135.68C137.182 76.3218 138.4 77.5443 138.4 79.0516V83.0864C138.4 87.0686 141.621 90.3009 145.589 90.3009H154.146C154.467 90.3009 154.728 90.0384 154.728 89.7159V82.6364C154.728 82.3139 154.467 82.0514 154.146 82.0514V82.0439ZM136.981 68.2974H131.369C130.831 68.2974 130.397 67.8624 130.397 67.3225V62.4553C130.397 61.9153 130.831 61.4804 131.369 61.4804H136.981C138.856 61.4804 140.373 63.0028 140.373 64.8852C140.373 66.7675 138.856 68.2899 136.981 68.2899V68.2974Z" fill="#F0EFEB"/>
<path d="M199.317 82.0439H196.934C196.396 82.0439 195.962 81.609 195.962 81.069V76.8318C195.962 74.462 194.049 72.5346 191.68 72.5346C191.023 72.4746 190.993 71.3347 191.65 71.1322C195.536 70.1723 198.525 66.655 198.525 62.4553C198.525 57.5207 194.542 53.5234 189.625 53.5234H172.924C171.661 53.8084 169.822 56.6057 169.822 56.6057C169.822 56.6057 167.79 53.8084 166.661 53.5234H158.681C158.359 53.5234 158.098 53.7859 158.098 54.1084V60.9029C158.098 61.2254 158.359 61.4879 158.681 61.4879H162.551C163.089 61.4879 163.523 61.9229 163.523 62.4628V68.6349C163.269 69.7523 159.794 71.8521 159.794 71.8521C159.794 71.8521 163.261 73.7495 163.523 75.0169V81.189C163.523 81.729 163.089 82.1639 162.551 82.1639H158.8C158.479 82.1639 158.217 82.4264 158.217 82.7489V89.5959C158.217 89.9184 158.479 90.1809 158.8 90.1809H166.37C167.64 90.0234 169.568 87.0836 169.568 87.0836C169.568 87.0836 171.713 90.0234 172.812 90.1809H180.254C180.576 90.1809 180.837 89.9184 180.837 89.5959V82.7489C180.837 82.4264 180.576 82.1639 180.254 82.1639H176.623C176.085 82.1639 175.651 81.729 175.651 81.189V77.2968C175.651 76.7568 176.085 76.3218 176.623 76.3218H180.852C182.354 76.3218 183.572 77.5443 183.572 79.0516V83.0864C183.572 87.0686 186.793 90.3009 190.761 90.3009H199.317C199.639 90.3009 199.9 90.0384 199.9 89.7159V82.6364C199.9 82.3139 199.639 82.0514 199.317 82.0514V82.0439ZM182.152 68.2974H176.54C176.002 68.2974 175.569 67.8624 175.569 67.3225V62.4553C175.569 61.9153 176.002 61.4804 176.54 61.4804H182.152C184.028 61.4804 185.545 63.0028 185.545 64.8852C185.545 66.7675 184.028 68.2899 182.152 68.2899V68.2974Z" fill="#F0EFEB"/>
<path d="M286.638 82.0439H284.254C283.716 82.0439 283.282 81.609 283.282 81.069V76.8318C283.282 74.462 281.369 72.5346 279.001 72.5346C278.343 72.4746 278.313 71.3347 278.971 71.1322C282.857 70.1723 285.846 66.655 285.846 62.4553C285.846 57.5207 281.863 53.5234 276.946 53.5234H260.244C258.981 53.8084 257.143 56.6057 257.143 56.6057C257.143 56.6057 255.11 53.8084 253.982 53.5234H246.001C245.68 53.5234 245.418 53.7859 245.418 54.1084V60.9029C245.418 61.2254 245.68 61.4879 246.001 61.4879H249.872C250.41 61.4879 250.843 61.9229 250.843 62.4628V68.6349C250.589 69.7523 247.114 71.8521 247.114 71.8521C247.114 71.8521 250.582 73.7495 250.843 75.0169V81.189C250.843 81.729 250.41 82.1639 249.872 82.1639H246.12C245.799 82.1639 245.538 82.4264 245.538 82.7489V89.5959C245.538 89.9184 245.799 90.1809 246.12 90.1809H253.69C254.961 90.0234 256.889 87.0836 256.889 87.0836C256.889 87.0836 259.033 90.0234 260.132 90.1809H267.575C267.896 90.1809 268.158 89.9184 268.158 89.5959V82.7489C268.158 82.4264 267.896 82.1639 267.575 82.1639H263.943C263.405 82.1639 262.971 81.729 262.971 81.189V77.2968C262.971 76.7568 263.405 76.3218 263.943 76.3218H268.173C269.675 76.3218 270.893 77.5443 270.893 79.0516V83.0864C270.893 87.0686 274.113 90.3009 278.081 90.3009H286.638C286.959 90.3009 287.221 90.0384 287.221 89.7159V82.6364C287.221 82.3139 286.959 82.0514 286.638 82.0514V82.0439ZM269.473 68.2974H263.861C263.323 68.2974 262.889 67.8624 262.889 67.3225V62.4553C262.889 61.9153 263.323 61.4804 263.861 61.4804H269.473C271.348 61.4804 272.865 63.0028 272.865 64.8852C272.865 66.7675 271.348 68.2899 269.473 68.2899V68.2974Z" fill="#F0EFEB"/>
<path d="M316.547 69.1505C316.935 68.7755 317.249 68.4305 317.369 68.183C317.369 68.1755 317.376 68.168 317.384 68.1605C316.412 63.7808 313.685 60.6235 310.464 60.6235C308.924 60.6235 307.497 61.351 306.316 62.5884C307.422 61.561 308.723 60.9685 310.12 60.9685C313.341 60.9685 316.068 64.1258 317.04 68.5055C317.04 68.513 317.032 68.5205 317.025 68.528C316.943 68.7005 316.771 68.9105 316.547 69.1505Z" fill="#F0EFEB"/>
<path d="M304.031 74.2295C305.152 73.157 306.968 71.8521 306.968 71.8521C306.968 71.8521 306.938 71.8371 306.901 71.8071C306.206 72.3246 304.801 73.412 304.031 74.2295Z" fill="#F0EFEB"/>
<path d="M317.447 74.94C317.447 74.94 317.402 74.9025 317.372 74.8425C316.909 73.7701 314.122 71.8652 313.681 71.5728C313.434 71.7602 313.277 71.8727 313.277 71.8727C313.277 71.8727 316.528 74.0251 317.029 75.1875C317.051 75.2475 317.081 75.2775 317.103 75.285C316.618 77.6698 315.609 79.7022 314.286 81.0971C315.781 79.7097 316.917 77.5273 317.447 74.9475V74.94Z" fill="#F0EFEB"/>
<path d="M313.772 90.81H307.151C298.05 90.81 290.629 83.6106 290.218 74.5812C289.86 73.4413 287.169 71.8814 286.616 71.5664C286.347 71.7389 286.168 71.8514 286.168 71.8514C286.168 71.8514 289.478 73.6587 289.882 74.9262C290.285 83.963 297.713 91.155 306.815 91.155H313.436C318.151 91.155 322.418 89.2201 325.49 86.1004C322.448 89.0177 318.323 90.81 313.78 90.81H313.772Z" fill="#F0EFEB"/>
<path d="M331.156 73.9588C332.262 72.9314 334.048 71.8515 334.048 71.8515C334.048 71.8515 334.003 71.829 333.944 71.7915C333.241 72.2415 331.896 73.1564 331.156 73.9588Z" fill="#F0EFEB"/>
<path d="M290.251 68.2232C290.542 64.1285 292.276 60.4312 294.951 57.6489C292.089 60.4687 290.213 64.301 289.907 68.5682C289.877 68.8007 289.683 69.0931 289.406 69.3931C289.87 68.9656 290.213 68.5457 290.251 68.2232Z" fill="#F0EFEB"/>
<path d="M30.5474 61.4816H34.4183C34.9563 61.4816 35.3897 61.9166 35.3897 62.4566V68.6286C35.3374 68.8461 35.1655 69.1011 34.9189 69.3711C35.3374 68.9811 35.6588 68.5911 35.726 68.2837V62.1116C35.726 61.5716 35.2926 61.1367 34.7546 61.1367H30.8836C30.5623 61.1367 30.3008 60.8742 30.3008 60.5517V53.7572C30.3008 53.6897 30.3157 53.6222 30.3381 53.5547C30.114 53.6372 29.957 53.8472 29.957 54.1022V60.8967C29.957 61.2192 30.2186 61.4816 30.5399 61.4816H30.5474Z" fill="#F0EFEB"/>
<path d="M38.5747 89.8364H31.0047C30.6834 89.8364 30.4219 89.5739 30.4219 89.2515V82.5169C30.4219 82.4494 30.4368 82.3819 30.4592 82.3145C30.2351 82.3969 30.0781 82.6069 30.0781 82.8619V89.5964C30.0781 89.9189 30.3397 90.1814 30.661 90.1814H38.2309C38.7316 90.1214 39.3294 89.6264 39.8749 89.049C39.4265 89.469 38.9707 89.7914 38.5672 89.8364H38.5747Z" fill="#F0EFEB"/>
<path d="M35.2467 81.7945C35.5307 81.622 35.725 81.3146 35.725 80.9621V74.6775C35.4934 73.5301 32.6761 71.8877 32.1007 71.5728C31.8317 71.7452 31.6523 71.8577 31.6523 71.8577C31.6523 71.8577 35.1197 73.7551 35.3813 75.0225V81.3071C35.3813 81.4871 35.3289 81.6521 35.2467 81.802V81.7945Z" fill="#F0EFEB"/>
<path d="M42.0325 56.2622C42.0325 56.2622 42.7274 55.2048 43.5569 54.3198C42.9217 54.9198 42.3164 55.7147 41.9727 56.1872C42.0025 56.2322 42.025 56.2622 42.025 56.2622H42.0325Z" fill="#F0EFEB"/>
<path d="M50.279 66.984V65.6791C50.279 65.6116 50.294 65.5441 50.3164 65.4766C50.0922 65.5591 49.9353 65.7691 49.9353 66.024V67.3289C49.9353 67.5089 49.883 67.6739 49.8008 67.8239C50.0847 67.6514 50.279 67.3439 50.279 66.9915V66.984Z" fill="#F0EFEB"/>
<path d="M52.9028 89.837H45.019C43.9205 89.6795 41.7758 86.7397 41.7758 86.7397C41.7758 86.7397 41.6637 86.9047 41.4844 87.1597C41.8057 87.5947 43.6664 90.0395 44.6752 90.182H52.559C52.8131 90.182 53.0223 90.0245 53.1045 89.7995C53.0447 89.822 52.9775 89.837 52.9028 89.837Z" fill="#F0EFEB"/>
<path d="M67.5076 69.1016H59.9975C59.6762 69.1016 59.4147 68.8392 59.4147 68.5167V62.1121C59.4147 61.5722 58.9812 61.1372 58.4432 61.1372H48.7435C48.3848 61.1372 48.0785 61.3322 47.9141 61.6172C48.056 61.5347 48.2279 61.4822 48.4073 61.4822H58.1069C58.645 61.4822 59.0784 61.9171 59.0784 62.4571V68.8617C59.0784 69.1841 59.3399 69.4466 59.6612 69.4466H67.1714C67.4254 69.4466 67.6347 69.2891 67.7169 69.0641C67.6571 69.0866 67.5899 69.1016 67.5151 69.1016H67.5076Z" fill="#F0EFEB"/>
<path d="M56.7727 78.6089H50.8617C50.5404 78.6089 50.2789 78.3464 50.2789 78.0239V76.9515C50.2789 76.4115 49.8454 75.9766 49.3074 75.9766H48.8217C48.463 75.9766 48.1566 76.1716 47.9922 76.4565C48.1342 76.374 48.306 76.3216 48.4854 76.3216H48.9711C49.5092 76.3216 49.9426 76.7565 49.9426 77.2965V78.3689C49.9426 78.6914 50.2041 78.9539 50.5255 78.9539H56.4364C56.6905 78.9539 56.8997 78.7964 56.9819 78.5714C56.9222 78.5939 56.8549 78.6089 56.7802 78.6089H56.7727Z" fill="#F0EFEB"/>
<path d="M99.9392 80.9565V74.9569C99.9392 74.8894 99.9541 74.8219 99.9766 74.7544C99.7524 74.8369 99.5954 75.0469 99.5954 75.3018V81.3014C99.5954 81.4814 99.5431 81.6464 99.4609 81.7964C99.7449 81.6239 99.9392 81.3164 99.9392 80.964V80.9565Z" fill="#F0EFEB"/>
<path d="M90.6931 66.9878V65.4429H90.3493V67.3327C90.3493 67.5127 90.297 67.6777 90.2148 67.8277C90.4988 67.6552 90.6931 67.3477 90.6931 66.9953V66.9878Z" fill="#F0EFEB"/>
<path d="M89.3816 76.322C89.9196 76.322 90.3531 76.757 90.3531 77.297V78.9543H97.4298V78.6094H90.6968V76.952C90.6968 76.412 90.2634 75.9771 89.7254 75.9771H89.2396C88.8809 75.9771 88.5746 76.172 88.4102 76.457C88.5521 76.3745 88.724 76.322 88.9033 76.322H89.3891H89.3816Z" fill="#F0EFEB"/>
<path d="M108.116 69.0634C108.056 69.0859 107.989 69.1009 107.914 69.1009H100.404C100.082 69.1009 99.8209 68.8384 99.8209 68.5159V62.0814C99.8209 61.5414 99.3874 61.1064 98.8494 61.1064H89.1498C88.7911 61.1064 88.4847 61.3014 88.3203 61.5864C88.4623 61.5039 88.6341 61.4514 88.8135 61.4514H98.5132C99.0512 61.4514 99.4846 61.8864 99.4846 62.4264V68.8609C99.4846 69.1834 99.7461 69.4459 100.067 69.4459H107.578C107.832 69.4459 108.041 69.2884 108.123 69.0634H108.116Z" fill="#F0EFEB"/>
<path d="M78.9848 89.8374H71.4149C71.0936 89.8374 70.832 89.5749 70.832 89.2524V82.5179C70.832 82.4504 70.847 82.3829 70.8694 82.3154C70.6452 82.3979 70.4883 82.6079 70.4883 82.8629V89.5974C70.4883 89.9199 70.7498 90.1824 71.0712 90.1824H78.6411C79.1417 90.1224 79.7396 89.6274 80.2851 89.05C79.8367 89.4699 79.3809 89.7924 78.9774 89.8374H78.9848Z" fill="#F0EFEB"/>
<path d="M75.6608 81.7955C75.9448 81.623 76.139 81.3156 76.139 80.9631V74.6785C75.9074 73.5311 73.0902 71.8887 72.5148 71.5737C72.2458 71.7462 72.0664 71.8587 72.0664 71.8587C72.0664 71.8587 75.5338 73.7561 75.7953 75.0235V81.3081C75.7953 81.488 75.743 81.653 75.6608 81.803V81.7955Z" fill="#F0EFEB"/>
<path d="M82.4348 56.2627C82.4348 56.2627 83.1297 55.2053 83.9592 54.3203C83.324 54.9203 82.7187 55.7152 82.375 56.1877C82.4049 56.2327 82.4273 56.2627 82.4273 56.2627H82.4348Z" fill="#F0EFEB"/>
<path d="M107.918 89.8375H85.4252C84.3268 89.68 82.1821 86.7402 82.1821 86.7402C82.1821 86.7402 82.07 86.9052 81.8906 87.1602C82.212 87.5952 84.0727 90.04 85.0815 90.1825H107.575C107.829 90.1825 108.038 90.025 108.12 89.8C108.06 89.8225 107.993 89.8375 107.918 89.8375Z" fill="#F0EFEB"/>
<path d="M70.9614 61.4585H74.8323C75.3704 61.4585 75.8038 61.8934 75.8038 62.4334V68.6355C75.7515 68.853 75.5796 69.1079 75.333 69.3779C75.7515 68.9879 76.0728 68.598 76.1401 68.2905V62.0884C76.1401 61.5485 75.7067 61.1135 75.1686 61.1135H71.2977C70.9764 61.1135 70.7149 60.851 70.7149 60.5285V53.764C70.7149 53.6965 70.7298 53.629 70.7522 53.5615C70.528 53.644 70.3711 53.854 70.3711 54.109V60.8735C70.3711 61.196 70.6326 61.4585 70.954 61.4585H70.9614Z" fill="#F0EFEB"/>
<path d="M223.369 66.9878V65.4429H223.025V67.3327C223.025 67.5127 222.973 67.6777 222.891 67.8277C223.175 67.6552 223.369 67.3477 223.369 66.9953V66.9878Z" fill="#F0EFEB"/>
<path d="M232.607 80.9565V74.9569C232.607 74.8894 232.622 74.8219 232.645 74.7544C232.42 74.8369 232.263 75.0469 232.263 75.3018V81.3014C232.263 81.4814 232.211 81.6464 232.129 81.7964C232.413 81.6239 232.607 81.3164 232.607 80.964V80.9565Z" fill="#F0EFEB"/>
<path d="M240.791 69.0634C240.732 69.0859 240.664 69.1009 240.59 69.1009H233.08C232.758 69.1009 232.497 68.8384 232.497 68.5159V62.0814C232.497 61.5414 232.063 61.1064 231.525 61.1064H221.826C221.467 61.1064 221.16 61.3014 220.996 61.5864C221.138 61.5039 221.31 61.4514 221.489 61.4514H231.189C231.727 61.4514 232.16 61.8864 232.16 62.4264V68.8609C232.16 69.1834 232.422 69.4459 232.743 69.4459H240.253C240.507 69.4459 240.717 69.2884 240.799 69.0634H240.791Z" fill="#F0EFEB"/>
<path d="M222.046 76.322C222.584 76.322 223.017 76.757 223.017 77.297V78.9543H230.094V78.6094H223.361V76.952C223.361 76.412 222.927 75.9771 222.389 75.9771H221.904C221.545 75.9771 221.239 76.172 221.074 76.457C221.216 76.3745 221.388 76.322 221.567 76.322H222.053H222.046Z" fill="#F0EFEB"/>
<path d="M203.629 61.4585H207.5C208.038 61.4585 208.472 61.8934 208.472 62.4334V68.6355C208.419 68.853 208.248 69.1079 208.001 69.3779C208.419 68.9879 208.741 68.598 208.808 68.2905V62.0884C208.808 61.5485 208.375 61.1135 207.837 61.1135H203.966C203.644 61.1135 203.383 60.851 203.383 60.5285V53.764C203.383 53.6965 203.398 53.629 203.42 53.5615C203.196 53.644 203.039 53.854 203.039 54.109V60.8735C203.039 61.196 203.301 61.4585 203.622 61.4585H203.629Z" fill="#F0EFEB"/>
<path d="M240.59 89.8375H218.097C216.999 89.68 214.854 86.7402 214.854 86.7402C214.854 86.7402 214.742 86.9052 214.562 87.1602C214.884 87.5952 216.745 90.04 217.753 90.1825H240.246C240.5 90.1825 240.71 90.025 240.792 89.8C240.732 89.8225 240.665 89.8375 240.59 89.8375Z" fill="#F0EFEB"/>
<path d="M211.657 89.8374H204.087C203.765 89.8374 203.504 89.5749 203.504 89.2524V82.5179C203.504 82.4504 203.519 82.3829 203.541 82.3154C203.317 82.3979 203.16 82.6079 203.16 82.8629V89.5974C203.16 89.9199 203.422 90.1824 203.743 90.1824H211.313C211.814 90.1224 212.411 89.6274 212.957 89.05C212.509 89.4699 212.053 89.7924 211.649 89.8374H211.657Z" fill="#F0EFEB"/>
<path d="M215.114 56.2627C215.114 56.2627 215.809 55.2053 216.639 54.3203C216.004 54.9203 215.398 55.7152 215.055 56.1877C215.085 56.2327 215.107 56.2627 215.107 56.2627H215.114Z" fill="#F0EFEB"/>
<path d="M208.329 81.7955C208.613 81.623 208.807 81.3156 208.807 80.9631V74.6785C208.575 73.5311 205.758 71.8887 205.183 71.5737C204.914 71.7462 204.734 71.8587 204.734 71.8587C204.734 71.8587 208.202 73.7561 208.463 75.0235V81.3081C208.463 81.488 208.411 81.653 208.329 81.803V81.7955Z" fill="#F0EFEB"/>
<path d="M150.966 68.4834C149.822 69.5858 148.402 70.4033 146.826 70.7857C146.631 70.8457 146.504 70.9882 146.43 71.1607C146.452 71.1532 146.46 71.1382 146.46 71.1382C148.216 70.7032 149.77 69.7658 150.958 68.4834H150.966Z" fill="#F0EFEB"/>
<path d="M140.725 64.5483C140.725 62.666 139.208 61.1436 137.332 61.1436H131.72C131.361 61.1436 131.055 61.3386 130.891 61.6235C131.033 61.541 131.205 61.4885 131.384 61.4885H136.996C138.872 61.4885 140.389 63.0109 140.389 64.8933C140.389 65.7482 140.067 66.5207 139.552 67.1132C140.269 66.4907 140.732 65.5757 140.732 64.5483H140.725Z" fill="#F0EFEB"/>
<path d="M113.52 61.4811H117.391C117.929 61.4811 118.362 61.9161 118.362 62.4561V68.6281C118.31 68.8456 118.138 69.1006 117.892 69.3706C118.31 68.9806 118.631 68.5907 118.699 68.2832V62.1111C118.699 61.5711 118.265 61.1362 117.727 61.1362H113.856C113.535 61.1362 113.273 60.8737 113.273 60.5512V53.7567C113.273 53.6892 113.288 53.6217 113.311 53.5542C113.087 53.6367 112.93 53.8467 112.93 54.1017V60.8962C112.93 61.2187 113.191 61.4811 113.513 61.4811H113.52Z" fill="#F0EFEB"/>
<path d="M125.005 56.2617C125.005 56.2617 125.7 55.2043 126.53 54.3193C125.894 54.9193 125.289 55.7142 124.945 56.1867C124.975 56.2317 124.998 56.2617 124.998 56.2617H125.005Z" fill="#F0EFEB"/>
<path d="M135.427 89.8365H127.984C126.885 89.6791 124.741 86.7393 124.741 86.7393C124.741 86.7393 124.629 86.9042 124.449 87.1592C124.771 87.5942 126.631 90.039 127.64 90.1815H135.083C135.337 90.1815 135.546 90.024 135.628 89.7991C135.569 89.8216 135.501 89.8365 135.427 89.8365Z" fill="#F0EFEB"/>
<path d="M118.219 81.6768C118.503 81.5044 118.698 81.1969 118.698 80.8369V74.6648C118.466 73.5174 115.649 71.875 115.073 71.5601C114.804 71.7325 114.625 71.845 114.625 71.845C114.625 71.845 118.092 73.7424 118.354 75.0098V81.1819C118.354 81.3619 118.302 81.5268 118.219 81.6768Z" fill="#F0EFEB"/>
<path d="M154.493 89.9487H145.937C141.969 89.9487 138.748 86.7165 138.748 82.7342V78.6995C138.748 77.1921 137.53 75.9697 136.028 75.9697H131.798C131.44 75.9697 131.133 76.1647 130.969 76.4497C131.111 76.3672 131.283 76.3147 131.462 76.3147H135.692C137.194 76.3147 138.412 77.5371 138.412 79.0445V83.0792C138.412 87.0614 141.632 90.2937 145.6 90.2937H154.157C154.411 90.2937 154.62 90.1362 154.702 89.9112C154.642 89.9337 154.575 89.9487 154.5 89.9487H154.493Z" fill="#F0EFEB"/>
<path d="M121.543 89.8356H113.974C113.652 89.8356 113.391 89.5731 113.391 89.2507V82.4036C113.391 82.3362 113.406 82.2687 113.428 82.2012C113.204 82.2837 113.047 82.4936 113.047 82.7486V89.5956C113.047 89.9181 113.308 90.1806 113.63 90.1806H121.2C121.7 90.1206 122.298 89.6257 122.844 89.0482C122.395 89.4682 121.939 89.7906 121.536 89.8356H121.543Z" fill="#F0EFEB"/>
<path d="M170.173 56.2617C170.173 56.2617 170.868 55.2043 171.698 54.3193C171.062 54.9193 170.457 55.7142 170.113 56.1867C170.143 56.2317 170.166 56.2617 170.166 56.2617H170.173Z" fill="#F0EFEB"/>
<path d="M196.141 68.4834C194.998 69.5858 193.578 70.4033 192.002 70.7857C191.807 70.8457 191.68 70.9882 191.605 71.1607C191.628 71.1532 191.635 71.1382 191.635 71.1382C193.391 70.7032 194.946 69.7658 196.134 68.4834H196.141Z" fill="#F0EFEB"/>
<path d="M158.688 61.4811H162.559C163.097 61.4811 163.53 61.9161 163.53 62.4561V68.6281C163.478 68.8456 163.306 69.1006 163.06 69.3706C163.478 68.9806 163.799 68.5907 163.867 68.2832V62.1111C163.867 61.5711 163.433 61.1362 162.895 61.1362H159.024C158.703 61.1362 158.441 60.8737 158.441 60.5512V53.7567C158.441 53.6892 158.456 53.6217 158.479 53.5542C158.255 53.6367 158.098 53.8467 158.098 54.1017V60.8962C158.098 61.2187 158.359 61.4811 158.681 61.4811H158.688Z" fill="#F0EFEB"/>
<path d="M185.901 64.5483C185.901 62.666 184.384 61.1436 182.508 61.1436H176.896C176.537 61.1436 176.231 61.3386 176.066 61.6235C176.208 61.541 176.38 61.4885 176.56 61.4885H182.172C184.047 61.4885 185.564 63.0109 185.564 64.8933C185.564 65.7482 185.243 66.5207 184.727 67.1132C185.445 66.4907 185.908 65.5757 185.908 64.5483H185.901Z" fill="#F0EFEB"/>
<path d="M199.669 89.9487H191.112C187.144 89.9487 183.924 86.7165 183.924 82.7342V78.6995C183.924 77.1921 182.706 75.9697 181.204 75.9697H176.974C176.615 75.9697 176.309 76.1647 176.145 76.4497C176.287 76.3672 176.458 76.3147 176.638 76.3147H180.867C182.369 76.3147 183.587 77.5371 183.587 79.0445V83.0792C183.587 87.0614 186.808 90.2937 190.776 90.2937H199.332C199.587 90.2937 199.796 90.1362 199.878 89.9112C199.818 89.9337 199.751 89.9487 199.676 89.9487H199.669Z" fill="#F0EFEB"/>
<path d="M180.602 89.8365H173.16C172.061 89.6791 169.916 86.7393 169.916 86.7393C169.916 86.7393 169.804 86.9042 169.625 87.1592C169.946 87.5942 171.807 90.039 172.816 90.1815H180.259C180.513 90.1815 180.722 90.024 180.804 89.7991C180.744 89.8216 180.677 89.8365 180.602 89.8365Z" fill="#F0EFEB"/>
<path d="M166.715 89.8356H159.145C158.824 89.8356 158.563 89.5731 158.563 89.2507V82.4036C158.563 82.3362 158.577 82.2687 158.6 82.2012C158.376 82.2837 158.219 82.4936 158.219 82.7486V89.5956C158.219 89.9181 158.48 90.1806 158.802 90.1806H166.372C166.872 90.1206 167.47 89.6257 168.016 89.0482C167.567 89.4682 167.111 89.7906 166.708 89.8356H166.715Z" fill="#F0EFEB"/>
<path d="M163.391 81.6768C163.675 81.5044 163.87 81.1969 163.87 80.8369V74.6648C163.638 73.5174 160.821 71.875 160.245 71.5601C159.976 71.7325 159.797 71.845 159.797 71.845C159.797 71.845 163.264 73.7424 163.526 75.0098V81.1819C163.526 81.3619 163.474 81.5268 163.391 81.6768Z" fill="#F0EFEB"/>
<path d="M273.209 64.5483C273.209 62.666 271.692 61.1436 269.817 61.1436H264.204C263.846 61.1436 263.539 61.3386 263.375 61.6235C263.517 61.541 263.689 61.4885 263.868 61.4885H269.48C271.356 61.4885 272.873 63.0109 272.873 64.8933C272.873 65.7482 272.552 66.5207 272.036 67.1132C272.753 66.4907 273.217 65.5757 273.217 64.5483H273.209Z" fill="#F0EFEB"/>
<path d="M257.489 56.2617C257.489 56.2617 258.184 55.2043 259.014 54.3193C258.379 54.9193 257.773 55.7142 257.43 56.1867C257.46 56.2317 257.482 56.2617 257.482 56.2617H257.489Z" fill="#F0EFEB"/>
<path d="M246.004 61.4811H249.875C250.413 61.4811 250.847 61.9161 250.847 62.4561V68.6281C250.794 68.8456 250.623 69.1006 250.376 69.3706C250.794 68.9806 251.116 68.5907 251.183 68.2832V62.1111C251.183 61.5711 250.75 61.1362 250.212 61.1362H246.341C246.019 61.1362 245.758 60.8737 245.758 60.5512V53.7567C245.758 53.6892 245.773 53.6217 245.795 53.5542C245.571 53.6367 245.414 53.8467 245.414 54.1017V60.8962C245.414 61.2187 245.676 61.4811 245.997 61.4811H246.004Z" fill="#F0EFEB"/>
<path d="M283.45 68.4834C282.307 69.5858 280.887 70.4033 279.31 70.7857C279.116 70.8457 278.989 70.9882 278.914 71.1607C278.936 71.1532 278.944 71.1382 278.966 71.1307C280.7 70.7032 282.254 69.7583 283.443 68.4834H283.45Z" fill="#F0EFEB"/>
<path d="M250.708 81.6768C250.992 81.5044 251.186 81.1969 251.186 80.8369V74.6648C250.954 73.5174 248.137 71.875 247.562 71.5601C247.293 71.7325 247.113 71.845 247.113 71.845C247.113 71.845 250.581 73.7424 250.842 75.0098V81.1819C250.842 81.3619 250.79 81.5268 250.708 81.6768Z" fill="#F0EFEB"/>
<path d="M286.981 89.9487H278.425C274.457 89.9487 271.236 86.7165 271.236 82.7342V78.6995C271.236 77.1921 270.018 75.9697 268.516 75.9697H264.286C263.928 75.9697 263.621 76.1647 263.457 76.4497C263.599 76.3672 263.771 76.3147 263.95 76.3147H268.18C269.682 76.3147 270.9 77.5371 270.9 79.0445V83.0792C270.9 87.0614 274.121 90.2937 278.089 90.2937H286.645C286.899 90.2937 287.108 90.1362 287.191 89.9112C287.131 89.9337 287.063 89.9487 286.989 89.9487H286.981Z" fill="#F0EFEB"/>
<path d="M254.036 89.8356H246.466C246.144 89.8356 245.883 89.5731 245.883 89.2507V82.4036C245.883 82.3362 245.898 82.2687 245.92 82.2012C245.696 82.2837 245.539 82.4936 245.539 82.7486V89.5956C245.539 89.9181 245.801 90.1806 246.122 90.1806H253.692C254.192 90.1206 254.79 89.6257 255.336 89.0482C254.887 89.4682 254.432 89.7906 254.028 89.8356H254.036Z" fill="#F0EFEB"/>
<path d="M267.923 89.8365H260.48C259.381 89.6791 257.237 86.7393 257.237 86.7393C257.237 86.7393 257.125 86.9042 256.945 87.1592C257.267 87.5942 259.127 90.039 260.136 90.1815H267.579C267.833 90.1815 268.042 90.024 268.125 89.7991C268.065 89.8216 267.998 89.8365 267.923 89.8365Z" fill="#F0EFEB"/>
<path d="M302.484 75.7165C303.404 80.2312 306.183 83.5085 309.464 83.5085C310.615 83.5085 311.706 83.096 312.677 82.3761C311.878 82.826 311.018 83.081 310.122 83.081C306.841 83.081 304.061 79.8037 303.142 75.2891C303.164 75.2816 303.187 75.2516 303.217 75.1991C303.68 74.2316 306.968 71.8543 306.968 71.8543C306.968 71.8543 303.717 69.702 303.217 68.5395C303.217 68.5245 303.209 68.5245 303.202 68.5095C303.822 65.6972 305.175 63.3949 306.908 62.105C304.861 63.2674 303.247 65.7872 302.552 68.937C302.552 68.9445 302.559 68.952 302.567 68.967C303.067 70.1294 306.318 72.2818 306.318 72.2818C306.318 72.2818 303.03 74.6591 302.567 75.6265C302.537 75.679 302.514 75.709 302.492 75.7165H302.484Z" fill="#F0EFEB"/>
<path d="M306.162 53.2087H312.783C321.817 53.2087 329.2 60.3032 329.701 69.2426C330.149 70.495 333.303 72.2274 333.385 72.2724C333.774 72.0174 334.043 71.8524 334.043 71.8524C334.043 71.8524 330.799 70.0825 330.344 68.8151C329.843 59.8758 322.46 52.7812 313.425 52.7812H306.804C303.262 52.7812 299.982 53.8762 297.262 55.736C299.847 54.1312 302.889 53.2087 306.154 53.2087H306.162Z" fill="#F0EFEB"/>
<path d="M329.703 75.3628C329.449 80.875 326.587 85.7046 322.32 88.6294C326.946 85.7646 330.092 80.7325 330.361 74.9354C330.682 74.1779 332.184 73.083 333.171 72.4155C332.438 72.873 330.114 74.3954 329.711 75.3553L329.703 75.3628Z" fill="#F0EFEB"/>
<path d="M286.399 71.7129C286.255 71.804 286.164 71.8571 286.164 71.8571H286.172C286.247 71.8116 286.315 71.766 286.399 71.7129Z" fill="#F0EFEB"/>
<path d="M34.5784 82.2617C34.5261 82.2692 34.4738 82.2767 34.4215 82.2767H30.6702C30.4012 82.2767 30.1919 82.4567 30.1172 82.7042H33.7714C34.1151 82.7042 34.4066 82.5317 34.5859 82.2617H34.5784Z" fill="#F0EFEB"/>
<path d="M37.8802 53.9514C39.0011 54.2364 41.0412 57.0337 41.0412 57.0337C41.0412 57.0337 41.2205 56.7562 41.512 56.3662C40.9889 55.6838 39.457 53.7564 38.5378 53.5239H30.5569C30.2879 53.5239 30.0786 53.7039 30.0039 53.9514H37.8877H37.8802Z" fill="#F0EFEB"/>
<path d="M47.5958 61.9248C47.1325 61.9998 46.7812 62.3973 46.7812 62.8847V67.7519C46.7812 68.2918 47.2147 68.7268 47.7527 68.7268H48.3206C48.6644 68.7268 48.9558 68.5543 49.1352 68.2844C49.0829 68.2919 49.0306 68.2994 48.9782 68.2994H48.4103C47.8723 68.2994 47.4388 67.8644 47.4388 67.3244V62.4573C47.4388 62.2623 47.4986 62.0748 47.5958 61.9248Z" fill="#F0EFEB"/>
<path d="M31.6602 71.8566H31.6677C31.7358 71.8187 31.8114 71.7655 31.8871 71.7124C31.7509 71.7959 31.6602 71.8566 31.6602 71.8566Z" fill="#F0EFEB"/>
<path d="M67.1676 53.5239H44.7867C44.5027 53.5914 44.1889 53.7789 43.875 54.0414C43.9647 54.0039 44.0469 53.9739 44.1291 53.9514H66.51C66.8313 53.9514 67.0929 54.2139 67.0929 54.5364V69.2878C67.0929 69.3478 67.0779 69.3928 67.063 69.4453H67.1676C67.4889 69.4453 67.7505 69.1828 67.7505 68.8604V54.1089C67.7505 53.7864 67.4889 53.5239 67.1676 53.5239Z" fill="#F0EFEB"/>
<path d="M56.4327 65.4336H50.5217C50.2527 65.4336 50.0435 65.6136 49.9688 65.8611H55.7826C56.1039 65.8611 56.3654 66.1235 56.3654 66.446V78.7977C56.3654 78.8577 56.3505 78.9026 56.3355 78.9551H56.4402C56.7615 78.9551 57.023 78.6927 57.023 78.3702V66.0186C57.023 65.6961 56.7615 65.4336 56.4402 65.4336H56.4327Z" fill="#F0EFEB"/>
<path d="M52.5575 82.2769H48.4923C47.9543 82.2769 47.5209 81.842 47.5209 81.302V77.2898C47.5209 77.0948 47.5807 76.9073 47.6778 76.7573C47.2145 76.8323 46.8633 77.2298 46.8633 77.7173V81.7295C46.8633 82.2694 47.2967 82.7044 47.8348 82.7044H51.8999C52.2212 82.7044 52.4828 82.9669 52.4828 83.2894V90.0239C52.4828 90.0839 52.4679 90.1289 52.4529 90.1814H52.5575C52.8788 90.1814 53.1404 89.9189 53.1404 89.5964V82.8619C53.1404 82.5394 52.8788 82.2769 52.5575 82.2769Z" fill="#F0EFEB"/>
<path d="M40.7804 87.5117C40.7804 87.5117 39.6894 89.1691 38.6133 90.0615C39.4353 89.6791 40.3993 88.5092 40.9597 87.7517C40.8476 87.6017 40.7804 87.5117 40.7804 87.5117Z" fill="#F0EFEB"/>
<path d="M78.2904 53.9514C79.4113 54.2364 81.4513 57.0337 81.4513 57.0337C81.4513 57.0337 81.6307 56.7562 81.9221 56.3662C81.399 55.6838 79.8671 53.7564 78.9479 53.5239H70.967C70.698 53.5239 70.4888 53.7039 70.4141 53.9514H78.2978H78.2904Z" fill="#F0EFEB"/>
<path d="M88.0021 61.8936C87.5387 61.9685 87.1875 62.366 87.1875 62.8535V67.7506C87.1875 68.2906 87.6209 68.7256 88.1589 68.7256H88.7269C89.0706 68.7256 89.3621 68.5531 89.5414 68.2831C89.4891 68.2906 89.4368 68.2981 89.3845 68.2981H88.8166C88.2785 68.2981 87.8451 67.8632 87.8451 67.3232V62.426C87.8451 62.231 87.9049 62.0435 88.0021 61.8936Z" fill="#F0EFEB"/>
<path d="M88.0958 76.7573C87.6325 76.8323 87.2812 77.2298 87.2812 77.7173V81.7295C87.2812 82.2694 87.7146 82.7044 88.2527 82.7044H97.9822C98.326 82.7044 98.6174 82.5319 98.7968 82.2619C98.7445 82.2694 98.6921 82.2769 98.6398 82.2769H88.9103C88.3722 82.2769 87.9388 81.842 87.9388 81.302V77.2898C87.9388 77.0948 87.9986 76.9073 88.0958 76.7573Z" fill="#F0EFEB"/>
<path d="M74.9961 82.2617C74.9438 82.2692 74.8914 82.2767 74.8914 82.2767H71.0803C70.8113 82.2767 70.6021 82.4567 70.5273 82.7042H74.1815C74.5253 82.7042 74.8167 82.5317 74.9961 82.2617Z" fill="#F0EFEB"/>
<path d="M97.4283 78.9551V65.4336H90.3516V65.8611H96.7782V78.9551H97.4283Z" fill="#F0EFEB"/>
<path d="M107.582 53.5239H85.2007C84.9168 53.5914 84.6029 53.7789 84.2891 54.0414C84.3787 54.0039 84.4609 53.9739 84.5431 53.9514H106.924C107.245 53.9514 107.507 54.2139 107.507 54.5364V69.2878C107.507 69.3478 107.492 69.3928 107.477 69.4453H107.582C107.903 69.4453 108.165 69.1828 108.165 68.8604V54.1089C108.165 53.7864 107.903 53.5239 107.582 53.5239Z" fill="#F0EFEB"/>
<path d="M107.58 74.7197H100.182C99.9129 74.7197 99.7036 74.8997 99.6289 75.1472H106.922C107.244 75.1472 107.505 75.4097 107.505 75.7322V90.0262C107.505 90.0861 107.49 90.1311 107.475 90.1836H107.58C107.901 90.1836 108.163 89.9212 108.163 89.5987V75.3047C108.163 74.9822 107.901 74.7197 107.58 74.7197Z" fill="#F0EFEB"/>
<path d="M72.0703 71.8566H72.0779C72.1459 71.8187 72.2216 71.7655 72.2972 71.7124C72.1611 71.7959 72.0703 71.8566 72.0703 71.8566Z" fill="#F0EFEB"/>
<path d="M81.1827 87.5117C81.1827 87.5117 80.0917 89.1691 79.0156 90.0615C79.8376 89.6791 80.8016 88.5092 81.3621 87.7517C81.25 87.6017 81.1827 87.5117 81.1827 87.5117Z" fill="#F0EFEB"/>
<path d="M230.104 78.9551V65.4336H223.027V65.8611H229.454V78.9551H230.104Z" fill="#F0EFEB"/>
<path d="M210.962 53.9514C212.083 54.2364 214.123 57.0337 214.123 57.0337C214.123 57.0337 214.303 56.7562 214.594 56.3662C214.071 55.6838 212.539 53.7564 211.62 53.5239H203.639C203.37 53.5239 203.161 53.7039 203.086 53.9514H210.97H210.962Z" fill="#F0EFEB"/>
<path d="M220.674 61.8936C220.211 61.9685 219.859 62.366 219.859 62.8535V67.7506C219.859 68.2906 220.293 68.7256 220.831 68.7256H221.399C221.743 68.7256 222.034 68.5531 222.213 68.2831C222.161 68.2906 222.109 68.2981 222.056 68.2981H221.488C220.95 68.2981 220.517 67.8632 220.517 67.3232V62.426C220.517 62.231 220.577 62.0435 220.674 61.8936Z" fill="#F0EFEB"/>
<path d="M220.76 76.7573C220.297 76.8323 219.945 77.2298 219.945 77.7173V81.7295C219.945 82.2694 220.379 82.7044 220.917 82.7044H230.646C230.99 82.7044 231.281 82.5319 231.461 82.2619C231.409 82.2694 231.356 82.2769 231.304 82.2769H221.574C221.036 82.2769 220.603 81.842 220.603 81.302V77.2898C220.603 77.0948 220.663 76.9073 220.76 76.7573Z" fill="#F0EFEB"/>
<path d="M213.862 87.5117C213.862 87.5117 212.771 89.1691 211.695 90.0615C212.517 89.6791 213.481 88.5092 214.042 87.7517C213.93 87.6017 213.862 87.5117 213.862 87.5117Z" fill="#F0EFEB"/>
<path d="M240.256 74.7197H232.858C232.589 74.7197 232.379 74.8997 232.305 75.1472H239.598C239.919 75.1472 240.181 75.4097 240.181 75.7322V90.0262C240.181 90.0861 240.166 90.1311 240.151 90.1836H240.256C240.577 90.1836 240.839 89.9212 240.839 89.5987V75.3047C240.839 74.9822 240.577 74.7197 240.256 74.7197Z" fill="#F0EFEB"/>
<path d="M240.254 53.5239H217.873C217.589 53.5914 217.275 53.7789 216.961 54.0414C217.051 54.0039 217.133 53.9739 217.215 53.9514H239.596C239.917 53.9514 240.179 54.2139 240.179 54.5364V69.2878C240.179 69.3478 240.164 69.3928 240.149 69.4453H240.254C240.575 69.4453 240.836 69.1828 240.836 68.8604V54.1089C240.836 53.7864 240.575 53.5239 240.254 53.5239Z" fill="#F0EFEB"/>
<path d="M204.75 71.8566C204.75 71.8566 204.75 71.8566 204.758 71.8566C204.826 71.8111 204.901 71.7655 204.977 71.7124C204.841 71.7959 204.75 71.8566 204.75 71.8566Z" fill="#F0EFEB"/>
<path d="M207.66 82.2617C207.608 82.2692 207.556 82.2767 207.504 82.2767H203.752C203.483 82.2767 203.274 82.4567 203.199 82.7042H206.853C207.197 82.7042 207.489 82.5317 207.668 82.2617H207.66Z" fill="#F0EFEB"/>
<path d="M130.561 61.9248C130.097 61.9998 129.746 62.3973 129.746 62.8847V67.7519C129.746 68.2918 130.18 68.7268 130.718 68.7268H136.33C137.152 68.7268 137.891 68.4268 138.474 67.9394C138.018 68.1644 137.518 68.2994 136.98 68.2994H131.368C130.83 68.2994 130.396 67.8644 130.396 67.3244V62.4573C130.396 62.2623 130.456 62.0748 130.553 61.9248H130.561Z" fill="#F0EFEB"/>
<path d="M127.102 53.9514H143.803C148.72 53.9514 152.703 57.9486 152.703 62.8833C152.703 65.8681 151.186 68.5004 148.922 70.1203C151.553 68.5604 153.361 65.7106 153.361 62.4558C153.361 57.5211 149.378 53.5239 144.461 53.5239H127.759C127.475 53.5914 127.162 53.7789 126.848 54.0414C126.937 54.0039 127.02 53.9739 127.102 53.9514Z" fill="#F0EFEB"/>
<path d="M117.547 82.1416C117.495 82.1491 117.443 82.1566 117.39 82.1566H113.639C113.37 82.1566 113.161 82.3366 113.086 82.5841H116.74C117.084 82.5841 117.375 82.4116 117.555 82.1416H117.547Z" fill="#F0EFEB"/>
<path d="M120.849 53.9514C121.97 54.2364 124.01 57.0337 124.01 57.0337C124.01 57.0337 124.189 56.7562 124.481 56.3662C123.958 55.6838 122.426 53.7564 121.507 53.5239H113.526C113.257 53.5239 113.047 53.7039 112.973 53.9514H120.856H120.849Z" fill="#F0EFEB"/>
<path d="M135.081 82.1667H131.449C130.911 82.1667 130.478 81.7317 130.478 81.1918V77.2995C130.478 77.1046 130.538 76.9171 130.635 76.7671C130.172 76.8421 129.82 77.2396 129.82 77.727V81.6193C129.82 82.1592 130.254 82.5942 130.792 82.5942H134.424C134.745 82.5942 135.006 82.8567 135.006 83.1791V90.0262C135.006 90.0861 134.991 90.1311 134.977 90.1836H135.081C135.402 90.1836 135.664 89.9212 135.664 89.5987V82.7517C135.664 82.4292 135.402 82.1667 135.081 82.1667Z" fill="#F0EFEB"/>
<path d="M154.147 82.0463H151.763C151.225 82.0463 150.792 81.6113 150.792 81.0713V76.8341C150.792 74.4643 148.879 72.5369 146.51 72.5369C146.039 72.4919 145.897 71.892 146.099 71.4795C146.009 71.502 145.92 71.532 145.83 71.5545C145.172 71.757 145.202 72.9044 145.86 72.9569C148.221 72.9569 150.142 74.8768 150.142 77.2541V81.4913C150.142 82.0313 150.575 82.4662 151.113 82.4662H153.497C153.818 82.4662 154.08 82.7287 154.08 83.0512V90.1307C154.08 90.1907 154.065 90.2357 154.05 90.2882H154.155C154.476 90.2882 154.738 90.0257 154.738 89.7032V82.6237C154.738 82.3012 154.476 82.0388 154.155 82.0388L154.147 82.0463Z" fill="#F0EFEB"/>
<path d="M123.749 87.5117C123.749 87.5117 122.658 89.1691 121.582 90.0615C122.404 89.6791 123.368 88.5092 123.928 87.7517C123.816 87.6017 123.749 87.5117 123.749 87.5117Z" fill="#F0EFEB"/>
<path d="M114.629 71.8566H114.636C114.705 71.8187 114.78 71.7655 114.856 71.7124C114.72 71.7959 114.629 71.8566 114.629 71.8566Z" fill="#F0EFEB"/>
<path d="M166.025 53.9514C167.146 54.2364 169.186 57.0337 169.186 57.0337C169.186 57.0337 169.365 56.7562 169.656 56.3662C169.133 55.6838 167.601 53.7564 166.682 53.5239H158.701C158.432 53.5239 158.223 53.7039 158.148 53.9514H166.032H166.025Z" fill="#F0EFEB"/>
<path d="M162.719 82.1416C162.666 82.1491 162.614 82.1566 162.614 82.1566H158.803C158.534 82.1566 158.325 82.3366 158.25 82.5841H161.904C162.248 82.5841 162.539 82.4116 162.719 82.1416Z" fill="#F0EFEB"/>
<path d="M175.729 61.9248C175.265 61.9998 174.914 62.3973 174.914 62.8847V67.7519C174.914 68.2918 175.347 68.7268 175.886 68.7268H181.498C182.32 68.7268 183.059 68.4268 183.642 67.9394C183.186 68.1644 182.686 68.2994 182.148 68.2994H176.536C175.998 68.2994 175.564 67.8644 175.564 67.3244V62.4573C175.564 62.2623 175.624 62.0748 175.721 61.9248H175.729Z" fill="#F0EFEB"/>
<path d="M172.277 53.9514H188.979C193.896 53.9514 197.879 57.9486 197.879 62.8833C197.879 65.8681 196.362 68.5004 194.098 70.1203C196.728 68.5604 198.537 65.7106 198.537 62.4558C198.537 57.5211 194.554 53.5239 189.637 53.5239H172.935C172.651 53.5914 172.337 53.7789 172.023 54.0414C172.113 54.0039 172.195 53.9739 172.277 53.9514Z" fill="#F0EFEB"/>
<path d="M168.917 87.5117C168.917 87.5117 167.826 89.1691 166.75 90.0615C167.572 89.6791 168.536 88.5092 169.096 87.7517C168.984 87.6017 168.917 87.5117 168.917 87.5117Z" fill="#F0EFEB"/>
<path d="M159.805 71.8566H159.812C159.88 71.8187 159.956 71.7655 160.032 71.7124C159.895 71.7959 159.805 71.8566 159.805 71.8566Z" fill="#F0EFEB"/>
<path d="M199.323 82.0463H196.939C196.401 82.0463 195.968 81.6113 195.968 81.0713V76.8341C195.968 74.4643 194.055 72.5369 191.686 72.5369C191.215 72.4919 191.073 71.892 191.275 71.4795C191.185 71.502 191.096 71.532 191.006 71.5545C190.348 71.757 190.378 72.9044 191.036 72.9569C193.397 72.9569 195.318 74.8768 195.318 77.2541V81.4913C195.318 82.0313 195.751 82.4662 196.289 82.4662H198.673C198.994 82.4662 199.256 82.7287 199.256 83.0512V90.1307C199.256 90.1907 199.241 90.2357 199.226 90.2882H199.331C199.652 90.2882 199.913 90.0257 199.913 89.7032V82.6237C199.913 82.3012 199.652 82.0388 199.331 82.0388L199.323 82.0463Z" fill="#F0EFEB"/>
<path d="M180.257 82.1667H176.625C176.087 82.1667 175.654 81.7317 175.654 81.1918V77.2995C175.654 77.1046 175.713 76.9171 175.811 76.7671C175.347 76.8421 174.996 77.2396 174.996 77.727V81.6193C174.996 82.1592 175.43 82.5942 175.968 82.5942H179.599C179.921 82.5942 180.182 82.8567 180.182 83.1791V90.0262C180.182 90.0861 180.167 90.1311 180.152 90.1836H180.257C180.578 90.1836 180.84 89.9212 180.84 89.5987V82.7517C180.84 82.4292 180.578 82.1667 180.257 82.1667Z" fill="#F0EFEB"/>
<path d="M263.049 61.9248C262.586 61.9998 262.234 62.3973 262.234 62.8847V67.7519C262.234 68.2918 262.668 68.7268 263.206 68.7268H268.818C269.64 68.7268 270.38 68.4268 270.963 67.9394C270.507 68.1644 270.006 68.2994 269.468 68.2994H263.856C263.318 68.2994 262.885 67.8644 262.885 67.3244V62.4573C262.885 62.2623 262.944 62.0748 263.041 61.9248H263.049Z" fill="#F0EFEB"/>
<path d="M250.032 82.1416C249.979 82.1491 249.927 82.1566 249.875 82.1566H246.123C245.854 82.1566 245.645 82.3366 245.57 82.5841H249.225C249.568 82.5841 249.86 82.4116 250.039 82.1416H250.032Z" fill="#F0EFEB"/>
<path d="M253.333 53.9514C254.454 54.2364 256.494 57.0337 256.494 57.0337C256.494 57.0337 256.674 56.7562 256.965 56.3662C256.442 55.6838 254.91 53.7564 253.991 53.5239H246.01C245.741 53.5239 245.532 53.7039 245.457 53.9514H253.341H253.333Z" fill="#F0EFEB"/>
<path d="M259.598 53.9514H276.299C281.217 53.9514 285.2 57.9486 285.2 62.8833C285.2 65.8681 283.683 68.5004 281.418 70.1203C284.049 68.5604 285.857 65.7106 285.857 62.4558C285.857 57.5211 281.874 53.5239 276.957 53.5239H260.255C259.971 53.5914 259.658 53.7789 259.344 54.0414C259.433 54.0039 259.516 53.9739 259.598 53.9514Z" fill="#F0EFEB"/>
<path d="M267.577 82.1667H263.946C263.407 82.1667 262.974 81.7317 262.974 81.1918V77.2995C262.974 77.1046 263.034 76.9171 263.131 76.7671C262.668 76.8421 262.316 77.2396 262.316 77.727V81.6193C262.316 82.1592 262.75 82.5942 263.288 82.5942H266.92C267.241 82.5942 267.503 82.8567 267.503 83.1791V90.0262C267.503 90.0861 267.488 90.1311 267.473 90.1836H267.577C267.899 90.1836 268.16 89.9212 268.16 89.5987V82.7517C268.16 82.4292 267.899 82.1667 267.577 82.1667Z" fill="#F0EFEB"/>
<path d="M286.643 82.0463H284.26C283.722 82.0463 283.288 81.6113 283.288 81.0713V76.8341C283.288 74.4643 281.375 72.5369 279.006 72.5369C278.535 72.4919 278.393 71.892 278.595 71.4795C278.506 71.502 278.416 71.532 278.326 71.5545C277.669 71.757 277.698 72.9044 278.356 72.9569C280.717 72.9569 282.638 74.8768 282.638 77.2541V81.4913C282.638 82.0313 283.071 82.4662 283.609 82.4662H285.993C286.315 82.4662 286.576 82.7287 286.576 83.0512V90.1307C286.576 90.1907 286.561 90.2357 286.546 90.2882H286.651C286.972 90.2882 287.234 90.0257 287.234 89.7032V82.6237C287.234 82.3012 286.972 82.0388 286.651 82.0388L286.643 82.0463Z" fill="#F0EFEB"/>
<path d="M256.234 87.5117C256.234 87.5117 255.142 89.1691 254.066 90.0615C254.888 89.6791 255.852 88.5092 256.413 87.7517C256.301 87.6017 256.234 87.5117 256.234 87.5117Z" fill="#F0EFEB"/>
<path d="M247.121 71.8566H247.129C247.197 71.8187 247.272 71.7655 247.348 71.7124C247.212 71.7959 247.121 71.8566 247.121 71.8566Z" fill="#F0EFEB"/>
</svg>
