<svg width="364" height="144" viewBox="0 0 364 144" fill="none" xmlns="http://www.w3.org/2000/svg">
<mask id="mask0_3093_19655" style="mask-type:luminance" maskUnits="userSpaceOnUse" x="88" y="49" width="198" height="46">
<path d="M285.468 49.853H88.4375V94.1468H285.468V49.853Z" fill="white"/>
</mask>
<g mask="url(#mask0_3093_19655)">
<path d="M280.309 59.5845H286.828V85.6512H280.309V82.8882C278.98 84.0895 277.774 84.9304 276.446 85.531C275.119 86.0114 273.791 86.3718 272.222 86.3718C268.841 86.3718 265.944 85.0505 263.41 82.4078C260.875 79.765 259.668 76.5218 259.668 72.6779C259.668 68.5937 260.875 65.3504 263.289 62.8278C265.704 60.3052 268.601 58.9839 271.98 58.9839C273.549 58.9839 274.998 59.2241 276.446 59.8247C277.774 60.4254 279.101 61.2662 280.309 62.4674V59.5845ZM273.307 64.99C271.256 64.99 269.565 65.7107 268.238 67.1522C266.91 68.5937 266.186 70.3956 266.186 72.6779C266.186 74.9603 266.91 76.762 268.238 78.2035C269.565 79.645 271.256 80.3657 273.307 80.3657C275.359 80.3657 277.05 79.645 278.498 78.2035C279.826 76.762 280.55 74.9603 280.55 72.5577C280.55 70.2754 279.826 68.4736 278.498 67.0321C277.171 65.7107 275.48 64.99 273.307 64.99Z" fill="#F0EFEB"/>
<path d="M239.626 49.4937H246.143V85.6505H239.626V82.8877C238.298 84.089 237.091 84.9298 235.763 85.5305C234.435 86.0109 233.107 86.3713 231.538 86.3713C228.158 86.3713 225.261 85.05 222.726 82.4073C220.192 79.7645 218.984 76.5213 218.984 72.6774C218.984 68.5931 220.192 65.3499 222.606 62.8273C225.02 60.3047 227.917 58.9833 231.297 58.9833C232.866 58.9833 234.314 59.2236 235.763 59.8242C237.091 60.4248 238.418 61.2657 239.626 62.4669V49.4937ZM232.745 64.9895C230.693 64.9895 229.003 65.7102 227.675 67.1516C226.348 68.5931 225.623 70.395 225.623 72.6774C225.623 74.9596 226.348 76.7615 227.675 78.203C229.003 79.6445 230.693 80.3651 232.745 80.3651C234.797 80.3651 236.608 79.6445 237.936 78.203C239.263 76.7615 239.988 74.9596 239.988 72.5572C239.988 70.2749 239.263 68.4729 237.936 67.0316C236.608 65.7102 234.797 64.9895 232.745 64.9895Z" fill="#F0EFEB"/>
<path d="M209.811 77.2426H216.571C215.967 80.1255 214.64 82.2877 212.708 83.7292C210.777 85.1707 208.001 85.8913 204.621 85.8913C200.396 85.8913 197.016 84.6901 194.602 82.4077C192.188 80.0053 191.102 76.7621 191.102 72.5577C191.102 68.3534 192.309 65.1101 194.602 62.7077C196.896 60.3052 200.034 59.104 204.138 59.104C208.242 59.104 211.38 60.1851 213.553 62.4674C215.726 64.7498 216.933 67.9931 216.933 72.1974C216.933 72.4376 216.933 72.798 216.933 73.0383C216.933 73.3985 216.933 73.8791 216.812 74.4798H198.465C198.465 76.5217 198.947 77.9632 199.913 79.0443C200.879 80.1255 202.327 80.606 204.259 80.606C205.587 80.606 206.794 80.3658 207.639 79.7651C208.604 79.2847 209.328 78.3236 209.811 77.2426ZM198.585 69.7949H209.691V69.1942C209.691 67.6327 209.208 66.4314 208.121 65.4706C207.035 64.5095 205.707 64.029 204.138 64.029C202.448 64.029 201.12 64.5095 200.155 65.5906C199.068 66.6717 198.585 67.9931 198.585 69.7949Z" fill="#F0EFEB"/>
<path d="M148.249 59.5855H154.888V62.5885C155.975 61.3873 157.302 60.4263 158.63 59.8257C159.958 59.2251 161.527 58.8647 163.096 58.8647C164.666 58.8647 166.235 59.2251 167.562 60.066C168.89 60.9068 169.977 61.9879 170.701 63.5495C171.787 61.9879 172.994 60.9068 174.564 60.066C176.133 59.2251 177.702 58.8647 179.513 58.8647C181.323 58.8647 183.013 59.3452 184.462 60.1861C185.91 61.027 186.876 62.108 187.479 63.5495C188.083 64.991 188.445 67.1532 188.445 70.3964V85.7723H181.806V72.5588C181.806 69.5556 181.444 67.6337 180.72 66.5526C179.995 65.4715 178.909 64.991 177.34 64.991C176.253 64.991 175.167 65.3513 174.322 65.9519C173.477 66.5526 172.753 67.5136 172.27 68.5947C171.787 69.6758 171.667 71.4777 171.667 74.0003V85.7723H165.028V73.0392C165.028 70.7569 164.907 69.0751 164.545 67.9941C164.183 66.913 163.7 66.1922 162.976 65.7117C162.251 65.2313 161.406 64.991 160.441 64.991C159.354 64.991 158.389 65.3513 157.423 65.9519C156.578 66.5526 155.854 67.5136 155.371 68.7147C154.888 69.916 154.647 71.7179 154.647 74.2405V85.8923H148.008L148.249 59.5855Z" fill="#F0EFEB"/>
<path d="M249.887 59.5854H256.526V85.6521H249.887V59.5854Z" fill="#F0EFEB"/>
<path d="M249.887 49.4937V56.1004H256.526V49.4937H249.887Z" fill="#F0EFEB"/>
<path d="M127.852 59.5278H134.659V86.0424H127.852V59.5278Z" fill="#F0EFEB"/>
<path d="M127.852 49.8521V56.3015H134.659V49.8521H127.852Z" fill="#F0EFEB"/>
<path d="M137.992 68.8345V75.3211H144.51V68.8345H137.992Z" fill="#F0EFEB"/>
</g>
<path d="M115.671 86.0426V75.2935H104.922V86.0426H115.671Z" fill="#F0EFEB"/>
<path d="M102.056 72.0689V60.9614H94.2814C92.2426 60.9614 90.5898 62.6142 90.5898 64.653V72.0689H102.056Z" fill="#F0EFEB"/>
<path d="M102.054 86.0426V75.2935H83.172C81.1332 75.2935 79.4805 76.9462 79.4805 78.985V86.0426H102.054Z" fill="#F0EFEB"/>
<path d="M104.922 72.0679H115.671V49.853H108.613C106.575 49.853 104.922 51.5058 104.922 53.5446V72.0679Z" fill="#F0EFEB"/>
</svg>
