<svg width="364" height="144" viewBox="0 0 364 144" fill="none" xmlns="http://www.w3.org/2000/svg">
<path d="M56.053 51.0801V92.6855H50V51.0801H56.053ZM56.1921 71.7088L71.9855 51.0801H79.4647L63.2191 71.7088L79.4647 92.6855H71.9855L56.1921 71.7088Z" fill="#F0EFEB"/>
<path d="M114.845 92.6862H109V87.8508H108.896C107.852 89.6945 106.391 91.086 104.478 92.0252C102.6 92.9645 100.547 93.4515 98.3208 93.4515C93.6245 93.4515 89.7283 91.9209 86.5627 88.8596C83.3971 85.7983 81.7969 81.9022 81.7969 77.2407C81.7969 72.5792 83.3623 68.5787 86.5279 65.4478C89.6588 62.317 93.6245 60.7168 98.3208 60.7168C100.478 60.7168 102.53 61.169 104.409 62.0387C106.287 62.9084 107.783 64.2303 108.896 65.9349H109V61.5517H114.845V92.6862ZM109.14 77.1711C109.14 74.0403 108.131 71.3964 106.113 69.2396C104.095 67.1176 101.521 66.0392 98.3555 66.0392C95.1899 66.0392 92.7896 67.1176 90.7372 69.3092C88.6847 71.466 87.6759 74.1098 87.6759 77.1711C87.6759 80.2324 88.7195 82.7023 90.772 84.8591C92.8244 87.0159 95.3291 88.1291 98.3208 88.1291C101.312 88.1291 103.921 87.0507 106.009 84.9286C108.096 82.8066 109.14 80.1976 109.14 77.1711Z" fill="#F0EFEB"/>
<path d="M149.976 92.6854H144.132V75.7789C144.132 69.3085 141.558 66.0385 136.374 66.0385C133.626 66.0385 131.574 66.943 130.217 68.7519C128.86 70.5608 128.165 72.8916 128.165 75.7093V92.6854H122.32V61.5162H127.782V64.8209H127.886C129.973 62.038 133.035 60.6465 137 60.6465C141.975 60.6465 145.662 62.4902 148.028 66.2124C149.35 68.2301 150.011 70.9087 150.011 74.1787V92.6158L149.976 92.6854Z" fill="#F0EFEB"/>
<path d="M188.868 92.6862H183.024V87.8508H182.919C181.876 89.6945 180.415 91.086 178.502 92.0252C176.623 92.9645 174.571 93.4515 172.344 93.4515C167.648 93.4515 163.752 91.9209 160.586 88.8596C157.421 85.7983 155.82 81.9022 155.82 77.2407C155.82 72.5792 157.386 68.5787 160.551 65.4478C163.682 62.317 167.648 60.7168 172.344 60.7168C174.501 60.7168 176.553 61.169 178.432 62.0387C180.31 62.9084 181.806 64.2303 182.919 65.9349H183.024V61.5517H188.868V92.6862ZM183.128 77.1711C183.128 74.0403 182.119 71.3964 180.102 69.2396C178.084 67.1176 175.51 66.0392 172.344 66.0392C169.179 66.0392 166.778 67.1176 164.726 69.3092C162.673 71.466 161.665 74.1098 161.665 77.1711C161.665 80.2324 162.708 82.7023 164.761 84.8591C166.813 87.0159 169.318 88.1291 172.309 88.1291C175.301 88.1291 177.91 87.0507 179.997 84.9286C182.085 82.8066 183.128 80.1976 183.128 77.1711Z" fill="#F0EFEB"/>
<path d="M229.188 77.1008C229.188 81.6232 227.657 85.4845 224.596 88.685C221.535 91.8854 217.708 93.4508 213.186 93.4508C211.064 93.4508 209.011 92.9986 207.098 92.0593C205.185 91.1548 203.584 89.8329 202.332 88.1632H202.228V92.6507H196.453V51.0801H202.297V65.8646H202.402C204.906 62.4207 208.489 60.6813 213.081 60.6813C217.673 60.6813 221.361 62.3163 224.492 65.5515C227.622 68.7867 229.223 72.6481 229.223 77.1008H229.188ZM223.344 77.1008C223.344 74.1092 222.335 71.5001 220.282 69.3085C218.23 67.1169 215.725 66.0038 212.733 66.0038C209.742 66.0038 207.272 67.0822 205.219 69.239C203.167 71.3958 202.123 73.97 202.123 76.9617C202.123 79.9534 203.132 82.6668 205.15 84.8236C207.168 86.9804 209.707 88.0936 212.733 88.0936C215.76 88.0936 218.195 87.0152 220.282 84.7888C222.335 82.5972 223.378 80.023 223.378 77.0661L223.344 77.1008Z" fill="#F0EFEB"/>
<path d="M240.911 57.9331H235.066V51.0801H240.911V57.9331ZM240.911 92.6855H235.066V61.5162H240.911V92.6507V92.6855Z" fill="#F0EFEB"/>
<path d="M280.432 76.9972C280.432 81.4847 278.797 85.3461 275.528 88.6161C272.258 91.8861 268.292 93.4863 263.63 93.4863C258.969 93.4863 255.073 91.8513 251.768 88.6161C248.463 85.3809 246.828 81.4847 246.828 76.8928C246.828 72.3009 248.498 68.5439 251.803 65.4131C255.107 62.2822 259.073 60.7168 263.63 60.7168C268.187 60.7168 272.188 62.2822 275.493 65.4478C278.797 68.5787 280.432 72.4401 280.432 77.032V76.9972ZM271.388 84.8243C273.51 82.6327 274.588 80.0236 274.588 76.9972C274.588 73.9707 273.51 71.3617 271.388 69.2396C269.266 67.1176 266.657 66.0392 263.63 66.0392C260.604 66.0392 257.995 67.1176 255.873 69.2744C253.751 71.4312 252.672 74.0403 252.672 77.0667C252.672 80.0932 253.751 82.7023 255.873 84.8938C257.995 87.0507 260.604 88.1638 263.63 88.1638C266.657 88.1638 269.266 87.0854 271.388 84.8591V84.8243Z" fill="#F0EFEB"/>
<path d="M313.964 92.6854H308.12V75.7789C308.12 69.3085 305.546 66.0385 300.363 66.0385C297.614 66.0385 295.562 66.943 294.205 68.7519C292.849 70.5608 292.153 72.8916 292.153 75.7093V92.6854H286.309V61.5162H291.77V64.8209H291.875C293.962 62.038 297.023 60.6465 300.989 60.6465C305.963 60.6465 309.651 62.4902 312.016 66.2124C313.338 68.2301 313.999 70.9087 313.999 74.1787V92.6158L313.964 92.6854Z" fill="#F0EFEB"/>
</svg>
