<svg width="364" height="144" viewBox="0 0 364 144" fill="none" xmlns="http://www.w3.org/2000/svg">
<path d="M251.318 84.3625C251.318 86.1414 250.545 89.0703 248.308 89.0703C244.373 89.0703 245.442 85.7371 241.211 79.1875C237.698 73.7429 230.717 72.548 228.093 72.3953C232.801 72.009 248.856 72.1617 248.856 61.3535C248.856 50.5453 232.729 50.0062 228.327 50.0062H195.705V52.45H200.08C205.623 52.45 205.12 56.2773 205.12 56.2773V85.5843C205.12 90.0586 203.863 91.7117 200.233 91.7117H197.214C193.432 91.7117 190.961 86.5906 190.961 86.5906L169.74 49H165.427C165.427 49 147.477 81.8828 145.042 86.2851C142.598 90.6785 138.941 91.7117 136.588 91.7117H134.62C129.319 91.7117 129.705 85.9707 129.705 85.9707V57.2207C129.705 52.2254 134.692 52.45 134.692 52.45H137.773V50.0062H113.543L101.378 80.032L89.5453 50.0062H65.4223V52.45H68.5129C72.4301 52.45 73.032 55.5047 73.032 56.2683V85.9797C73.032 91.3254 65 91.7207 65 91.7207V93.9758H86.302V91.7207C77.2727 91.7207 77.5332 85.9797 77.5332 85.9797V54.2558L93.22 93.9758H100.425L116.525 54.6512V85.9886C116.525 89.789 115.322 91.7297 111.314 91.7297H108.907V93.9848H159.013V91.7297H154.925C148.052 91.7297 150.54 86.1594 150.54 86.1594L153.766 79.4301H172.291L176.649 87.0937C176.649 87.0937 179.353 91.7297 173.675 91.7297H169.12V93.9848H226.647V91.7297H223.691C218.13 91.7297 218.291 87.3812 218.291 85.9886V72.9793C222.02 72.9793 228.004 73.132 228.713 80.8945C229.423 88.657 229.917 94.9371 241.911 94.9371C250.779 94.9371 254.723 90.8492 254.723 84.3625H251.327H251.318ZM155.769 76.0699L162.867 62.7461L170.396 76.0699H155.769ZM223.538 70.4726H218.291V57.041C218.291 57.041 217.672 52.7195 224.239 52.7195C230.807 52.7195 233.96 57.041 233.96 61.7488C233.96 69.9156 224.931 70.4726 223.538 70.4726ZM277.022 65.6121C269.754 64.2195 266.493 61.066 267.068 57.7418C267.517 55.1543 270.024 52.0726 276.438 52.0726C289.529 52.0726 293.545 65.1539 293.545 65.1539H296.599V49.8715H292.925C292.925 51.5426 291.316 52.3871 289.834 52.4141C287.273 52.4769 284.12 49.018 275.711 49.018C263.079 49.018 256.107 55.9359 256.107 62.9078C256.107 69.8797 261.21 73.9855 276.169 77.184C283.617 78.7742 288.055 80.4992 288.522 84.5152C288.989 88.5312 284.875 92.0441 278.163 92.0441C263.285 92.0441 259.116 77.2559 259.116 77.2559H255.774V94.0836H259.215C259.215 91.9183 262.495 90.7684 265.522 92.0711C268.918 93.5355 272.916 95 278.181 95C288.909 95 299.95 89.5195 299.95 80.7238C299.95 70.841 289.96 68.0648 277.031 65.5941" fill="#F0EFEB"/>
</svg>
