<svg width="364" height="144" viewBox="0 0 364 144" fill="none" xmlns="http://www.w3.org/2000/svg">
<path fill-rule="evenodd" clip-rule="evenodd" d="M284.033 68.4052H279.18C279.294 68.1609 279.401 67.9319 279.515 67.7105C280.317 66.1228 281.148 65.6113 282.934 65.6113H285.414C284.964 66.5274 284.498 67.4663 284.025 68.4052H284.033Z" fill="#F0EFEB"/>
<path fill-rule="evenodd" clip-rule="evenodd" d="M278.799 79.206C280.271 76.206 281.775 73.2136 283.248 70.2137H278.394C277.12 72.8091 275.823 75.3816 274.548 77.977C274.098 78.8472 273.518 79.206 272.488 79.206H260.683C262.293 76.0075 263.88 72.8091 265.468 69.5877C266.139 68.2442 266.383 68.1526 267.971 68.1526H269.382C270.748 68.1526 271.397 67.7709 271.954 66.6793C272.175 66.229 272.381 65.7862 272.602 65.3587H267.574C268.291 63.9084 269.024 62.4504 269.741 61H266.566C265.178 61 264.529 61.3588 263.995 62.4504C263.522 63.4122 263.033 64.3969 262.56 65.3587H259.897C259.447 66.2977 258.981 67.2137 258.508 68.1526H261.171C260.614 69.2518 256.814 76.8777 256.272 77.9693C255.845 78.8396 255.242 79.1983 254.235 79.1983H243.75L249.321 68.9999H245.475C244.582 68.9999 244.2 69.29 243.62 69.9847C243.62 69.2442 243.353 68.9999 242.659 68.9999H239.996C235.616 68.9999 233.151 70.3663 231.251 73.832C230.488 75.2213 229.732 76.6029 228.992 77.9922C228.504 78.8625 227.916 79.1983 226.932 79.1983C224.696 79.1983 222.437 79.1983 220.179 79.2212C217.744 79.2212 216.783 78.8625 216.508 77.5648C216.218 76.1984 216.821 75.061 220.11 72.893C220.736 72.4885 221.338 72.0915 221.964 71.664C222.811 71.1068 223.17 70.7938 223.063 70.1908C222.949 69.6335 222.613 69.0076 219.957 69.0076C215.707 69.0305 211.487 69.0305 207.237 69.0305C205.894 69.0305 205.268 69.3663 204.665 70.4808C203.299 72.9846 201.918 75.4884 200.552 77.9922C200.079 78.8625 199.499 79.2212 198.515 79.2212H178.125C178.415 78.3739 178.705 77.4961 178.995 76.6487H189.167C191.181 76.6487 192.005 76.1373 192.746 74.435C193.058 73.6717 193.394 72.893 193.707 72.1297C193.951 71.5724 194.157 70.7404 193.753 70.1144C193.265 69.3969 192.028 69.0152 190.197 69.0152H180.407C177.278 69.0152 175.866 69.8854 174.775 72.4579C174.081 74.0457 173.409 75.6564 172.738 77.2442C172.043 78.8777 170.952 79.2136 169.388 79.2136H162.39C162.55 78.9922 162.703 78.7632 162.84 78.5418C164.229 76.4655 163.954 74.1602 162.123 72.1908C160.292 70.2671 157.896 69.5954 155.751 69.0152C153.943 69.0152 152.127 69.0152 150.318 68.9923C149.067 71.2747 147.838 73.5572 146.587 75.8396C145.022 78.7022 143.321 79.1907 140.329 79.1907H133.759L139.33 68.9923H135.484C134.568 68.9923 134.186 69.2824 133.629 69.977C133.629 69.2366 133.362 68.9923 132.645 68.9923H130.005C125.625 68.9923 123.16 70.3587 121.26 73.8243C120.497 75.2136 119.741 76.5953 119.001 77.9846C118.513 78.8548 117.948 79.1907 116.941 79.1907H106.921C109.76 73.9999 112.576 68.8091 115.415 63.6259C115.903 62.7328 115.254 61.6107 114.232 61.6107H74.3988C71.6898 61.6107 70.3544 62.3053 69.0801 64.4733H86.2953C83.0979 70.3358 79.9006 76.1907 76.7033 82.0304H81.6633C84.8607 76.1907 88.058 70.3358 91.2553 64.4962H98.1384C94.941 70.3358 91.7437 76.1907 88.5464 82.0304H93.5064C96.7038 76.1907 99.9011 70.3358 103.098 64.4962H109.981L102.068 78.9922C101.71 79.6411 101.351 80.5571 101.732 81.206C102.068 81.7403 102.869 82.0304 104.083 82.0304H117.139C117.788 82.0304 118.055 81.8319 118.459 81.3586C118.459 81.8701 118.887 82.0304 119.398 82.0304H141.871C146.32 82.0304 148.693 80.7327 150.616 77.2213C151.6 75.435 152.584 73.6182 153.569 71.8091C153.615 71.832 153.836 71.8778 153.882 71.8778C157.415 72.5495 159.2 73.8701 159.361 75.8777C159.429 76.7022 159.162 77.4655 158.62 78.0686C157.949 78.7861 156.942 79.1831 155.828 79.206C153.569 79.206 152.653 80.0762 151.783 82.0227H170.807C171.433 82.0227 171.723 81.8243 172.104 81.351C172.127 81.8624 172.554 82.0227 173.066 82.0227H201.193C203.093 82.0227 203.917 81.5342 204.863 79.7861C205.962 77.7938 207.053 75.7861 208.152 73.7709C208.915 72.4045 209.854 71.8701 211.487 71.8701H216.447C215.6 72.4503 214.684 73.1907 213.967 73.9083C213.028 74.893 212.113 76.2136 211.952 77.9312C211.815 79.1373 212.128 80.1678 212.799 80.9311C213.448 81.6487 214.432 82.0304 215.592 82.0304H227.176C227.802 82.0304 228.092 81.8319 228.473 81.3586C228.473 81.8701 228.923 82.0304 229.435 82.0304H253.762C254.411 82.0304 254.678 81.8319 255.082 81.3586C255.082 81.8701 255.509 82.0304 256.021 82.0304H292.015C294.183 82.0304 295.281 81.3357 295.686 79.6792C295.732 79.5037 295.777 79.3434 295.823 79.1678C290.146 79.1678 284.468 79.1678 278.806 79.1907L278.799 79.206ZM180.201 73.1678C180.689 71.7556 181.834 71.6259 182.864 71.6259H188.411C188.274 72.0075 188.167 72.3892 188.03 72.7633C187.58 74.0839 186.557 74.1984 185.634 74.1984H179.842C179.979 73.8625 180.086 73.5037 180.201 73.1678ZM129.783 77.2823C128.998 78.6945 128.105 79.206 126.449 79.206H123.702C124.686 77.3968 125.693 75.6029 126.678 73.7938C127.441 72.4045 128.357 71.8701 129.99 71.8701H132.737C131.752 73.6793 130.768 75.4961 129.783 77.2823ZM239.767 77.2823C239.004 78.6945 238.111 79.206 236.455 79.206H233.708C234.692 77.3968 235.7 75.6029 236.684 73.7938C237.424 72.4045 238.363 71.8701 239.996 71.8701H242.743C241.759 73.6793 240.774 75.4961 239.767 77.2823Z" fill="#F0EFEB"/>
</svg>
