<svg width="364" height="144" viewBox="0 0 364 144" fill="none" xmlns="http://www.w3.org/2000/svg">
<g clip-path="url(#clip0_3093_19675)">
<path d="M81.7524 101.647H64.9727L91.4411 72.0555L64.9727 43L104.131 65.2964L143.299 43L116.725 72.0555L143.299 101.647H126.519L104.14 65.2964L81.7612 101.647H81.7524Z" fill="#F0EFEB"/>
<path d="M144.632 55.5525C143.088 52.0149 139.349 50.0486 135.672 49.1708C123.201 46.432 107.834 51.9886 96.9083 57.7382C88.8607 62.1887 80.778 68.0613 76.3461 76.0581C74.5119 79.5079 73.6431 83.9145 76.5567 86.9518C80.7692 91.0599 88.0708 91.1038 93.8103 90.621C99.3919 90.0855 104.868 88.7249 110.178 86.9781C121.27 83.1421 136.637 76.0581 143 66.1038C144.957 62.9963 146.133 59.0637 144.641 55.5525H144.632ZM145.168 55.3242C149.678 65.4893 136.172 78.8847 128.291 84.2569C116.681 92.1484 102.341 97.0729 87.9831 96.1073C81.5239 95.5982 73.8888 93.3334 71.0717 86.9869C68.3862 80.6666 72.0371 73.8548 76.1881 69.1059C82.7877 61.6006 91.6602 56.4215 100.884 52.603C111.827 48.3369 124.202 45.879 135.812 48.6353C139.595 49.6536 143.465 51.6813 145.168 55.3155V55.3242Z" fill="#F0EFEB"/>
<path d="M117.785 73.2402L136.241 93.7986L123.771 97.1957L110.098 74.9871L117.785 73.2402Z" fill="#F0EFEB"/>
<path d="M172.093 52.6819H188.522V43.5352H194.209V68.1665H188.522V57.5187H172.093V68.1665H166.371V43.5352H172.093V52.6907V52.6819Z" fill="#F0EFEB"/>
<path d="M222.211 44.6678C224.572 45.7739 226.415 47.3188 227.749 49.2939C229.083 51.269 229.75 53.4898 229.75 55.9477C229.75 58.4056 229.083 60.5826 227.749 62.5401C226.415 64.4888 224.572 66.0338 222.229 67.1486C219.877 68.2722 217.235 68.8252 214.304 68.8252C211.373 68.8252 208.836 68.2634 206.441 67.1486C204.045 66.025 202.149 64.4888 200.754 62.5225C199.35 60.5562 198.656 58.3705 198.656 55.9477C198.656 53.525 199.358 51.2953 200.754 49.3202C202.158 47.3452 204.045 45.8002 206.432 44.6766C208.81 43.553 211.425 43 214.278 43C217.13 43 219.859 43.553 222.22 44.6678H222.211ZM218.938 63.2687C220.403 62.6279 221.588 61.6798 222.492 60.4245C223.396 59.1693 223.843 57.677 223.843 55.9477C223.843 54.2184 223.387 52.7525 222.474 51.4884C221.562 50.2244 220.359 49.2588 218.885 48.5917C217.402 47.9245 215.84 47.591 214.19 47.591C212.426 47.591 210.82 47.9245 209.363 48.5917C207.906 49.2588 206.748 50.2156 205.888 51.4533C205.028 52.6998 204.598 54.1745 204.598 55.8775C204.598 57.5804 205.045 59.1342 205.932 60.3894C206.827 61.6447 208.003 62.6015 209.468 63.2511C210.934 63.9095 212.531 64.2342 214.242 64.2342C215.954 64.2342 217.446 63.9095 218.92 63.2687H218.938Z" fill="#F0EFEB"/>
<path d="M263.576 57.1939C264.55 58.1156 265.032 59.4323 265.032 61.1353V61.2669C265.032 63.1981 264.541 64.6641 263.558 65.6648C262.575 66.6655 261.232 67.3238 259.53 67.6486C257.827 67.9734 255.572 68.1577 252.772 68.2016H251.114L234.922 68.1665V43.5352H254.334C256.95 43.5615 259.047 44.0882 260.6 45.1328C262.163 46.1774 262.935 47.6521 262.935 49.5569V49.6886C262.935 51.1282 262.628 52.3045 262.022 53.2174C261.417 54.1303 260.495 54.8062 259.275 55.2452C261.171 55.6226 262.61 56.2722 263.576 57.1939ZM256.704 48.4421C256.3 48.0295 255.765 47.775 255.115 47.6784C254.457 47.5819 253.509 47.5292 252.272 47.5292H240.451V53.3842L249.227 53.4808H248.885H252.272C253.536 53.4808 254.475 53.4456 255.098 53.3666C255.721 53.2876 256.248 53.0331 256.669 52.6029C257.099 52.1728 257.309 51.453 257.309 50.4523C257.309 49.5218 257.108 48.8459 256.704 48.4421ZM256.651 63.7687C257.388 63.6546 257.968 63.3649 258.398 62.8821C258.828 62.4081 259.038 61.6268 259.038 60.5384C259.038 59.4499 258.828 58.7388 258.398 58.2736C257.968 57.8084 257.388 57.5275 256.651 57.4221C255.914 57.3256 254.817 57.2729 253.351 57.2729H240.442V63.8653C245.725 63.8653 249.525 63.8916 251.824 63.9355H253.351C254.817 63.9355 255.923 63.8828 256.651 63.7687Z" fill="#F0EFEB"/>
<path d="M285.557 43.5352H279.23L265.645 68.1665H271.603L273.508 64.708L276.992 58.3789L282.407 48.5913L286.865 56.6848L286.891 56.7374L287.795 58.3789L291.569 65.2346L293.184 68.1665H299.143L285.557 43.5352Z" fill="#F0EFEB"/>
<path d="M271.692 76.4883H277.686L263.793 101.629H257.887L261.143 95.7211L250.875 76.4883H256.799L264.302 89.8924L271.692 76.4883Z" fill="#F0EFEB"/>
<path d="M185.18 101.602H191.086L202.223 81.4128H208.217V101.602H214.062V76.4883H198.984L185.18 101.602Z" fill="#F0EFEB"/>
<path d="M243.268 76.9974C245.673 78.1298 247.559 79.7011 248.92 81.72C250.28 83.739 250.956 85.995 250.956 88.5143C250.956 91.0336 250.28 93.2457 248.92 95.2383C247.559 97.2309 245.681 98.8022 243.285 99.9434C240.89 101.085 238.195 101.655 235.203 101.655C232.21 101.655 229.63 101.085 227.182 99.9434C224.742 98.8022 222.802 97.2309 221.372 95.2208C219.941 93.2193 219.23 90.9809 219.23 88.5143C219.23 86.0476 219.941 83.7741 221.372 81.7551C222.802 79.7362 224.733 78.1649 227.164 77.015C229.595 75.8738 232.263 75.3032 235.168 75.3032C238.073 75.3032 240.863 75.865 243.268 76.9974ZM239.933 95.9757C241.434 95.3173 242.636 94.3517 243.558 93.0701C244.479 91.7885 244.944 90.2699 244.944 88.5055C244.944 86.7411 244.479 85.2488 243.549 83.9584C242.619 82.6681 241.39 81.6849 239.889 81.0002C238.38 80.3243 236.782 79.982 235.106 79.982C233.307 79.982 231.666 80.3243 230.183 81.0002C228.7 81.6761 227.515 82.6505 226.637 83.9233C225.76 85.1874 225.321 86.6972 225.321 88.4441C225.321 90.1909 225.777 91.771 226.69 93.0438C227.603 94.3254 228.805 95.2998 230.306 95.9669C231.806 96.634 233.43 96.9676 235.176 96.9676C236.923 96.9676 238.45 96.6428 239.942 95.9844L239.933 95.9757Z" fill="#F0EFEB"/>
<path d="M188.488 76.4707V81.0529H172.208V101.602H166.363V76.4707H188.479H188.488Z" fill="#F0EFEB"/>
</g>
<defs>
<clipPath id="clip0_3093_19675">
<rect width="234.17" height="58.6465" fill="white" transform="translate(64.9727 43)"/>
</clipPath>
</defs>
</svg>
