<svg width="364" height="144" viewBox="0 0 364 144" fill="none" xmlns="http://www.w3.org/2000/svg">
<path d="M267.928 84.7219V58.2756C267.928 56.1979 269.57 56.1979 270.321 56.1979V55.5054H260.926V56.1979C261.688 56.1979 263.33 56.1979 263.33 58.2756V84.7219C263.33 86.7996 261.653 86.7996 260.926 86.7996V87.4921H270.321V86.7996C269.559 86.7996 267.928 86.7996 267.928 84.7219Z" fill="#F0EFEB"/>
<path d="M285.559 84.8745L272.445 69.92C272.445 69.92 281.606 59.9307 282.603 58.839C284.01 57.3131 285.195 56.1979 287.142 56.1979V55.5054H278.052V56.1979C281.958 56.1979 280.761 58.0995 280.081 58.839C279.401 59.5903 268.492 71.4929 268.492 71.4929L282.403 87.4804H288.714V86.7878C287.283 86.7996 286.544 86.0601 285.559 84.8745Z" fill="#F0EFEB"/>
<path d="M300.77 56.1979V55.5054H291.375V56.1979C292.137 56.1979 293.78 56.1979 293.78 58.2756V84.7219C293.78 86.7996 292.102 86.7996 291.375 86.7996V87.4921H300.77V86.7996C300.008 86.7996 298.378 86.7996 298.378 84.7219V58.2756C298.378 56.1979 300.02 56.1979 300.77 56.1979Z" fill="#F0EFEB"/>
<path d="M126.76 56.1979V55.5054H118.104V56.1979C121.247 56.1979 121.975 57.4304 120.849 61.3041C120.403 62.8183 114.55 83.0316 114.55 83.0316H114.456C114.456 83.0316 108.216 62.337 107.723 60.6585C107.066 58.4399 105.987 56.1979 109.835 56.1979V55.5054H98.844V56.1979C100.615 56.1979 101.905 56.7379 102.504 58.4282C102.879 59.4729 105.225 66.2224 105.225 67.1145C105.225 68.0066 102.351 77.5029 100.885 82.609H100.791C100.791 82.609 94.4923 62.3957 93.812 60.1655C93.4718 59.0621 93.1434 58.393 93.1434 57.6535C93.1434 56.6909 93.812 56.1979 95.372 56.1979V55.5054H85.918V56.1979C88.041 56.1979 88.5806 57.5948 89.1436 59.3673L98.234 87.7973H101.378L106.304 69.6265H106.398L111.758 87.7973H115.066L123.23 59.6138C123.851 57.4422 125.271 56.1979 126.76 56.1979Z" fill="#F0EFEB"/>
<path d="M74.8467 68.7813C69.064 67.5487 66.7533 66.8327 66.7533 63.276C66.7533 59.7193 69.8147 56.8552 74.8936 56.8552C78.4946 56.8552 82.2598 59.2263 82.9166 63.5343H83.6321L83.4445 56.6556C81.4504 55.564 77.6149 55.024 75.6443 55.024C68.0787 55.0005 63.1875 59.2733 63.1875 64.1681C63.1875 70.2133 67.5626 71.7393 75.6443 73.4296C78.8934 74.1222 81.6147 75.073 81.6147 79.0405C81.6147 84.1819 77.2278 86.1539 73.8145 86.1539C68.8998 86.1539 65.5217 82.7498 64.3839 77.9958H63.6567L63.9382 85.6726C66.6829 87.3395 69.5801 87.9968 72.4891 87.9968C81.2393 87.9968 85.1804 83.3485 85.1804 77.8432C85.1804 71.258 80.7232 70.0138 74.8467 68.7813Z" fill="#F0EFEB"/>
<path d="M174.266 83.2429L165.786 71.7511C170.9 71.5046 174.7 68.0888 174.7 63.0296C174.7 58.9212 171.123 55.5054 164.355 55.5054H152.602V56.1979C153.692 56.1979 155.006 56.4444 155.006 58.2756V84.7219C155.006 86.7996 153.329 86.7996 152.602 86.7996V87.4921H161.997V86.7996C161.235 86.7996 159.592 86.7996 159.592 84.7219V57.3483H162.126C167.873 57.3483 170.395 59.6372 170.395 63.8278C170.395 67.6193 168.718 70.8942 160.754 70.8942L172.483 87.4804H178.512V86.7878C177.187 86.7996 175.674 85.121 174.266 83.2429Z" fill="#F0EFEB"/>
<path d="M130.036 73.2649L134.763 59.6368H134.857L139.502 73.2649H130.036ZM147.243 82.7846L137.343 55.4932H131.69V56.1857C132.417 56.1857 133.285 56.397 133.285 57.6295C133.285 58.0521 133.132 58.6742 132.91 59.3551C132.757 59.7776 124.546 83.5124 124.546 83.5124C123.608 86.2357 122.857 86.7874 120.887 86.7874V87.4799H129.273V86.7874C127.01 86.7874 126.341 85.907 126.329 85.1792C126.329 84.4867 126.564 83.5711 127.033 82.2447L129.414 75.0726H140.123L142.152 80.8478C143.138 83.5711 143.454 84.4162 143.454 85.3084C143.454 86.2474 143.02 86.7874 141.073 86.7874V87.4799H150.692V86.7874C148.58 86.7991 148.451 86.1066 147.243 82.7846Z" fill="#F0EFEB"/>
<path d="M194.37 85.496C187.825 85.496 181.925 76.8332 181.925 69.8489C181.925 59.9653 187.931 57.7468 191.802 57.7468C198.194 57.7468 203.836 64.2263 203.836 72.9008C203.836 80.7655 200.482 85.496 194.37 85.496ZM193.585 55C186.3 55 178.16 61.8786 178.16 71.5862C178.16 80.5542 183.427 87.9728 192.881 87.9728C202.335 87.9728 208.164 79.6034 208.164 71.0814C208.164 63.8741 204.024 55 193.585 55Z" fill="#F0EFEB"/>
<path d="M235.87 55.5054H227.484V56.1979C231.542 56.1979 230.475 58.8743 229.97 60.4589C228.844 63.9452 222.581 83.0081 222.581 83.0081H222.487L214.699 59.7664C214.511 59.2264 214.182 58.1817 214.182 57.6417C214.182 56.7027 214.781 56.2097 216.587 56.2097V55.5171H206.969V56.2097C209.092 56.2097 209.303 57.3483 209.725 58.4399L220.012 87.8091H222.956C222.956 87.8091 231.706 61.1163 232.434 58.8508C233.126 56.7261 234.17 56.2097 235.882 56.2097V55.5054H235.87Z" fill="#F0EFEB"/>
<path d="M247.167 68.7812C241.384 67.5487 239.074 66.8326 239.074 63.2759C239.074 59.7192 242.135 56.8551 247.214 56.8551C250.815 56.8551 254.58 59.2262 255.237 63.5342H255.952L255.765 56.6555C253.759 55.5639 249.923 55.0239 247.965 55.0239C240.399 55.0239 235.508 59.2849 235.508 64.1915C235.508 70.2367 239.883 71.7627 247.965 73.453C251.202 74.1456 253.935 75.0964 253.935 79.0639C253.935 84.2052 249.56 86.1773 246.135 86.1773C241.232 86.1773 237.842 82.7732 236.704 78.0192H235.965L236.247 85.696C238.991 87.3628 241.889 88.0202 244.798 88.0202C253.548 88.0202 257.489 83.3718 257.489 77.8666C257.501 71.2462 253.044 70.0137 247.167 68.7812Z" fill="#F0EFEB"/>
</svg>
