<svg width="330" height="144" viewBox="0 0 330 144" fill="none" xmlns="http://www.w3.org/2000/svg">
<mask id="mask0_3093_19693" style="mask-type:luminance" maskUnits="userSpaceOnUse" x="84" y="34" width="162" height="77">
<path d="M245.713 34H84.3906V110.646H245.713V34Z" fill="white"/>
</mask>
<g mask="url(#mask0_3093_19693)">
<path d="M89.125 101.679H91.0841V102.672C91.5607 102.028 92.2172 101.553 93.2339 101.553C94.8435 101.553 96.3685 102.81 96.3685 105.112V105.133C96.3685 107.436 94.8647 108.692 93.2339 108.692C92.1855 108.692 91.5501 108.217 91.0841 107.668V110.625H89.125V101.69V101.679ZM94.4093 105.133V105.112C94.4093 103.971 93.6363 103.211 92.7255 103.211C91.8148 103.211 91.0524 103.971 91.0524 105.112V105.133C91.0524 106.274 91.8148 107.034 92.7255 107.034C93.6363 107.034 94.4093 106.284 94.4093 105.133Z" fill="#F0EFEB"/>
<path d="M97.4688 105.165V105.144C97.4688 103.179 98.8772 101.563 100.879 101.563C103.187 101.563 104.236 103.348 104.236 105.302C104.236 105.461 104.225 105.64 104.214 105.82H99.4173C99.6079 106.707 100.233 107.172 101.101 107.172C101.758 107.172 102.234 106.971 102.774 106.464L103.897 107.457C103.251 108.249 102.329 108.735 101.08 108.735C99.0043 108.735 97.4793 107.288 97.4793 105.176M102.34 104.595C102.224 103.718 101.705 103.127 100.889 103.127C100.074 103.127 99.555 103.708 99.3961 104.595H102.34Z" fill="#F0EFEB"/>
<path d="M105.359 105.165V105.144C105.359 103.179 106.863 101.563 108.981 101.563C110.284 101.563 111.088 101.997 111.734 102.715L110.538 103.993C110.104 103.528 109.659 103.232 108.971 103.232C107.996 103.232 107.297 104.098 107.297 105.112V105.133C107.297 106.19 107.975 107.034 109.045 107.034C109.701 107.034 110.146 106.749 110.623 106.306L111.766 107.457C111.099 108.186 110.326 108.714 108.949 108.714C106.874 108.714 105.359 107.119 105.359 105.154" fill="#F0EFEB"/>
<path d="M114.676 103.412H112.441V101.68H118.88V103.412H116.635V108.566H114.676V103.412Z" fill="#F0EFEB"/>
<path d="M119.559 105.165V105.144C119.559 103.169 121.158 101.563 123.307 101.563C125.457 101.563 127.024 103.148 127.024 105.123V105.144C127.024 107.119 125.425 108.724 123.276 108.724C121.126 108.724 119.559 107.151 119.559 105.165ZM125.097 105.165V105.144C125.097 104.13 124.366 103.243 123.286 103.243C122.206 103.243 121.497 104.109 121.497 105.123V105.144C121.497 106.158 122.227 107.045 123.307 107.045C124.388 107.045 125.097 106.19 125.097 105.176" fill="#F0EFEB"/>
<path d="M128.434 101.679H130.393V102.672C130.869 102.028 131.526 101.553 132.542 101.553C134.152 101.553 135.677 102.81 135.677 105.112V105.133C135.677 107.436 134.173 108.692 132.542 108.692C131.494 108.692 130.859 108.217 130.393 107.668V110.625H128.434V101.69V101.679ZM133.718 105.133V105.112C133.718 103.971 132.945 103.211 132.034 103.211C131.123 103.211 130.361 103.971 130.361 105.112V105.133C130.361 106.274 131.123 107.034 132.034 107.034C132.945 107.034 133.718 106.284 133.718 105.133Z" fill="#F0EFEB"/>
<path d="M136.715 106.58V106.559C136.715 105.059 137.859 104.362 139.5 104.362C140.199 104.362 140.697 104.478 141.184 104.647V104.531C141.184 103.718 140.686 103.274 139.701 103.274C138.96 103.274 138.43 103.412 137.795 103.644L137.308 102.155C138.07 101.817 138.812 101.605 139.987 101.605C141.057 101.605 141.83 101.891 142.317 102.376C142.836 102.894 143.069 103.644 143.069 104.573V108.566H141.173V107.826C140.697 108.354 140.04 108.703 139.087 108.703C137.784 108.703 136.715 107.964 136.715 106.601M141.205 106.158V105.809C140.866 105.651 140.432 105.556 139.955 105.556C139.119 105.556 138.6 105.894 138.6 106.506V106.527C138.6 107.055 139.034 107.362 139.669 107.362C140.58 107.362 141.205 106.865 141.205 106.158Z" fill="#F0EFEB"/>
<path d="M144.742 101.68H146.701V104.215H149.264V101.68H151.213V108.566H149.264V105.999H146.701V108.566H144.742V101.68Z" fill="#F0EFEB"/>
<path d="M166.596 99.187H164.637V108.555H166.596V99.187Z" fill="#F0EFEB"/>
<path d="M168.102 105.165V105.144C168.102 103.169 169.701 101.563 171.85 101.563C174 101.563 175.567 103.148 175.567 105.123V105.144C175.567 107.119 173.968 108.724 171.819 108.724C169.669 108.724 168.102 107.151 168.102 105.165ZM173.64 105.165V105.144C173.64 104.13 172.909 103.243 171.829 103.243C170.749 103.243 170.039 104.109 170.039 105.123V105.144C170.039 106.158 170.77 107.045 171.85 107.045C172.931 107.045 173.64 106.19 173.64 105.176" fill="#F0EFEB"/>
<path d="M176.922 106.137V101.68H178.881V105.514C178.881 106.443 179.315 106.908 180.067 106.908C180.819 106.908 181.285 106.432 181.285 105.514V101.68H183.244V108.555H181.285V107.584C180.84 108.165 180.258 108.682 179.262 108.682C177.78 108.682 176.922 107.71 176.922 106.126" fill="#F0EFEB"/>
<path d="M184.991 101.68H186.95V102.651C187.406 102.071 187.977 101.542 188.973 101.542C190.455 101.542 191.313 102.514 191.313 104.098V108.555H189.354V104.722C189.354 103.803 188.92 103.327 188.168 103.327C187.416 103.327 186.94 103.803 186.94 104.722V108.555H184.98V101.68H184.991Z" fill="#F0EFEB"/>
<path d="M193.049 109.918L193.716 108.45C194.425 108.851 195.135 109.084 196.046 109.084C197.38 109.084 198.015 108.439 198.015 107.204V106.866C197.433 107.563 196.808 107.985 195.76 107.985C194.15 107.985 192.699 106.813 192.699 104.774V104.753C192.699 102.704 194.182 101.542 195.76 101.542C196.829 101.542 197.454 101.997 197.984 102.567V101.669H199.943V106.992C199.943 108.228 199.646 109.126 199.064 109.696C198.418 110.34 197.433 110.615 196.088 110.615C194.965 110.615 193.906 110.362 193.038 109.897M198.005 104.764V104.743C198.005 103.803 197.274 103.148 196.321 103.148C195.368 103.148 194.648 103.803 194.648 104.743V104.764C194.648 105.714 195.368 106.359 196.321 106.359C197.274 106.359 198.005 105.704 198.005 104.764Z" fill="#F0EFEB"/>
<path d="M201.363 105.165V105.144C201.363 103.179 202.761 101.563 204.773 101.563C207.082 101.563 208.13 103.348 208.13 105.302C208.13 105.461 208.12 105.64 208.098 105.82H203.301C203.492 106.707 204.117 107.172 204.985 107.172C205.642 107.172 206.118 106.971 206.658 106.464L207.781 107.457C207.135 108.249 206.213 108.735 204.964 108.735C202.888 108.735 201.363 107.288 201.363 105.176M206.224 104.595C206.108 103.718 205.589 103.127 204.773 103.127C203.958 103.127 203.439 103.708 203.28 104.595H206.224Z" fill="#F0EFEB"/>
<path d="M222.025 107.763C221.305 107.045 220.902 106.042 220.902 104.5C220.902 101.585 222.088 99.916 224.588 99.4936L227.193 99.0605L227.5 100.845L224.937 101.247C223.603 101.469 222.914 102.06 222.734 102.979C223.285 102.546 224.111 102.219 225.054 102.219C227.087 102.219 228.209 103.454 228.209 105.26C228.209 107.235 226.727 108.714 224.513 108.714C223.423 108.714 222.554 108.291 222.025 107.763ZM226.282 105.303C226.282 104.341 225.678 103.644 224.619 103.644C223.465 103.644 222.83 104.436 222.83 105.387C222.83 106.338 223.497 107.087 224.524 107.087C225.551 107.087 226.271 106.327 226.271 105.303" fill="#F0EFEB"/>
<path d="M229.215 106.58V106.559C229.215 105.059 230.359 104.362 231.989 104.362C232.688 104.362 233.186 104.478 233.673 104.647V104.531C233.673 103.718 233.175 103.274 232.191 103.274C231.449 103.274 230.92 103.412 230.284 103.644L229.797 102.155C230.56 101.817 231.301 101.605 232.477 101.605C233.546 101.605 234.319 101.891 234.806 102.376C235.325 102.894 235.558 103.644 235.558 104.573V108.566H233.663V107.826C233.186 108.354 232.529 108.703 231.576 108.703C230.274 108.703 229.215 107.964 229.215 106.601M233.705 106.158V105.809C233.366 105.651 232.932 105.556 232.455 105.556C231.619 105.556 231.1 105.894 231.1 106.506V106.527C231.1 107.055 231.534 107.362 232.169 107.362C233.08 107.362 233.705 106.865 233.705 106.158Z" fill="#F0EFEB"/>
<path d="M237.242 101.679H239.201V102.672C239.678 102.028 240.334 101.553 241.351 101.553C242.961 101.553 244.486 102.81 244.486 105.112V105.133C244.486 107.436 242.982 108.692 241.351 108.692C240.303 108.692 239.667 108.217 239.201 107.668V110.625H237.242V101.69V101.679ZM242.527 105.133V105.112C242.527 103.971 241.753 103.211 240.843 103.211C239.932 103.211 239.17 103.971 239.17 105.112V105.133C239.17 106.274 239.932 107.034 240.843 107.034C241.753 107.034 242.527 106.284 242.527 105.133Z" fill="#F0EFEB"/>
<path fill-rule="evenodd" clip-rule="evenodd" d="M133.189 47.8357C131.261 47.4237 129.408 47.2653 127.449 47.2759C125.659 47.2759 123.181 47.3393 122.313 47.3076C121.127 47.3076 120.449 48.237 120.449 49.4305V90.0298C120.449 91.2127 121.127 92.1738 122.313 92.1738H124.865C126.062 92.1738 126.739 91.2021 126.739 90.0298V76.9121C139.278 77.0283 145.398 71.5679 145.398 62.0201C145.398 53.9403 140.273 49.3565 133.189 47.8357ZM126.729 71.3883V56.2639C126.729 54.6163 125.532 53.5601 123.997 53.1799C123.817 53.1376 123.827 52.8419 123.997 52.8102H128.794C134.184 52.8102 139.034 54.9859 139.129 62.0412C139.235 69.6668 133.538 71.9058 126.729 71.3883Z" fill="#F0EFEB"/>
<path fill-rule="evenodd" clip-rule="evenodd" d="M111.331 47.2444H108.768C107.582 47.2444 106.904 48.2161 106.904 49.399V58.7884C106.904 59.1053 106.957 62.8652 106.777 65.7592C106.745 66.3189 106.502 69.0016 106.216 69.4241C106.004 69.7304 105.591 69.6881 105.379 69.4874C105.125 69.2551 105.072 68.7904 105.019 68.3573C104.426 64.798 103.801 58.0068 99.9574 53.7716C93.9001 47.1283 84.3906 46.5474 84.3906 46.5474C84.3906 46.5474 84.4436 57.8379 90.4797 64.4917C93.7201 68.0722 97.8606 69.8994 101.037 70.8182C103.41 71.5047 105.051 71.7054 107.434 71.8533C108.08 71.8955 108.164 71.8955 108.694 71.9272C108.916 71.9272 108.959 72.3074 108.694 72.3602C106.025 72.8989 105.485 74.3881 104.49 76.5955C102.393 81.2321 98.1253 85.2455 91.8775 86.7559C90.7867 87.0199 89.2936 87.284 89.2936 88.7415V90.6003C89.2936 92.3325 90.9244 92.5543 92.1846 92.3642C102.499 90.801 109.488 82.7424 111.765 72.8778C112.58 69.3607 113.205 64.2805 113.205 60.5733V49.3885C113.205 48.2056 112.527 47.2339 111.331 47.2339" fill="#F0EFEB"/>
<path fill-rule="evenodd" clip-rule="evenodd" d="M229.996 69.6564C230.431 77.9263 236.043 84.6963 243.572 86.7981C244.621 87.0833 245.722 87.3262 245.722 88.752V90.6109C245.722 92.0684 244.663 92.586 243.466 92.4381C234.582 91.3185 226.65 85.1399 224.808 75.9723C224.458 74.2297 224.86 72.3919 226.534 71.4625C226.862 71.2829 226.714 70.8816 226.396 70.9661C224.532 71.6843 222.118 71.811 220.72 71.8955V90.0195C220.72 91.2024 220.042 92.174 218.856 92.174H216.293C215.107 92.174 214.43 91.2024 214.43 90.0195V49.399C214.43 48.2161 215.107 47.255 216.293 47.255H218.856C220.042 47.255 220.72 48.2267 220.72 49.399V69.1495C220.72 69.6776 220.932 69.9733 221.271 69.9838C222.086 69.9944 222.118 68.8643 222.192 68.2834C222.679 64.6502 224.236 57.9329 228.069 53.6977C234.105 47.0438 243.36 46.5474 243.36 46.5474C243.36 46.5474 243.413 57.3626 237.271 63.9214C234.412 66.9738 232.284 68.5791 229.996 69.667" fill="#F0EFEB"/>
<path fill-rule="evenodd" clip-rule="evenodd" d="M189.882 44.8363C192.117 47.9204 196.194 49.5363 199.942 49.399C203.299 49.2723 206.614 47.8147 208.986 45.0793C210.384 43.4633 211.305 41.6044 211.75 39.6611C206.857 37.5699 200.959 38.7422 197.284 42.9775C196.342 44.0548 195.558 45.3327 195.05 46.5896C194.965 46.8008 194.817 47.2127 194.679 47.35C194.362 47.6563 193.97 47.4979 193.949 47.0649C193.949 46.8219 194.15 46.4734 194.245 46.2622C195.611 43.3471 195.368 39.6716 193.345 36.8728C192.424 35.6054 191.248 34.6443 189.935 34C187.616 37.1263 187.468 41.5094 189.882 44.8363Z" fill="#F0EFEB"/>
<path fill-rule="evenodd" clip-rule="evenodd" d="M208.258 65.8859C207.623 61.5661 205.028 56.2536 203.165 54.3419C199.426 50.5186 196.79 51.6276 193.094 50.075C189.419 48.5224 189.239 46.2833 183.065 46.3573C180.386 46.3889 175.134 48.026 171.608 50.6031C168.992 52.5253 166.853 54.8066 165.211 57.4576C164.099 59.232 163.083 61.3655 162.479 63.4884C162.299 64.1326 162.13 64.7875 161.982 65.4845H156.962V49.2934C156.962 48.1105 156.284 47.1388 155.098 47.1388H152.536C151.35 47.1388 150.672 48.1105 150.672 49.2934V89.9244C150.672 91.1073 151.35 92.079 152.536 92.079H155.098C156.284 92.079 156.962 91.1073 156.962 89.9244V74.029C156.92 72.4975 155.511 71.5892 154.219 71.2724C153.976 71.1879 154.039 70.871 154.219 70.8393H161.537C161.569 71.98 161.674 73.1207 161.855 74.2402C162.543 78.5494 165.519 83.8514 167.298 85.6469C172.264 90.6532 173.598 88.4352 176.743 89.692C179.889 90.9489 179.687 93.2302 186.962 93.3147C189.631 93.3464 195.18 91.7199 198.675 89.1006C200.655 87.6219 202.339 85.9215 203.747 84.0204C205.876 81.1582 207.326 77.884 208.036 74.3881C208.597 71.6315 208.661 68.8009 208.237 65.907M201.799 73.0784C201.227 76.0568 200.072 78.6445 198.166 81.0209C197.224 82.1932 196.133 83.2494 194.873 84.2105C192.554 85.9743 189.091 87.5058 187.27 87.6325C182.631 87.9705 182.049 85.3617 179.137 84.2105C176.129 83.017 173.45 84.2844 171.184 81.042C170.273 79.7429 168.558 76.1625 168.113 73.2791C167.732 71.0295 167.742 68.8643 168.166 66.7625C168.674 64.2383 169.871 61.5767 171.375 59.5172C172.465 58.028 173.778 56.7183 175.335 55.5671C177.675 53.835 181.244 52.6309 182.801 52.4514C187.577 51.9233 188.286 54.437 190.859 55.5248C193.433 56.6021 195.413 55.0284 198.855 59.232C199.861 60.4572 201.555 63.9109 201.968 66.8153C202.254 68.9805 202.19 71.0506 201.799 73.089" fill="#F0EFEB"/>
<path fill-rule="evenodd" clip-rule="evenodd" d="M179.953 72.9832C179.953 75.1167 180.483 77.1234 181.425 78.8767C186.498 77.2607 190.172 72.5185 190.172 66.9208C190.172 64.7873 189.643 62.7806 188.7 61.0273C183.628 62.6433 179.953 67.3855 179.953 72.9832Z" fill="#F0EFEB"/>
<path d="M157.819 102.842C158.349 102.842 158.793 103.021 159.164 103.402C159.535 103.771 159.725 104.225 159.725 104.753C159.725 105.282 159.535 105.725 159.164 106.095C158.793 106.464 158.338 106.655 157.819 106.655C157.3 106.655 156.834 106.464 156.464 106.095C156.093 105.725 155.902 105.271 155.902 104.753C155.902 104.204 156.093 103.75 156.474 103.391C156.855 103.032 157.3 102.852 157.819 102.852" fill="#F0EFEB"/>
<path d="M214.421 102.842C214.95 102.842 215.395 103.021 215.766 103.402C216.136 103.771 216.327 104.225 216.327 104.753C216.327 105.282 216.136 105.725 215.766 106.095C215.395 106.464 214.94 106.655 214.421 106.655C213.902 106.655 213.436 106.464 213.065 106.095C212.695 105.725 212.504 105.271 212.504 104.753C212.504 104.204 212.695 103.75 213.076 103.391C213.457 103.032 213.902 102.852 214.421 102.852" fill="#F0EFEB"/>
</g>
</svg>
