<svg width="364" height="144" viewBox="0 0 364 144" fill="none" xmlns="http://www.w3.org/2000/svg">
<path d="M59.3194 89L50.0458 56.5897H57.5312L62.896 79.1092H63.165L69.0837 56.5897H75.4929L81.3958 79.1566H81.6807L87.0455 56.5897H94.5309L85.2572 89H78.5789L72.407 67.8098H72.1538L65.9977 89H59.3194ZM126.154 72.7948C126.154 76.3292 125.484 79.336 124.144 81.8153C122.815 84.2946 121 86.1884 118.7 87.4966C116.411 88.7943 113.836 89.4431 110.977 89.4431C108.097 89.4431 105.512 88.789 103.223 87.4808C100.934 86.1725 99.1242 84.2788 97.7948 81.7995C96.4655 79.3202 95.8008 76.3186 95.8008 72.7948C95.8008 69.2605 96.4655 66.2537 97.7948 63.7744C99.1242 61.2951 100.934 59.4066 103.223 58.1089C105.512 56.8007 108.097 56.1466 110.977 56.1466C113.836 56.1466 116.411 56.8007 118.7 58.1089C121 59.4066 122.815 61.2951 124.144 63.7744C125.484 66.2537 126.154 69.2605 126.154 72.7948ZM119.207 72.7948C119.207 70.5054 118.864 68.5747 118.178 67.0028C117.503 65.4308 116.548 64.2386 115.314 63.4262C114.079 62.6139 112.634 62.2077 110.977 62.2077C109.321 62.2077 107.876 62.6139 106.641 63.4262C105.407 64.2386 104.447 65.4308 103.761 67.0028C103.086 68.5747 102.748 70.5054 102.748 72.7948C102.748 75.0842 103.086 77.0149 103.761 78.5869C104.447 80.1589 105.407 81.3511 106.641 82.1634C107.876 82.9758 109.321 83.382 110.977 83.382C112.634 83.382 114.079 82.9758 115.314 82.1634C116.548 81.3511 117.503 80.1589 118.178 78.5869C118.864 77.0149 119.207 75.0842 119.207 72.7948ZM161.013 72.7948C161.013 76.3292 160.343 79.336 159.003 81.8153C157.674 84.2946 155.859 86.1884 153.559 87.4966C151.27 88.7943 148.696 89.4431 145.837 89.4431C142.956 89.4431 140.372 88.789 138.082 87.4808C135.793 86.1725 133.983 84.2788 132.654 81.7995C131.325 79.3202 130.66 76.3186 130.66 72.7948C130.66 69.2605 131.325 66.2537 132.654 63.7744C133.983 61.2951 135.793 59.4066 138.082 58.1089C140.372 56.8007 142.956 56.1466 145.837 56.1466C148.696 56.1466 151.27 56.8007 153.559 58.1089C155.859 59.4066 157.674 61.2951 159.003 63.7744C160.343 66.2537 161.013 69.2605 161.013 72.7948ZM154.066 72.7948C154.066 70.5054 153.723 68.5747 153.037 67.0028C152.362 65.4308 151.407 64.2386 150.173 63.4262C148.938 62.6139 147.493 62.2077 145.837 62.2077C144.18 62.2077 142.735 62.6139 141.501 63.4262C140.266 64.2386 139.306 65.4308 138.62 67.0028C137.945 68.5747 137.607 70.5054 137.607 72.7948C137.607 75.0842 137.945 77.0149 138.62 78.5869C139.306 80.1589 140.266 81.3511 141.501 82.1634C142.735 82.9758 144.18 83.382 145.837 83.382C147.493 83.382 148.938 82.9758 150.173 82.1634C151.407 81.3511 152.362 80.1589 153.037 78.5869C153.723 77.0149 154.066 75.0842 154.066 72.7948ZM177.578 89H166.089V56.5897H177.673C180.933 56.5897 183.74 57.2385 186.092 58.5362C188.445 59.8233 190.254 61.6749 191.521 64.0909C192.797 66.5069 193.435 69.3977 193.435 72.7632C193.435 76.1393 192.797 79.0406 191.521 81.4671C190.254 83.8937 188.435 85.7558 186.061 87.0535C183.698 88.3512 180.87 89 177.578 89ZM172.942 83.1288H177.294C179.319 83.1288 181.023 82.7701 182.405 82.0527C183.798 81.3247 184.842 80.2011 185.539 78.6819C186.245 77.1521 186.599 75.1792 186.599 72.7632C186.599 70.3683 186.245 68.4112 185.539 66.892C184.842 65.3727 183.803 64.2544 182.421 63.537C181.039 62.8196 179.335 62.4609 177.309 62.4609H172.942V83.1288ZM216.093 65.9108C215.967 64.6342 215.423 63.6425 214.463 62.9356C213.503 62.2288 212.2 61.8753 210.554 61.8753C209.436 61.8753 208.492 62.0336 207.722 62.3501C206.952 62.6561 206.361 63.0833 205.949 63.632C205.548 64.1806 205.348 64.803 205.348 65.4993C205.327 66.0796 205.448 66.586 205.712 67.0186C205.986 67.4511 206.361 67.8257 206.836 68.1422C207.31 68.4481 207.859 68.7172 208.481 68.9493C209.104 69.1708 209.768 69.3607 210.475 69.519L213.387 70.2153C214.801 70.5318 216.099 70.9538 217.28 71.4813C218.462 72.0088 219.485 72.6577 220.35 73.4278C221.215 74.198 221.885 75.1053 222.36 76.1498C222.845 77.1943 223.093 78.3917 223.104 79.7422C223.093 81.7256 222.587 83.4453 221.585 84.9012C220.593 86.3466 219.158 87.4702 217.28 88.272C215.413 89.0633 213.16 89.4589 210.523 89.4589C207.906 89.4589 205.628 89.058 203.686 88.2562C201.756 87.4544 200.247 86.2675 199.16 84.6955C198.084 83.113 197.52 81.1559 197.467 78.8243H204.098C204.172 79.911 204.483 80.8183 205.031 81.5463C205.591 82.2637 206.334 82.807 207.263 83.1763C208.202 83.535 209.262 83.7143 210.444 83.7143C211.604 83.7143 212.612 83.5455 213.466 83.2079C214.331 82.8703 215.001 82.4008 215.476 81.7995C215.951 81.1981 216.188 80.5071 216.188 79.7263C216.188 78.9984 215.972 78.3865 215.539 77.8906C215.117 77.3947 214.495 76.9727 213.672 76.6246C212.86 76.2764 211.863 75.9599 210.681 75.675L207.152 74.7888C204.42 74.1242 202.262 73.085 200.679 71.6712C199.097 70.2575 198.311 68.3532 198.321 65.9583C198.311 63.9959 198.833 62.2815 199.888 60.815C200.954 59.3486 202.415 58.2039 204.272 57.3809C206.129 56.558 208.239 56.1466 210.602 56.1466C213.007 56.1466 215.107 56.558 216.9 57.3809C218.705 58.2039 220.108 59.3486 221.11 60.815C222.112 62.2815 222.629 63.9801 222.661 65.9108H216.093ZM227.713 89V56.5897H234.565V83.3503H248.46V89H227.713ZM259.411 89H252.068L263.257 56.5897H272.087L283.26 89H275.917L267.799 63.9959H267.546L259.411 89ZM258.952 76.2606H276.297V81.6096H258.952V76.2606ZM287.161 89V56.5897H300.138C302.522 56.5897 304.511 56.9431 306.104 57.65C307.697 58.3568 308.895 59.338 309.696 60.5935C310.498 61.8384 310.899 63.2732 310.899 64.898C310.899 66.164 310.646 67.2771 310.139 68.2371C309.633 69.1867 308.937 69.9674 308.051 70.5793C307.175 71.1806 306.173 71.6079 305.044 71.8611V72.1776C306.278 72.2304 307.433 72.5786 308.509 73.2221C309.596 73.8657 310.477 74.7677 311.152 75.9283C311.828 77.0782 312.165 78.4498 312.165 80.0428C312.165 81.7625 311.738 83.2976 310.883 84.648C310.039 85.9879 308.789 87.0482 307.133 87.8289C305.476 88.6096 303.435 89 301.008 89H287.161ZM294.013 83.3978H299.6C301.509 83.3978 302.902 83.0338 303.778 82.3059C304.653 81.5674 305.091 80.5862 305.091 79.3624C305.091 78.4656 304.875 77.6743 304.442 76.9886C304.01 76.3028 303.393 75.7647 302.591 75.3744C301.8 74.984 300.855 74.7888 299.758 74.7888H294.013V83.3978ZM294.013 70.152H299.093C300.032 70.152 300.866 69.9885 301.594 69.6614C302.332 69.3238 302.913 68.849 303.335 68.2371C303.767 67.6252 303.983 66.892 303.983 66.0374C303.983 64.8663 303.567 63.9221 302.733 63.2047C301.91 62.4873 300.739 62.1285 299.22 62.1285H294.013V70.152Z" fill="#F0EFEB"/>
</svg>
