<svg xmlns="http://www.w3.org/2000/svg">
    <symbol id="preloader__logo" xmlns="http://www.w3.org/2000/svg" viewBox="0 0 211 60">
        <g id="surface1">
            <path style=" stroke:none;fill-rule:nonzero;fill:#fff;fill-opacity:1;" d="M 20.648438 46.566406 L 15.066406 46.566406 L 37.84375 0 L 38.804688 0 L 61.515625 46.566406 L 55.546875 46.566406 L 49.96875 34.859375 L 26.230469 34.859375 Z M 48.042969 30.765625 L 38.097656 9.914062 L 28.15625 30.765625 Z M 48.042969 30.765625 "/>
            <path style=" stroke:none;fill-rule:nonzero;fill:#fff;fill-opacity:1;" d="M 86.214844 24.371094 C 82.621094 22.261719 79.671875 21.300781 76.65625 21.300781 C 69.984375 21.300781 65.492188 26.035156 65.492188 32.941406 C 65.492188 39.53125 69.664062 43.816406 76.011719 43.816406 C 77.679688 43.816406 79.347656 43.5625 81.015625 42.984375 C 83.199219 42.28125 84.417969 41.640625 87.175781 39.660156 L 86.535156 45.097656 C 85.570312 45.609375 84.867188 45.925781 84.351562 46.117188 C 81.722656 47.269531 78.515625 47.910156 75.691406 47.910156 C 66.453125 47.910156 60.617188 42.089844 60.617188 32.878906 C 60.617188 23.667969 67.097656 17.207031 76.335938 17.207031 C 79.925781 17.207031 83.199219 18.101562 86.792969 20.019531 Z M 86.214844 24.371094 "/>
            <path style=" stroke:none;fill-rule:nonzero;fill:#fff;fill-opacity:1;" d="M 104.304688 47.910156 C 95.132812 47.910156 89.488281 42.410156 89.488281 33.453125 C 89.488281 23.796875 95.773438 17.78125 105.71875 17.78125 C 108.476562 17.78125 109.757812 17.910156 113.414062 18.550781 L 118.292969 18.550781 L 118.292969 58.59375 L 113.414062 60 L 113.414062 46.246094 C 109.375 47.527344 107.0625 47.910156 104.304688 47.910156 Z M 113.414062 22.835938 C 110.207031 21.75 108.410156 21.429688 105.910156 21.429688 C 98.722656 21.429688 94.363281 25.714844 94.363281 32.878906 C 94.363281 39.976562 98.53125 44.074219 105.78125 44.074219 C 108.667969 44.074219 110.785156 43.496094 113.414062 42.023438 Z M 113.414062 22.835938 "/>
            <path style=" stroke:none;fill-rule:nonzero;fill:#fff;fill-opacity:1;" d="M 150.753906 47.144531 L 146.007812 47.910156 L 146.007812 41.386719 L 145.8125 41.386719 C 143.695312 44.265625 142.671875 45.289062 140.488281 46.4375 C 138.5625 47.398438 136.382812 47.910156 133.816406 47.910156 C 126.503906 47.910156 123.425781 44.074219 123.425781 34.925781 L 123.425781 18.550781 L 128.300781 18.550781 L 128.300781 34.925781 C 128.300781 41.386719 130.097656 43.816406 134.714844 43.816406 C 141.128906 43.816406 145.878906 38.890625 145.878906 32.300781 L 145.878906 18.550781 L 150.753906 18.550781 Z M 150.753906 47.144531 "/>
            <path style=" stroke:none;fill-rule:nonzero;fill:#fff;fill-opacity:1;" d="M 159.160156 4.605469 C 161.019531 4.605469 162.558594 6.140625 162.558594 7.996094 C 162.558594 9.851562 161.019531 11.386719 159.160156 11.386719 C 157.296875 11.386719 155.757812 9.851562 155.757812 7.996094 C 155.757812 6.140625 157.296875 4.605469 159.160156 4.605469 Z M 156.71875 18.933594 L 161.597656 17.78125 L 161.597656 46.566406 L 156.71875 46.566406 Z M 156.71875 18.933594 "/>
            <path style=" stroke:none;fill-rule:nonzero;fill:#fff;fill-opacity:1;" d="M 167.496094 18.550781 L 172.371094 18.550781 L 172.371094 23.15625 L 172.5 23.15625 C 173.785156 21.363281 174.363281 20.726562 175.386719 19.957031 C 176.15625 19.316406 177.054688 18.871094 178.082031 18.484375 C 179.492188 18.039062 180.777344 17.847656 183.726562 17.78125 L 183.726562 22.644531 L 182.765625 22.644531 C 175.773438 22.644531 172.371094 25.839844 172.371094 32.558594 L 172.371094 46.566406 L 167.496094 46.566406 Z M 167.496094 18.550781 "/>
            <path style=" stroke:none;fill-rule:nonzero;fill:#fff;fill-opacity:1;" d="M 208.621094 45.097656 C 207.65625 45.609375 206.949219 45.925781 206.4375 46.117188 C 204 47.207031 200.34375 47.910156 197.457031 47.910156 C 188.410156 47.910156 182.445312 41.960938 182.445312 32.941406 C 182.445312 23.988281 189.117188 17.207031 197.839844 17.207031 C 205.28125 17.207031 210.992188 22.835938 210.992188 30.128906 C 210.992188 32.429688 209.902344 33.132812 206.308594 33.199219 L 204.511719 33.261719 L 187.320312 33.582031 C 188.023438 40.425781 191.425781 43.816406 197.585938 43.816406 C 199.378906 43.816406 201.242188 43.5625 203.039062 42.984375 C 205.730469 42.152344 206.824219 41.578125 209.261719 39.660156 Z M 197.585938 20.851562 C 192.515625 20.851562 188.347656 24.628906 187.449219 29.9375 L 206.117188 29.359375 C 205.667969 23.859375 202.71875 20.851562 197.585938 20.851562 Z M 197.585938 20.851562 "/>
            <path style=" stroke:none;fill-rule:nonzero;fill:#fff;fill-opacity:1;" d="M 17.726562 10.246094 L 12.746094 13.988281 L 13.019531 20.203125 L 7.910156 16.636719 L 2.066406 18.8125 L 3.886719 12.867188 L 0.0078125 8 L 6.242188 7.890625 L 9.683594 2.707031 L 11.71875 8.585938 Z M 17.726562 10.246094 "/>
        </g>
    </symbol>

    <symbol id="logo-desc" width="76" height="24" viewBox="0 0 76 24" fill="none" xmlns="http://www.w3.org/2000/svg">
        <path d="M0 2.84095L2.25891 2.80769L3.47629 0.945312L4.22024 3.07374L6.40477 3.6391L4.58545 4.98266L4.6824 7.19312L2.82477 5.91606L0.732696 6.73197L1.37294 4.55919L0 2.84095Z" fill="#FAFBFC"/>
        <path d="M13.9815 0H13.6208L5.3877 16.5751H7.44372L9.45465 12.3715H17.9943L20.0052 16.5751H22.2055L13.9815 0ZM10.1219 10.9259L13.72 3.52964L17.2819 10.9259H10.1219Z" fill="#FAFBFC"/>
        <path d="M40.8232 6.5813C38.5959 6.06693 36.9334 6.37433 36.9334 6.37433C32.1167 7.13116 32.2062 11.5605 32.2062 11.5605C32.125 15.0507 34.4433 16.2967 34.4433 16.2967C37.1756 17.8265 40.8232 16.443 40.8232 16.443V21.365L42.6178 20.8773V6.58131L40.8232 6.5813ZM40.8288 14.9541C38.2352 16.3277 36.0597 15.2924 36.0597 15.2924C33.7196 14.1949 33.9834 11.4279 33.9834 11.4279C34.024 8.54124 36.4858 7.86281 36.4858 7.86281C38.8529 7.19767 40.8288 8.11555 40.8288 8.11555V14.9541Z" fill="#FAFBFC"/>
        <path d="M44.4435 6.58789H46.229V13.3058C46.229 13.3058 46.2966 15.3145 47.9333 15.5406C47.9333 15.5406 49.543 15.7933 50.8956 14.8089C50.8956 14.8089 52.5684 13.7048 52.5458 11.297V6.58789H54.3178V16.7644L52.5864 17.0438V14.6759C52.5864 14.6759 51.2817 17.1161 48.0558 17.0438C48.0558 17.0438 44.2992 17.4118 44.4435 12.4222V6.58789Z" fill="#FAFBFC"/>
        <path d="M56.418 6.70536L58.2305 6.29297V16.5626H56.418V6.70536Z" fill="#FAFBFC"/>
        <path d="M57.3257 4.04518C58.018 4.04518 58.5792 3.50122 58.5792 2.83021C58.5792 2.1592 58.018 1.61523 57.3257 1.61523C56.6335 1.61523 56.0723 2.1592 56.0723 2.83021C56.0723 3.50122 56.6335 4.04518 57.3257 4.04518Z" fill="#FAFBFC"/>
        <path d="M31.0626 8.70914L31.261 7.08621C31.261 7.08621 29.3943 5.95992 27.0407 6.09295C27.0407 6.09295 24.0063 6.15059 22.559 8.70914C22.559 8.70914 21.4228 10.6026 21.9232 12.9172C21.9232 12.9172 22.3696 16.03 25.4942 16.8282C25.4942 16.8282 28.1319 17.653 31.1888 16.03L31.4188 14.0612C31.4188 14.0612 29.3898 15.7507 26.901 15.5644C26.901 15.5644 23.3976 15.3117 23.5889 11.3819C23.5889 11.3819 23.6411 8.28788 26.7251 7.64935C26.7251 7.64935 28.9885 7.19262 31.0626 8.70914Z" fill="#FAFBFC"/>
        <path d="M60.3105 16.5649V6.58787H62.096V8.23297H62.1636C62.1636 8.23297 62.9842 6.12227 66.1764 6.30851V8.07333C66.1764 8.07333 62.2785 7.51373 62.0959 11.225V16.5649H60.3105Z" fill="#FAFBFC"/>
        <path d="M75.5281 8.63743C74.455 6.36267 71.8849 6.12322 71.8849 6.12322C69.0895 5.89264 67.588 7.42689 67.588 7.42689C65.4644 9.31586 65.7077 12.1638 65.7077 12.1638C66.0483 16.276 69.5764 16.8851 69.5764 16.8851C72.7957 17.4749 75.1628 16.047 75.1628 16.047L75.3928 14.0516C73.1609 15.9273 70.6044 15.5548 70.6044 15.5548C67.4663 15.169 67.4663 11.9232 67.4663 11.9232L74.5902 11.7902C76.024 11.7857 75.997 10.8235 75.997 10.8235C76.0601 9.60851 75.5281 8.63743 75.5281 8.63743ZM67.4934 10.6461C67.4934 10.6461 67.9318 7.74614 70.8507 7.43575C70.8507 7.43575 73.9455 7.03446 74.2566 10.4466L67.4934 10.6461Z" fill="#FAFBFC"/>
        <path d="M55.1742 21.4456V21.042H56.8424V22.6073C56.8424 22.6073 56.1841 23.3279 54.8383 23.1815C54.8383 23.1815 53.1813 22.9975 53.2083 21.042C53.2083 21.042 53.208 19.3171 55.093 19.1397C55.093 19.1397 56.032 19.0311 56.6981 19.6763L56.3803 20.0155C56.3803 20.0155 55.6043 19.2718 54.5068 19.7494C54.5068 19.7494 53.6006 20.1951 53.6885 21.3258C53.6885 21.3258 53.7612 22.576 55.025 22.7758C55.025 22.7758 55.7964 22.9044 56.4006 22.3812V21.4456L55.1742 21.4456Z" fill="#FAFBFC"/>
        <path d="M60.2491 21.5267C61.3222 21.3271 61.3222 20.4536 61.3222 20.4536C61.3492 19.2253 60.1319 19.2031 60.1319 19.2031H58.166V23.1319H58.6259V21.5976H59.7441L60.9254 23.1319H61.5115L60.2491 21.5267ZM58.6169 21.2074V19.6244H59.9763C59.9763 19.6244 60.8803 19.5978 60.8487 20.4159C60.8487 20.4159 60.8916 21.1409 59.8388 21.2074H58.6169Z" fill="#FAFBFC"/>
        <path d="M64.4453 19.1035C63.3111 19.1035 62.3916 20.0177 62.3916 21.1455C62.3916 22.2732 63.3111 23.1874 64.4453 23.1874C65.5796 23.1874 66.4991 22.2732 66.4991 21.1455C66.4991 20.0177 65.5796 19.1035 64.4453 19.1035ZM64.4431 22.7529C63.5803 22.7529 62.8808 22.0282 62.8808 21.1343C62.8808 20.2403 63.5803 19.5157 64.4431 19.5157C65.306 19.5157 66.0054 20.2403 66.0054 21.1343C66.0054 22.0282 65.306 22.7529 64.4431 22.7529Z" fill="#FAFBFC"/>
        <path d="M67.6446 19.1387H68.1586V21.5154C68.1586 21.5154 68.118 22.655 69.3308 22.6949C69.3308 22.6949 70.4987 22.7581 70.5392 21.4622V19.1387H70.9991V21.5863C70.9991 21.5863 71.0081 23.0851 69.4481 23.1472C69.4481 23.1472 67.6445 23.2603 67.6445 21.4312V19.1387H67.6446Z" fill="#FAFBFC"/>
        <path d="M74.071 19.1387H72.3779V23.0497H72.8378V21.6662H73.8208C75.3177 21.6706 75.3447 20.4956 75.3447 20.4956C75.4214 19.1209 74.071 19.1387 74.071 19.1387ZM73.8072 21.2582H72.8401V19.5422H73.9087C73.9087 19.5422 74.8826 19.5489 74.8893 20.3537C74.8893 20.3537 74.9637 21.2117 73.8072 21.2582Z" fill="#FAFBFC"/>
    </symbol>

    <symbol id="arrow" xmlns="http://www.w3.org/2000/svg" width="16" height="16" viewBox="0 0 16 16" fill="none">
        <path d="M13.0685 5.15735L8.38346 9.76835C8.28124 9.86948 8.14325 9.92621 7.99946 9.92621C7.85567 9.92621 7.71768 9.86948 7.61546 9.76835L2.93046 5.15835C2.8276 5.05728 2.68917 5.00064 2.54496 5.00064C2.40075 5.00064 2.26231 5.05728 2.15946 5.15835C2.10881 5.20773 2.06856 5.26675 2.04107 5.33192C2.01359 5.3971 1.99943 5.46712 1.99943 5.53786C1.99943 5.60859 2.01359 5.67861 2.04107 5.74378C2.06856 5.80896 2.10881 5.86798 2.15946 5.91735L6.84346 10.5274C7.15198 10.8303 7.56708 11 7.99946 11C8.43184 11 8.84694 10.8303 9.15546 10.5274L13.8395 5.91735C13.8903 5.86796 13.9306 5.80888 13.9582 5.74362C13.9858 5.67835 14 5.60821 14 5.53735C14 5.4665 13.9858 5.39636 13.9582 5.33109C13.9306 5.26583 13.8903 5.20675 13.8395 5.15735C13.7366 5.05628 13.5982 4.99964 13.454 4.99964C13.3098 4.99964 13.1713 5.05628 13.0685 5.15735Z" fill="currentColor"/>
    </symbol>

    <symbol id="arrow-max" width="20" height="20" viewBox="0 0 20 20" fill="none" xmlns="http://www.w3.org/2000/svg">
        <path d="M5.18698 14.9406C5.30493 15.0556 5.46397 15.1186 5.62865 15.1156C5.79284 15.1159 5.95091 15.0533 6.07032 14.9406L13.8453 7.15829V13.8739C13.8453 14.2191 14.1251 14.4989 14.4703 14.4989C14.6382 14.5035 14.8007 14.4394 14.9202 14.3214C15.0397 14.2035 15.106 14.0419 15.1036 13.8739V5.76375C15.1253 5.66867 15.1248 5.56823 15.0998 5.47037C15.0433 5.24892 14.8703 5.07601 14.6489 5.01945C14.551 4.99446 14.4506 4.99396 14.3555 5.01561H6.24532C5.90014 5.01561 5.62032 5.29543 5.62032 5.64061C5.62032 5.98579 5.90014 6.26561 6.24532 6.26561H12.9703L5.18698 14.0489C5.06738 14.1665 5 14.3271 5 14.4948C5 14.6624 5.06738 14.8231 5.18698 14.9406Z" fill="currentColor"/>
    </symbol>

    <symbol id="quote" xmlns="http://www.w3.org/2000/svg" width="66" height="58" viewBox="0 0 66 58" fill="none">
        <path d="M0 33.6195L15.4846 0H28.4308L17.7692 30.7965H26.9077V58H0V33.6195ZM37.5692 33.6195L53.0538 0H66L55.3385 30.7965H64.4769V58H37.5692V33.6195Z" fill="currentColor"/>
    </symbol>

    <symbol id="pin" xmlns="http://www.w3.org/2000/svg" width="12" height="17" viewBox="0 0 12 17" fill="none">
        <path d="M5.83333 7.91667C5.2808 7.91667 4.7509 7.69717 4.36019 7.30647C3.96949 6.91577 3.75 6.38587 3.75 5.83333C3.75 5.2808 3.96949 4.75089 4.36019 4.36019C4.7509 3.96949 5.2808 3.75 5.83333 3.75C6.38587 3.75 6.91577 3.96949 7.30647 4.36019C7.69717 4.75089 7.91667 5.2808 7.91667 5.83333C7.91667 6.10692 7.86278 6.37783 7.75808 6.63059C7.65339 6.88335 7.49993 7.11302 7.30647 7.30647C7.11302 7.49993 6.88335 7.65339 6.63059 7.75808C6.37783 7.86278 6.10692 7.91667 5.83333 7.91667ZM5.83333 0C4.28624 0 2.80251 0.614581 1.70854 1.70854C0.614582 2.80251 0 4.28624 0 5.83333C0 10.2083 5.83333 16.6667 5.83333 16.6667C5.83333 16.6667 11.6667 10.2083 11.6667 5.83333C11.6667 4.28624 11.0521 2.80251 9.95812 1.70854C8.86416 0.614581 7.38043 0 5.83333 0Z" fill="currentColor"/>
    </symbol>

    <symbol id="linkedin" xmlns="http://www.w3.org/2000/svg" viewBox="0 0 20 20" fill="none">
        <g clip-path="url(#clip0_1580_31088)">
            <path fill-rule="evenodd" clip-rule="evenodd" d="M16.1137 0.832031C16.9241 0.832031 17.7013 1.15396 18.2743 1.72698C18.8473 2.30001 19.1693 3.0772 19.1693 3.88759V16.1098C19.1693 16.9202 18.8473 17.6974 18.2743 18.2704C17.7013 18.8434 16.9241 19.1654 16.1137 19.1654H3.89149C3.08111 19.1654 2.30392 18.8434 1.73089 18.2704C1.15786 17.6974 0.835938 16.9202 0.835938 16.1098V3.88759C0.835938 3.0772 1.15786 2.30001 1.73089 1.72698C2.30392 1.15396 3.08111 0.832031 3.89149 0.832031H16.1137ZM5.92853 7.96166C5.6584 7.96166 5.39934 8.06897 5.20833 8.25998C5.01732 8.45099 4.91001 8.71005 4.91001 8.98018V14.0728C4.91001 14.3429 5.01732 14.602 5.20833 14.793C5.39934 14.984 5.6584 15.0913 5.92853 15.0913C6.19866 15.0913 6.45772 14.984 6.64873 14.793C6.83974 14.602 6.94705 14.3429 6.94705 14.0728V8.98018C6.94705 8.71005 6.83974 8.45099 6.64873 8.25998C6.45772 8.06897 6.19866 7.96166 5.92853 7.96166ZM8.98409 6.94314C8.71396 6.94314 8.45489 7.05045 8.26388 7.24146C8.07288 7.43247 7.96557 7.69153 7.96557 7.96166V14.0728C7.96557 14.3429 8.07288 14.602 8.26388 14.793C8.45489 14.984 8.71396 15.0913 8.98409 15.0913C9.25421 15.0913 9.51328 14.984 9.70429 14.793C9.8953 14.602 10.0026 14.3429 10.0026 14.0728V10.345C10.3133 9.99462 10.8378 9.58314 11.4214 9.33361C11.7606 9.18898 12.2708 9.1299 12.6253 9.24194C12.7429 9.27177 12.8476 9.33896 12.9237 9.43342C12.9767 9.50472 13.0582 9.66361 13.0582 9.9987V14.0728C13.0582 14.3429 13.1655 14.602 13.3565 14.793C13.5475 14.984 13.8066 15.0913 14.0767 15.0913C14.3468 15.0913 14.6059 14.984 14.7969 14.793C14.9879 14.602 15.0952 14.3429 15.0952 14.0728V9.9987C15.0952 9.31629 14.922 8.70925 14.5615 8.2224C14.2297 7.78093 13.7654 7.45721 13.2364 7.29861C12.3177 7.01036 11.3002 7.17027 10.6208 7.46157C10.4034 7.55511 10.1915 7.66122 9.98631 7.77935C9.94361 7.54467 9.8199 7.33242 9.63675 7.1796C9.4536 7.02679 9.22262 6.94311 8.98409 6.94314ZM5.92853 4.90611C5.6584 4.90611 5.39934 5.01341 5.20833 5.20442C5.01732 5.39543 4.91001 5.6545 4.91001 5.92462C4.91001 6.19475 5.01732 6.45382 5.20833 6.64483C5.39934 6.83583 5.6584 6.94314 5.92853 6.94314C6.19866 6.94314 6.45772 6.83583 6.64873 6.64483C6.83974 6.45382 6.94705 6.19475 6.94705 5.92462C6.94705 5.6545 6.83974 5.39543 6.64873 5.20442C6.45772 5.01341 6.19866 4.90611 5.92853 4.90611Z" fill="currentColor"/>
        </g>
        <defs>
            <clipPath id="clip0_1580_31088">
                <rect width="20" height="20" fill="white"/>
            </clipPath>
        </defs>
    </symbol>

    <symbol id="instagram" xmlns="http://www.w3.org/2000/svg" viewBox="0 0 20 20" fill="none">
        <g clip-path="url(#clip0_1580_31094)">
            <path d="M10.9454 0.832031C11.9767 0.834781 12.5001 0.840281 12.952 0.853115L13.1298 0.859531C13.3352 0.866864 13.5378 0.876031 13.7825 0.887031C14.7578 0.932864 15.4233 1.08686 16.0073 1.31328C16.6123 1.54611 17.1219 1.86145 17.6316 2.37019C18.0979 2.82828 18.4586 3.38263 18.6885 3.99452C18.9149 4.57844 19.0689 5.24394 19.1148 6.22019C19.1258 6.46402 19.1349 6.6666 19.1422 6.87285L19.1478 7.05068C19.1615 7.50168 19.167 8.0251 19.1688 9.05635L19.1698 9.74018V10.941C19.172 11.6096 19.165 12.2782 19.1487 12.9467L19.1432 13.1245C19.1358 13.3308 19.1267 13.5333 19.1157 13.7772C19.0698 14.7534 18.914 15.418 18.6885 16.0028C18.4586 16.6147 18.0979 17.1691 17.6316 17.6272C17.1735 18.0935 16.6192 18.4542 16.0073 18.6841C15.4233 18.9105 14.7578 19.0645 13.7825 19.1103L13.1298 19.1378L12.952 19.1433C12.5001 19.1562 11.9767 19.1626 10.9454 19.1644L10.2616 19.1653H9.06169C8.39276 19.1677 7.72384 19.1607 7.05511 19.1442L6.87728 19.1387C6.65967 19.1305 6.44211 19.121 6.22461 19.1103C5.24928 19.0645 4.58378 18.9105 3.99895 18.6841C3.38738 18.454 2.83336 18.0934 2.37554 17.6272C1.90891 17.1692 1.54789 16.6148 1.31771 16.0028C1.09129 15.4189 0.937292 14.7534 0.891459 13.7772L0.863959 13.1245L0.859376 12.9467C0.842478 12.2783 0.834838 11.6096 0.836459 10.941V9.05635C0.833922 8.38773 0.840645 7.71911 0.856626 7.05068L0.863042 6.87285C0.870376 6.6666 0.879542 6.46402 0.890542 6.22019C0.936375 5.24394 1.09037 4.57936 1.31679 3.99452C1.54751 3.38237 1.90916 2.82801 2.37646 2.37019C2.83401 1.90412 3.38771 1.54343 3.99895 1.31328C4.58378 1.08686 5.24837 0.932864 6.22461 0.887031C6.46845 0.876031 6.67195 0.866864 6.87728 0.859531L7.05511 0.854031C7.72354 0.837745 8.39215 0.830716 9.06077 0.832948L10.9454 0.832031ZM10.0031 5.41535C8.78753 5.41535 7.62175 5.89824 6.76221 6.75778C5.90267 7.61732 5.41978 8.7831 5.41978 9.99868C5.41978 11.2143 5.90267 12.38 6.76221 13.2396C7.62175 14.0991 8.78753 14.582 10.0031 14.582C11.2187 14.582 12.3845 14.0991 13.244 13.2396C14.1035 12.38 14.5864 11.2143 14.5864 9.99868C14.5864 8.7831 14.1035 7.61732 13.244 6.75778C12.3845 5.89824 11.2187 5.41535 10.0031 5.41535ZM10.0031 7.24868C10.3642 7.24862 10.7218 7.31969 11.0555 7.45784C11.3892 7.59598 11.6924 7.7985 11.9478 8.05381C12.2032 8.30913 12.4058 8.61226 12.5441 8.94588C12.6823 9.2795 12.7535 9.63708 12.7536 9.99822C12.7536 10.3594 12.6825 10.717 12.5444 11.0506C12.4063 11.3843 12.2037 11.6875 11.9484 11.9429C11.6931 12.1983 11.39 12.4009 11.0564 12.5392C10.7227 12.6774 10.3652 12.7486 10.004 12.7487C9.27468 12.7487 8.57521 12.4589 8.05948 11.9432C7.54376 11.4275 7.25403 10.728 7.25403 9.99868C7.25403 9.26933 7.54376 8.56986 8.05948 8.05414C8.57521 7.53841 9.27468 7.24868 10.004 7.24868M14.8165 4.04036C14.5126 4.04036 14.2212 4.16108 14.0063 4.37596C13.7914 4.59085 13.6707 4.88229 13.6707 5.18619C13.6707 5.49008 13.7914 5.78153 14.0063 5.99641C14.2212 6.2113 14.5126 6.33202 14.8165 6.33202C15.1204 6.33202 15.4119 6.2113 15.6267 5.99641C15.8416 5.78153 15.9623 5.49008 15.9623 5.18619C15.9623 4.88229 15.8416 4.59085 15.6267 4.37596C15.4119 4.16108 15.1204 4.04036 14.8165 4.04036Z" fill="currentColor"/>
        </g>
        <defs>
            <clipPath id="clip0_1580_31094">
                <rect width="20" height="20" fill="white"/>
            </clipPath>
        </defs>
    </symbol>

    <symbol id="x" xmlns="http://www.w3.org/2000/svg" viewBox="0 0 20 20" fill="none">
        <g clip-path="url(#clip0_1580_31098)">
            <path fill-rule="evenodd" clip-rule="evenodd" d="M4.16927 0.832031C3.28522 0.832031 2.43737 1.18322 1.81225 1.80834C1.18713 2.43346 0.835938 3.28131 0.835938 4.16536V15.832C0.835938 16.7161 1.18713 17.5639 1.81225 18.1891C2.43737 18.8142 3.28522 19.1654 4.16927 19.1654H15.8359C16.72 19.1654 17.5678 18.8142 18.193 18.1891C18.8181 17.5639 19.1693 16.7161 19.1693 15.832V4.16536C19.1693 3.28131 18.8181 2.43346 18.193 1.80834C17.5678 1.18322 16.72 0.832031 15.8359 0.832031H4.16927ZM3.89094 3.7487C3.79971 3.7826 3.71767 3.83734 3.65133 3.90855C3.585 3.97976 3.53621 4.06548 3.50886 4.15887C3.4815 4.25227 3.47633 4.35076 3.49377 4.44651C3.5112 4.54225 3.55075 4.6326 3.60927 4.71036L8.2876 10.9187L3.35844 16.2062L3.32177 16.2487H5.0276L9.0526 11.9329L12.1459 16.0395C12.2177 16.1346 12.3151 16.2072 12.4268 16.2487H16.1118C16.2029 16.2146 16.2847 16.1597 16.3509 16.0885C16.417 16.0172 16.4656 15.9314 16.4928 15.8381C16.52 15.7447 16.525 15.6462 16.5075 15.5506C16.49 15.4549 16.4503 15.3647 16.3918 15.287L11.7134 9.0787L16.6834 3.7487H14.9751L10.9501 8.06537L7.8551 3.9587C7.78345 3.86333 7.686 3.79046 7.57427 3.7487H3.89094ZM12.9576 15.0387L5.36177 4.9587H7.04427L14.6393 15.0379L12.9576 15.0387Z" fill="currentColor"/>
        </g>
        <defs>
            <clipPath id="clip0_1580_31098">
                <rect width="20" height="20" fill="white"/>
            </clipPath>
        </defs>
    </symbol>

    <symbol id="facebook" viewBox="0 0 20 20" fill="none" xmlns="http://www.w3.org/2000/svg">
        <g clip-path="url(#clip0_1770_27504)">
            <rect x="0.835938" y="0.834961" width="18.33" height="18.33" rx="2.7" fill="currentColor"/>
            <path d="M12.5962 13.2841H14.5056L15.2694 10.2291H12.5962V8.7016C12.5962 7.91494 12.5962 7.1741 14.1237 7.1741H15.2694V4.6079C15.0204 4.57506 14.0802 4.50098 13.0873 4.50098C11.0138 4.50098 9.54125 5.76651 9.54125 8.0906V10.2291H7.25V13.2841H9.54125V19.776H12.5962V13.2841Z" fill="#FAFBFC"/>
        </g>
        <defs>
            <clipPath id="clip0_1770_27504">
                <rect x="0.835938" y="0.834961" width="18.33" height="18.33" rx="2.7" fill="white"/>
            </clipPath>
        </defs>
    </symbol>

    <symbol id="wh" viewBox="0 0 20 20" fill="none" xmlns="http://www.w3.org/2000/svg">
        <g clip-path="url(#clip0_1770_27515)">
            <path d="M19.1568 5.00131C19.1482 4.60815 19.1167 4.21583 19.0624 3.82636C18.9967 3.47998 18.8848 3.14399 18.7297 2.82737C18.3906 2.15757 17.8467 1.61338 17.1771 1.2739C16.8625 1.11968 16.5287 1.0081 16.1846 0.942131C15.7921 0.886805 15.3967 0.854672 15.0004 0.845899C14.8327 0.839483 14.6155 0.836734 14.5147 0.836734L5.48901 0.833984C5.38819 0.833984 5.17098 0.836734 5.00326 0.843149C4.61011 0.851673 4.21778 0.883194 3.82831 0.937549C3.48193 1.00326 3.14594 1.11516 2.82933 1.27024C2.15953 1.60932 1.61533 2.15319 1.27586 2.82279C1.12163 3.13743 1.01006 3.47122 0.944085 3.81536C0.888452 4.20781 0.856012 4.6032 0.846936 4.99948C0.841437 5.1672 0.837771 5.38441 0.837771 5.48522L0.835938 14.5109C0.835938 14.6117 0.838687 14.8289 0.845102 14.9967C0.853626 15.3898 0.885147 15.7821 0.939502 16.1716C1.00521 16.518 1.11711 16.854 1.27219 17.1706C1.61127 17.8404 2.15514 18.3846 2.82474 18.7241C3.13938 18.8783 3.47318 18.9899 3.81731 19.0558C4.20978 19.1112 4.60518 19.1433 5.00143 19.1521C5.16915 19.1585 5.38636 19.1612 5.48717 19.1612L14.5129 19.1631C14.6137 19.1631 14.8309 19.1603 14.9986 19.1539C15.3918 19.1454 15.7841 19.1139 16.1736 19.0595C16.5199 18.9938 16.8559 18.8819 17.1726 18.7268C17.8427 18.3879 18.3872 17.844 18.7269 17.1743C18.8812 16.8596 18.9927 16.5258 19.0587 16.1817C19.1143 15.7892 19.1468 15.3939 19.1559 14.9976C19.1614 14.8299 19.165 14.6126 19.165 14.5118L19.1659 5.48706C19.1659 5.38624 19.1632 5.16903 19.1568 5.00131ZM10.1998 16.3751H10.1971C9.106 16.3759 8.03224 16.1023 7.07455 15.5796L3.61018 16.4878L4.53768 13.1032C3.81956 11.857 3.53262 10.4088 3.72135 8.98294C3.91008 7.55712 4.56394 6.23339 5.58155 5.21699C6.59916 4.20059 7.92366 3.54831 9.34971 3.36127C10.7758 3.17424 12.2237 3.4629 13.469 4.1825C14.7143 4.90211 15.6874 6.01245 16.2374 7.34137C16.7874 8.6703 16.8837 10.1436 16.5112 11.5328C16.1387 12.922 15.3183 14.1495 14.1772 15.0249C13.0361 15.9004 11.6381 16.375 10.1998 16.3751Z" fill="currentColor"/>
            <path d="M10.1993 4.41107C9.22881 4.41079 8.27596 4.67051 7.43985 5.16323C6.60373 5.65595 5.91489 6.36368 5.44495 7.2128C4.97501 8.06193 4.74114 9.02146 4.76765 9.99159C4.79417 10.9617 5.08011 11.907 5.59573 12.7292L5.72496 12.9345L5.17597 14.938L7.23168 14.3991L7.42965 14.5164C8.26617 15.0128 9.2211 15.2743 10.1938 15.2734H10.1966C11.6371 15.2737 13.0188 14.7016 14.0376 13.6832C15.0564 12.6647 15.6289 11.2833 15.6291 9.84271C15.6294 8.40215 15.0573 7.0205 14.0389 6.00169C13.0204 4.98289 11.639 4.4104 10.1984 4.41016L10.1993 4.41107ZM13.3924 12.1738C13.2724 12.3724 13.1126 12.5439 12.923 12.6775C12.7334 12.8111 12.5181 12.9039 12.2908 12.9501C11.9477 13.009 11.5956 12.9871 11.2624 12.8859C10.9464 12.788 10.6358 12.6729 10.3322 12.5413C9.20466 11.9755 8.24359 11.1262 7.54329 10.0769C7.16113 9.59118 6.92923 9.00441 6.87608 8.38868C6.87185 8.13457 6.9205 7.88236 7.01895 7.64806C7.11741 7.41376 7.26351 7.2025 7.44798 7.02768C7.50271 6.96566 7.56958 6.91552 7.64446 6.88037C7.71934 6.84521 7.80063 6.82579 7.88331 6.8233C7.99146 6.8233 8.10052 6.8233 8.19584 6.8288C8.29665 6.83338 8.43046 6.79031 8.56244 7.10925C8.69991 7.43552 9.02619 8.23929 9.06651 8.32086C9.09224 8.36368 9.10696 8.41221 9.10936 8.46211C9.11176 8.512 9.10176 8.56172 9.08026 8.60681C9.03933 8.70495 8.98438 8.79664 8.91713 8.87901C8.83464 8.97433 8.74574 9.09164 8.67242 9.16496C8.58993 9.24653 8.50562 9.33451 8.60002 9.49765C8.84558 9.9172 9.15162 10.2983 9.50827 10.6286C9.89602 10.9724 10.3404 11.2465 10.8216 11.4388C10.9847 11.5213 11.0801 11.5066 11.1754 11.3976C11.2707 11.2885 11.5832 10.921 11.6923 10.7578C11.8014 10.5947 11.9095 10.6222 12.0589 10.6763C12.2083 10.7303 13.012 11.1254 13.1752 11.2078C13.3383 11.2903 13.4474 11.3297 13.4877 11.3976C13.5318 11.6601 13.4987 11.9298 13.3924 12.1738Z" fill="currentColor"/>
        </g>
        <defs>
            <clipPath id="clip0_1770_27515">
                <rect width="20" height="20" fill="white"/>
            </clipPath>
        </defs>
    </symbol>

    <symbol id="mail" viewBox="0 0 20 20" fill="none" xmlns="http://www.w3.org/2000/svg">
        <rect x="0.835938" y="0.834961" width="18.33" height="18.33" rx="3" fill="currentColor"/>
        <path d="M16.0063 6.19965C16.0063 5.5393 15.466 4.99902 14.8056 4.99902H5.20063C4.54028 4.99902 4 5.5393 4 6.19965V13.4034C4 14.0637 4.54028 14.604 5.20063 14.604H14.8056C15.466 14.604 16.0063 14.0637 16.0063 13.4034V6.19965ZM14.8056 6.19965L10.0031 9.19521L5.20063 6.19965H14.8056ZM14.8056 13.4034H5.20063V7.40027L10.0031 10.4018L14.8056 7.40027V13.4034Z" fill="#FAFBFC"/>
    </symbol>

    <symbol id="link" viewBox="0 0 20 20" fill="none" xmlns="http://www.w3.org/2000/svg">
        <rect x="0.835938" y="0.834961" width="18.33" height="18.33" rx="3" fill="currentColor"/>
        <path d="M8.43726 8.43657C9.06735 7.80653 9.91551 7.44276 10.8063 7.42053C11.6971 7.39829 12.5623 7.71928 13.223 8.3171L13.3488 8.43657L15.3131 10.4016C15.9528 11.0425 16.317 11.9079 16.3279 12.8134C16.3388 13.7188 15.9956 14.5928 15.3715 15.2489C14.7473 15.905 13.8916 16.2914 12.9867 16.3257C12.0818 16.36 11.1993 16.0395 10.5273 15.4326L10.4023 15.3131L8.92834 13.8392C8.80377 13.7142 8.73144 13.5464 8.72606 13.37C8.72067 13.1936 8.78263 13.0218 8.89934 12.8894C9.01606 12.7571 9.17878 12.6741 9.35446 12.6574C9.53014 12.6406 9.70561 12.6914 9.84521 12.7993L9.91051 12.857L11.3844 14.3309C11.7665 14.7152 12.2833 14.9356 12.8251 14.9452C13.367 14.9549 13.8912 14.753 14.2867 14.3826C14.6822 14.0121 14.9179 13.5021 14.9436 12.9608C14.9694 12.4195 14.7832 11.8894 14.4247 11.4831L14.3309 11.3838L12.3666 9.41943C12.1731 9.22589 11.9434 9.07237 11.6905 8.96763C11.4377 8.86289 11.1667 8.80898 10.893 8.80898C10.6193 8.80898 10.3483 8.86289 10.0955 8.96763C9.84266 9.07237 9.61293 9.22589 9.41943 9.41943C9.28909 9.54967 9.11235 9.62281 8.9281 9.62274C8.74384 9.62267 8.56716 9.54942 8.43692 9.41908C8.30667 9.28875 8.23354 9.11201 8.23361 8.92776C8.23367 8.7435 8.30693 8.56682 8.43726 8.43657ZM4.01684 4.01615C4.64693 3.38611 5.49509 3.02234 6.38586 3.00011C7.27663 2.97787 8.14188 3.29886 8.80262 3.89668L8.92834 4.01615L10.4016 5.49078C10.5262 5.61578 10.5985 5.78351 10.6039 5.9599C10.6093 6.1363 10.5473 6.30813 10.4306 6.44049C10.3139 6.57286 10.1511 6.65584 9.97547 6.67257C9.79979 6.68931 9.62433 6.63855 9.48472 6.5306L9.41943 6.47295L7.94618 4.9997C7.56344 4.61945 7.04813 4.40247 6.50867 4.39441C5.96921 4.38635 5.44765 4.58784 5.05371 4.95649C4.65978 5.32514 4.42419 5.83221 4.39649 6.37102C4.3688 6.90983 4.55117 7.43838 4.90523 7.84547L4.99901 7.94549L6.96402 9.91051C7.35479 10.3012 7.88472 10.5206 8.43726 10.5206C8.98981 10.5206 9.51974 10.3012 9.91051 9.91051C9.975 9.84597 10.0516 9.79477 10.1358 9.75983C10.2201 9.72489 10.3105 9.70688 10.4017 9.70685C10.4929 9.70682 10.5833 9.72476 10.6676 9.75964C10.7519 9.79453 10.8285 9.84567 10.893 9.91016C10.9575 9.97465 11.0087 10.0512 11.0437 10.1355C11.0786 10.2198 11.0966 10.3101 11.0967 10.4013C11.0967 10.4926 11.0788 10.5829 11.0439 10.6672C11.009 10.7515 10.9579 10.8281 10.8934 10.8927C10.2633 11.5227 9.41512 11.8865 8.52434 11.9087C7.63357 11.931 6.76833 11.61 6.10758 11.0121L5.98117 10.8927L4.01684 8.92765C3.36576 8.27637 3 7.39316 3 6.47225C3 5.55134 3.36576 4.66744 4.01684 4.01615Z" fill="#FAFBFC"/>
    </symbol>

    <symbol id="phone" xmlns="http://www.w3.org/2000/svg" width="24" height="24" viewBox="0 0 24 24" fill="none">
        <path d="M8 3C8.5 3 10.5 7.5 10.5 8C10.5 9 9 10 8.5 11C8 12 9 13 10 14C10.39 14.39 12 16 13 15.5C14 15 15 13.5 16 13.5C16.5 13.5 21 15.5 21 16C21 18 19.5 19.5 18 20C16.5 20.5 15.5 20.5 13.5 20C11.5 19.5 10 19 7.5 16.5C5 14 4.5 12.5 4 10.5C3.5 8.5 3.5 7.5 4 6C4.5 4.5 6 3 8 3Z" fill="currentColor"/>
    </symbol>

    <symbol id="star" width="16" height="16" viewBox="0 0 16 16" fill="none" xmlns="http://www.w3.org/2000/svg">
        <path d="M0 4.85453L5.64308 4.76937L8.68426 0L10.5427 5.45068L16 6.89852L11.4551 10.3392L11.6973 16L7.05668 12.7296L1.83038 14.819L3.42979 9.25478L0 4.85453Z" fill="currentColor"/>
    </symbol>

    <symbol id="date" xmlns="http://www.w3.org/2000/svg" width="24" height="24" viewBox="0 0 24 24" fill="none">
        <path d="M18.4325 4.95521H16.4925V3.54521C16.4925 3.28521 16.2625 3.03521 15.9925 3.04521C15.7225 3.05521 15.4925 3.26521 15.4925 3.54521V4.95521H8.4925V3.54521C8.4925 3.28521 8.2625 3.03521 7.9925 3.04521C7.7225 3.05521 7.4925 3.26521 7.4925 3.54521V4.95521H5.5625C4.89946 4.95521 4.26357 5.2186 3.79473 5.68744C3.32589 6.15629 3.0625 6.79217 3.0625 7.45521V18.4552C3.0625 19.1183 3.32589 19.7541 3.79473 20.223C4.26357 20.6918 4.89946 20.9552 5.5625 20.9552H18.4325C19.0955 20.9552 19.7314 20.6918 20.2003 20.223C20.6691 19.7541 20.9325 19.1183 20.9325 18.4552V7.45521C20.9325 6.79217 20.6691 6.15629 20.2003 5.68744C19.7314 5.2186 19.0955 4.95521 18.4325 4.95521ZM19.9325 18.4552C19.9325 19.2852 19.2625 19.9552 18.4325 19.9552H5.5625C4.7325 19.9552 4.0625 19.2852 4.0625 18.4552V10.0352H19.9325V18.4552ZM19.9325 9.03521H4.0625V7.45521C4.0625 6.62521 4.7325 5.95521 5.5625 5.95521H7.4925V6.54521C7.4925 6.80521 7.7225 7.05521 7.9925 7.04521C8.2625 7.03521 8.4925 6.82521 8.4925 6.54521V5.95521H15.4925V6.54521C15.4925 6.80521 15.7225 7.05521 15.9925 7.04521C16.2625 7.03521 16.4925 6.82521 16.4925 6.54521V5.95521H18.4325C19.2625 5.95521 19.9325 6.62521 19.9325 7.45521V9.03521Z" fill="currentColor"/>
        <path d="M11.4956 17.1719V13.7119C11.4956 13.6986 11.4921 13.6855 11.4853 13.6741C11.4786 13.6626 11.4689 13.6531 11.4573 13.6466C11.4457 13.6401 11.4326 13.6367 11.4193 13.637C11.406 13.6372 11.393 13.641 11.3816 13.6479L10.7436 14.0399C10.7209 14.0537 10.6949 14.0613 10.6683 14.0618C10.6417 14.0622 10.6154 14.0556 10.5922 14.0426C10.569 14.0295 10.5497 14.0106 10.5362 13.9876C10.5228 13.9647 10.5156 13.9385 10.5156 13.9119V13.2609C10.5156 13.1559 10.5706 13.0579 10.6616 13.0039L11.4256 12.5469C11.4721 12.5189 11.5253 12.504 11.5796 12.5039H12.2056C12.245 12.5039 12.284 12.5117 12.3204 12.5267C12.3568 12.5418 12.3899 12.5639 12.4178 12.5918C12.4456 12.6196 12.4677 12.6527 12.4828 12.6891C12.4979 12.7255 12.5056 12.7645 12.5056 12.8039V17.1709C12.5056 17.2505 12.474 17.3268 12.4178 17.383C12.3615 17.4393 12.2852 17.4709 12.2056 17.4709H11.7966C11.7572 17.471 11.7182 17.4634 11.6817 17.4485C11.6453 17.4335 11.6122 17.4115 11.5842 17.3837C11.5562 17.356 11.534 17.323 11.5188 17.2866C11.5036 17.2503 11.4958 17.2113 11.4956 17.1719Z" fill="currentColor"/>
    </symbol>

    <symbol id="view" xmlns="http://www.w3.org/2000/svg" width="24" height="24" viewBox="0 0 24 24" fill="none">
        <path d="M12 15.5C13.933 15.5 15.5 13.933 15.5 12C15.5 10.067 13.933 8.5 12 8.5C10.067 8.5 8.5 10.067 8.5 12C8.5 13.933 10.067 15.5 12 15.5Z" stroke="currentColor"/>
        <path d="M20.1924 10.934C20.5804 11.406 20.7744 11.641 20.7744 12C20.7744 12.359 20.5804 12.594 20.1924 13.066C18.7724 14.79 15.6404 18 12.0044 18C8.36838 18 5.23637 14.79 3.81638 13.066C3.42838 12.594 3.23438 12.359 3.23438 12C3.23438 11.641 3.42838 11.406 3.81638 10.934C5.23637 9.21 8.36838 6 12.0044 6C15.6404 6 18.7724 9.21 20.1924 10.934Z" stroke="currentColor"/>
    </symbol>
</svg>